<svg width="24" height="24" viewBox="0 0 24 24" fill="none" xmlns="http://www.w3.org/2000/svg">
<path d="M14.8685 9.02212C14.7766 9.02238 14.6857 9.00304 14.602 8.96539C14.5182 8.92775 14.4435 8.87267 14.3829 8.80388L13.7369 8.07713C13.6892 8.02382 13.6308 7.98116 13.5654 7.95195C13.5 7.92273 13.4291 7.90763 13.3575 7.90763C13.2858 7.90763 13.2149 7.92273 13.1496 7.95195C13.0842 7.98116 13.0257 8.02382 12.978 8.07713L12.4247 8.7015C12.3347 8.80219 12.2245 8.8828 12.1011 8.93806C11.9777 8.99331 11.844 9.02196 11.7087 9.02212H2.99384C2.74217 9.73982 2.5828 10.4864 2.51953 11.244H10.7465C10.8183 11.2441 10.8893 11.2297 10.9553 11.2016C11.0213 11.1736 11.0809 11.1325 11.1305 11.0809L11.8962 10.2855C11.9434 10.2362 12.0002 10.197 12.0631 10.1701C12.126 10.1433 12.1936 10.1293 12.262 10.1291H12.2937C12.4382 10.1291 12.5771 10.191 12.6731 10.3001L13.3191 11.0269C13.3798 11.0955 13.4545 11.1503 13.5383 11.1878C13.6221 11.2252 13.7129 11.2444 13.8047 11.244H20.5195C20.4563 10.4864 20.2969 9.73982 20.0452 9.02212H14.8685ZM7.49977 15.9127C7.64432 15.9127 7.78209 15.8554 7.88147 15.7507L8.6494 14.9554C8.69655 14.9063 8.75315 14.8671 8.81582 14.8402C8.87849 14.8134 8.94594 14.7993 9.01417 14.799H9.04579C9.19034 14.799 9.32924 14.8609 9.42523 14.97L10.0712 15.6956C10.1954 15.834 10.3705 15.9139 10.5568 15.9139H19.6567C20.0011 15.2017 20.2498 14.4475 20.3964 13.6706H11.6613C11.5694 13.6709 11.4785 13.6515 11.3947 13.6139C11.311 13.5762 11.2363 13.5212 11.1757 13.4524L10.5308 12.7267C10.4831 12.6733 10.4246 12.6304 10.3591 12.6011C10.2936 12.5718 10.2226 12.5566 10.1508 12.5566C10.079 12.5566 10.008 12.5718 9.9425 12.6011C9.877 12.6304 9.81848 12.6733 9.7708 12.7267L9.21744 13.35C9.12762 13.4509 9.01739 13.5317 8.894 13.5872C8.7706 13.6426 8.63683 13.6714 8.50146 13.6717H2.64376C2.79282 14.4592 3.0424 15.213 3.38345 15.915L7.49977 15.9127ZM13.9549 6.59438C14.0266 6.59445 14.0976 6.58003 14.1636 6.55199C14.2296 6.52396 14.2892 6.48288 14.3388 6.43125L15.1045 5.63588C15.1518 5.58662 15.2086 5.54738 15.2714 5.52051C15.3343 5.49364 15.402 5.47969 15.4704 5.4795H15.502C15.6466 5.4795 15.7855 5.54138 15.8815 5.6505L16.5274 6.37725C16.5882 6.44584 16.6629 6.50071 16.7467 6.53816C16.8304 6.5756 16.9212 6.59477 17.013 6.59438H18.7431C17.9021 5.47761 16.8115 4.57136 15.5577 3.94746C14.304 3.32356 12.9216 2.99917 11.5201 3C10.1188 2.99935 8.73665 3.32382 7.48311 3.94771C6.22957 4.5716 5.13913 5.47776 4.29819 6.59438H13.9549ZM8.11185 18.138C8.01996 18.1383 7.92908 18.1189 7.84532 18.0813C7.76156 18.0436 7.68687 17.9885 7.62625 17.9197L6.98255 17.1941C6.93487 17.1406 6.87635 17.0978 6.81085 17.0685C6.74534 17.0392 6.67435 17.024 6.60254 17.024C6.53072 17.024 6.45973 17.0392 6.39422 17.0685C6.32872 17.0978 6.2702 17.1406 6.22252 17.1941L5.66804 17.8174C5.57834 17.9181 5.4683 17.9989 5.34511 18.0543C5.22192 18.1098 5.08836 18.1387 4.95318 18.1391H4.91592C5.76015 19.0427 6.78236 19.7631 7.91867 20.2553C9.05499 20.7475 10.281 21.0011 11.5201 21C12.759 21.0009 13.9848 20.7473 15.1209 20.2551C16.257 19.7628 17.279 19.0425 18.1231 18.1391L8.11185 18.138Z" fill="white"/>
</svg>
