<svg width="24" height="24" viewBox="0 0 24 24" fill="none" xmlns="http://www.w3.org/2000/svg">
<path d="M15.9383 10.5768C16.6511 11.4911 17.0364 12.6187 17.0341 13.7781C17.0341 15.0046 16.6099 16.131 15.9077 17.0205L15.8476 17.096L15.8323 16.9946C15.8176 16.9117 15.8007 16.8292 15.7816 16.7472C15.4281 15.1672 14.2876 13.8087 12.3989 12.7082C11.1264 11.9706 10.3936 11.0823 10.2015 10.0713C10.0974 9.44231 10.1496 8.79734 10.3535 8.19324C10.4972 7.72195 10.7211 7.27658 11.0145 6.88069L11.7521 5.96167C11.7819 5.92477 11.8196 5.89501 11.8624 5.87456C11.9052 5.85411 11.952 5.8435 11.9995 5.8435C12.0469 5.8435 12.0938 5.85411 12.1366 5.87456C12.1794 5.89501 12.2171 5.92477 12.2469 5.96167L15.9383 10.5768ZM17.1001 9.65778L12.1809 3.50271C12.1592 3.47545 12.1316 3.45345 12.1002 3.43832C12.0688 3.4232 12.0344 3.41534 11.9995 3.41534C11.9646 3.41534 11.9302 3.4232 11.8988 3.43832C11.8674 3.45345 11.8398 3.47545 11.818 3.50271L6.90011 9.66249L6.88479 9.67781C5.94218 10.8751 5.43152 12.3556 5.43557 13.8794C5.43557 17.5802 8.37408 20.5847 11.9995 20.5847C15.6249 20.5847 18.5646 17.5802 18.5646 13.8794C18.5686 12.3556 18.058 10.8751 17.1154 9.67781L17.1001 9.65778ZM8.07599 10.5568L8.51547 10.0065L8.53078 10.1067L8.56613 10.3494C8.85362 11.8799 9.86925 13.1524 11.5706 14.1362C13.0505 14.9999 13.9082 15.9896 14.1557 17.0759C14.2522 17.4976 14.2777 17.9325 14.2311 18.3625V18.3885L14.211 18.3991C13.524 18.741 12.7669 18.9185 11.9995 18.9175C9.2224 18.9175 6.96491 16.6164 6.96491 13.7781C6.96491 12.5609 7.37965 11.4404 8.07599 10.5568Z" fill="white"/>
</svg>
