<svg width="24" height="24" viewBox="0 0 24 24" fill="none" xmlns="http://www.w3.org/2000/svg">
<path d="M19.2 12C19.2 10.0904 18.4414 8.25909 17.0912 6.90883C15.7409 5.55857 13.9096 4.8 12 4.8C10.0904 4.8 8.25909 5.55857 6.90883 6.90883C5.55857 8.25909 4.8 10.0904 4.8 12C4.8 13.9096 5.55857 15.7409 6.90883 17.0912C8.25909 18.4414 10.0904 19.2 12 19.2C13.9096 19.2 15.7409 18.4414 17.0912 17.0912C18.4414 15.7409 19.2 13.9096 19.2 12ZM21 12C21 16.9707 16.9707 21 12 21C7.0293 21 3 16.9707 3 12C3 7.0293 7.0293 3 12 3C16.9707 3 21 7.0293 21 12ZM16.2354 10.7076C16.0788 11.6553 15.5829 12.1179 14.9115 12.2817C15.8043 12.7812 16.2345 13.5399 15.7746 14.871C15.2031 16.5396 13.9233 16.6908 12.2286 16.3677L11.7912 18.129L10.8066 17.8851L11.2431 16.1238C10.9749 16.0518 10.7013 15.9996 10.434 15.9231L9.9975 17.6844L9.0147 17.4414L9.4512 15.6792L7.4928 15.1464L7.9788 13.9008C7.9788 13.9008 8.7186 14.1042 8.7078 14.0916C8.9814 14.1582 9.1155 13.9656 9.1704 13.8324L9.8688 11.0091L10.3782 9.0021C10.3998 8.7852 10.3314 8.5008 9.9309 8.3928C9.9579 8.3775 9.2109 8.2146 9.2109 8.2146L9.5016 7.0338L11.5203 7.5342L11.9478 5.8089L12.9648 6.0609L12.5373 7.7862C12.7992 7.8438 13.0539 7.9122 13.3167 7.9797L13.7433 6.2544L14.7333 6.4992L14.2941 8.2695C15.5424 8.7285 16.4415 9.4062 16.2354 10.7076ZM11.6454 11.0586C12.2367 11.2368 13.9899 11.7633 14.2851 10.5906C14.5605 9.4746 13.0413 9.1344 12.3357 8.976C12.2648 8.96134 12.1943 8.94483 12.1242 8.9265L11.5959 11.0442L11.6454 11.0586ZM10.7328 14.4966L10.8183 14.5227C11.5473 14.7387 13.6137 15.3534 13.8945 14.1897C14.1825 13.0683 12.3249 12.6318 11.4924 12.4356C11.4147 12.4182 11.3373 12.3996 11.2602 12.3798L10.7328 14.4966Z" fill="white"/>
</svg>
