<svg width="24" height="24" viewBox="0 0 24 24" fill="none" xmlns="http://www.w3.org/2000/svg">
<path fill-rule="evenodd" clip-rule="evenodd" d="M12.4161 4.63577C12.6135 4.25328 12.157 3.79676 11.7745 3.99418C11.466 4.11756 11.392 4.56174 11.6264 4.79617C11.8485 5.0306 12.2927 4.94423 12.4037 4.63577H12.4161ZM8.22101 4.80851C8.24569 4.56174 7.94957 4.33965 7.72747 4.43836C7.40668 4.52473 7.36966 5.0306 7.67812 5.15399C7.91255 5.28971 8.24569 5.07996 8.22101 4.80851ZM16.0189 5.16633C15.6611 5.11697 15.5994 4.54941 15.9448 4.43836C16.2163 4.30264 16.4507 4.54941 16.5001 4.80851C16.4384 5.0306 16.2656 5.22802 16.0189 5.16633ZM9.51654 6.75798C9.57823 6.3138 9.03534 5.94364 8.65285 6.19041C8.29504 6.37549 8.24569 6.93072 8.56648 7.16515C8.89962 7.47361 9.5042 7.2145 9.51654 6.75798ZM14.4889 6.44952C14.6617 6.00534 15.3526 5.993 15.55 6.42484C15.7474 6.75798 15.5007 7.17748 15.1675 7.28853C14.711 7.3749 14.2792 6.88136 14.5013 6.44952H14.4889ZM11.9966 6.5729C11.6387 6.59758 11.2933 6.88136 11.2933 7.26385C11.2686 7.57231 11.4907 7.83142 11.7498 7.9548H11.8238C11.9719 7.96714 12.1199 7.97948 12.2557 7.90545C12.6011 7.75739 12.7739 7.28853 12.5765 6.95539C12.4778 6.70863 12.2187 6.60992 11.9719 6.56056L11.9966 6.5729ZM5.27213 7.81908C5.61761 7.59699 6.08647 8.00416 5.96308 8.38665C5.88905 8.71979 5.44487 8.85551 5.1981 8.64575C4.92666 8.44834 4.97601 7.96714 5.27213 7.83142V7.81908ZM18.9554 8.22625C18.9924 7.84376 18.4989 7.58465 18.2028 7.81908C17.8943 8.00416 17.9313 8.51003 18.2521 8.65809C18.5483 8.83083 18.9678 8.57172 18.9431 8.22625H18.9554ZM12.9836 8.49769C13.4772 8.32496 14.0571 8.53471 14.3285 8.97889C14.6987 9.52178 14.5013 10.3361 13.9337 10.6446C13.3414 11.0147 12.4778 10.7063 12.2557 10.0277C12.0089 9.43541 12.3667 8.68277 12.9836 8.49769ZM11.6511 9.0776C11.392 8.52237 10.664 8.30028 10.1211 8.55939C9.54122 8.81849 9.28211 9.58347 9.57823 10.151C9.84968 10.7309 10.627 10.9777 11.1699 10.6569C11.7251 10.3731 11.9595 9.62049 11.6511 9.06526V9.0776ZM7.24628 9.54646C7.28329 9.18864 7.61643 8.96655 7.94957 8.94188C8.30738 8.99123 8.59116 9.26267 8.62818 9.63283C8.6035 9.99064 8.33206 10.3485 7.94957 10.3485C7.53006 10.3855 7.15991 9.96596 7.24628 9.54646ZM16.7345 9.63283C16.7592 9.13929 16.1546 8.76914 15.7228 9.01591C15.2662 9.238 15.2292 9.96596 15.6734 10.2251C16.1052 10.5335 16.7592 10.1634 16.7345 9.63283ZM8.94898 10.879C9.45485 10.7433 10.0224 10.9777 10.2692 11.4466C10.5406 11.9154 10.4296 12.5694 10.0101 12.9148C9.46719 13.4207 8.48012 13.211 8.19633 12.5324C7.8632 11.9031 8.27036 11.0517 8.94898 10.8913V10.879ZM15.7104 11.3725C15.4513 10.9284 14.8714 10.7309 14.3902 10.879C13.6993 11.0641 13.3414 11.9524 13.6993 12.5694C13.9954 13.1739 14.8344 13.3714 15.3773 12.9889C15.8955 12.6557 16.0559 11.8908 15.7104 11.3725ZM5.71631 11.4589C6.14816 11.2985 6.62936 11.7797 6.45662 12.2116C6.34557 12.6064 5.80268 12.7544 5.50656 12.4583C5.17342 12.1869 5.29681 11.57 5.71631 11.4589ZM18.0917 11.3849C17.7216 11.4096 17.4625 11.7304 17.4748 12.0882C17.5488 12.2609 17.6352 12.4336 17.8079 12.52C18.1658 12.7174 18.684 12.4336 18.6593 12.0018C18.684 11.681 18.3879 11.4342 18.0917 11.3849ZM3.58177 11.6687C3.84088 11.5576 4.16168 11.7797 4.09998 12.0758C4.08765 12.409 3.60645 12.5324 3.42137 12.2609C3.26097 12.0635 3.35968 11.7674 3.56943 11.6687H3.58177ZM20.5841 11.8414C20.5101 11.6193 20.2139 11.5329 20.0289 11.6563C19.7204 11.8167 19.8438 12.3966 20.2139 12.3596C20.473 12.3966 20.7075 12.0758 20.5841 11.8414ZM10.3556 13.248C11.0465 13.0629 11.7745 13.6428 11.7868 14.3584C11.8362 15.0864 11.1082 15.7157 10.4049 15.5553C10.1339 15.503 9.89 15.3568 9.71621 15.1424C9.54241 14.9279 9.44986 14.6591 9.45485 14.3831C9.45485 13.8526 9.84968 13.359 10.3679 13.248H10.3556ZM14.5259 14.3708C14.5259 13.6428 13.7733 13.0506 13.0823 13.248C12.6752 13.3467 12.3174 13.6922 12.231 14.124C12.0459 14.7533 12.5271 15.4812 13.181 15.5676C13.872 15.7033 14.5753 15.0864 14.5383 14.3831L14.5259 14.3708ZM7.83852 13.6922C8.31972 13.6058 8.77624 14.1487 8.57882 14.6175C8.43076 15.1111 7.72747 15.2468 7.40668 14.8396C7.03652 14.4571 7.30797 13.7415 7.83852 13.6922ZM16.7345 14.3831C16.7715 13.9143 16.241 13.5318 15.8091 13.7168C15.2909 13.8896 15.2045 14.6792 15.6734 14.9507C16.0929 15.2591 16.7468 14.9013 16.7345 14.3708V14.3831ZM18.0424 15.9748C17.8696 15.654 18.1781 15.2345 18.5236 15.2962C18.684 15.2962 18.8074 15.4195 18.9061 15.5306V15.5553L18.9307 15.5923C18.9554 15.7774 18.9801 15.9748 18.832 16.1228C18.6223 16.3943 18.1534 16.3202 18.03 15.9994L18.0424 15.9748ZM5.98776 15.8761C6.06179 15.4936 5.59293 15.1604 5.27213 15.3825C4.96367 15.5429 4.95133 16.0365 5.24746 16.2215C5.53124 16.4189 5.95074 16.2215 5.98776 15.8761ZM11.7004 16.0981C12.1323 15.9131 12.6752 16.2832 12.6258 16.7521C12.6628 17.2703 11.9842 17.6404 11.5647 17.3197C11.0959 17.0482 11.1822 16.2585 11.6881 16.0858L11.7004 16.0981ZM9.54122 17.3567C9.57823 16.9495 9.0847 16.6164 8.72688 16.8014C8.46778 16.9001 8.36907 17.1839 8.35673 17.443C8.4431 17.6775 8.62818 17.9242 8.89962 17.9366C9.23276 17.9859 9.55356 17.7021 9.54122 17.3567ZM14.7604 16.8138C15.1305 16.5793 15.6611 16.9125 15.6241 17.3567C15.6241 17.8132 15.0318 18.1093 14.6863 17.8132C14.3532 17.5788 14.3902 17.0112 14.7604 16.8261V16.8138ZM16.1052 18.8126C15.8338 18.8743 15.6364 19.1704 15.8091 19.4295C15.9819 19.7256 16.4754 19.6146 16.5124 19.2691C16.5618 19.01 16.3273 18.8496 16.1176 18.8003L16.1052 18.8126ZM7.46837 19.2074C7.53006 19.01 7.69046 18.8003 7.92489 18.862C8.27036 18.8866 8.36907 19.4048 8.07295 19.5652C7.8015 19.7503 7.49304 19.5035 7.46837 19.2074ZM12.194 19.1581C11.9472 18.9977 11.5647 19.1457 11.4907 19.4419C11.3673 19.738 11.6634 20.1081 11.9719 20.0711C12.1446 20.0711 12.2803 19.9477 12.3791 19.8243C12.4037 19.738 12.4161 19.6639 12.4407 19.5776C12.4037 19.4172 12.3544 19.2321 12.1816 19.1581H12.194Z" fill="white"/>
</svg>
