<svg width="24" height="24" viewBox="0 0 24 24" fill="none" xmlns="http://www.w3.org/2000/svg">
<path d="M16.4107 5.4306L13.3534 9.96719C13.1448 10.2806 13.5522 10.6465 13.8448 10.3904L16.5107 7.77694C16.5887 7.70987 16.7034 7.75621 16.7034 7.87085V16.0514C16.7034 16.1611 16.557 16.2075 16.4948 16.1294L7.73507 5.23669C7.59201 5.06071 7.4109 4.91945 7.20537 4.82355C6.99985 4.72765 6.77525 4.67961 6.54848 4.68303C5.60823 4.68303 4.68262 5.15864 4.68262 6.24645V17.7489C4.68409 18.0881 4.7959 18.4176 5.00116 18.6876C5.20643 18.9576 5.49399 19.1535 5.82041 19.2456C6.14683 19.3377 6.49437 19.3212 6.81052 19.1983C7.12668 19.0755 7.39427 18.8531 7.57287 18.5648L10.6253 14.0282C10.8339 13.7148 10.4314 13.3489 10.1387 13.605L7.48872 16.2709C7.41067 16.3379 7.29604 16.2916 7.29604 16.1757V8.01719C7.29604 7.90255 7.44238 7.86109 7.50458 7.93914L16.2485 18.7636C16.5412 19.1245 16.9802 19.3172 17.4351 19.3172C18.3814 19.3172 19.3168 18.8465 19.3168 17.755V6.25133C19.3162 5.90973 19.2042 5.57765 18.9976 5.30557C18.791 5.0335 18.5013 4.83631 18.1724 4.74397C17.8435 4.65164 17.4935 4.66922 17.1755 4.79403C16.8575 4.91885 16.589 5.14407 16.4107 5.43547V5.4306Z" fill="white"/>
</svg>
