<svg width="24" height="24" viewBox="0 0 24 24" fill="none" xmlns="http://www.w3.org/2000/svg">
<path d="M6.17032 8.31401C9.39077 5.16266 14.6101 5.16266 17.8298 8.31401L18.2172 8.69323C18.2555 8.73027 18.2859 8.77463 18.3067 8.82367C18.3274 8.8727 18.3381 8.92541 18.3381 8.97867C18.3381 9.03192 18.3274 9.08464 18.3067 9.13367C18.2859 9.18271 18.2555 9.22706 18.2172 9.26411L16.892 10.5613C16.8729 10.5805 16.8502 10.5957 16.8252 10.6061C16.8002 10.6164 16.7734 10.6218 16.7464 10.6218C16.7193 10.6218 16.6926 10.6164 16.6676 10.6061C16.6426 10.5957 16.6199 10.5805 16.6008 10.5613L16.0669 10.0398C13.8213 7.84102 10.1796 7.84102 7.93396 10.0398L7.36308 10.5992C7.32395 10.6371 7.27158 10.6583 7.21707 10.6583C7.16256 10.6583 7.1102 10.6371 7.07106 10.5992L5.74587 9.30113C5.70742 9.26427 5.67683 9.22002 5.65593 9.17104C5.63504 9.12206 5.62426 9.06935 5.62426 9.0161C5.62426 8.96284 5.63504 8.91014 5.65593 8.86116C5.67683 8.81217 5.70742 8.76792 5.74587 8.73107L6.17032 8.31401ZM20.5706 10.9981L21.7502 12.1531C21.7885 12.1901 21.8189 12.2345 21.8397 12.2835C21.8605 12.3325 21.8712 12.3852 21.8712 12.4385C21.8712 12.4917 21.8605 12.5445 21.8397 12.5935C21.8189 12.6425 21.7885 12.6869 21.7502 12.7239L16.4313 17.9318C16.3531 18.0074 16.2486 18.0497 16.1397 18.0497C16.0309 18.0497 15.9264 18.0074 15.8481 17.9318L12.0741 14.2359C12.0546 14.2165 12.0283 14.2056 12.0009 14.2056C11.9734 14.2056 11.9471 14.2165 11.9276 14.2359L8.15277 17.9318C8.07454 18.0074 7.96998 18.0497 7.86116 18.0497C7.75234 18.0497 7.64778 18.0074 7.56955 17.9318L2.24985 12.7239C2.21159 12.6869 2.18116 12.6425 2.16039 12.5935C2.13961 12.5445 2.12891 12.4917 2.12891 12.4385C2.12891 12.3852 2.13961 12.3325 2.16039 12.2835C2.18116 12.2345 2.21159 12.1901 2.24985 12.1531L3.42944 10.9981C3.50768 10.9225 3.61224 10.8802 3.72105 10.8802C3.82987 10.8802 3.93443 10.9225 4.01266 10.9981L7.78754 14.694C7.82867 14.7335 7.89365 14.7335 7.93396 14.694L11.7088 10.9981C11.7871 10.9225 11.8805 10.8219 11.9893 10.8219C12.0981 10.8219 12.2138 10.9225 12.2921 10.9981L16.0669 14.694C16.1081 14.7335 16.1722 14.7335 16.2134 14.694L19.9882 10.9981C20.0661 10.9222 20.1706 10.8796 20.2794 10.8796C20.3882 10.8796 20.4927 10.9222 20.5706 10.9981Z" fill="white"/>
</svg>
