<svg width="25" height="24" viewBox="0 0 25 24" fill="none" xmlns="http://www.w3.org/2000/svg">
<path fill-rule="evenodd" clip-rule="evenodd" d="M12.1821 2.75138C12.0923 2.66801 12.0467 2.66671 12.0388 2.66671C12.0323 2.66671 11.9867 2.66801 11.8968 2.75008C11.8057 2.83345 11.6975 2.97805 11.5803 3.20081C11.3458 3.64633 11.123 4.31852 10.9289 5.18612C10.7127 6.16313 10.5407 7.3551 10.4339 8.69036C10.9567 8.94308 11.4917 9.21751 12.0388 9.51366C12.586 9.21838 13.1218 8.94395 13.6464 8.69036C13.5601 7.51235 13.3939 6.34157 13.1487 5.18612C12.9559 4.31852 12.7319 3.64633 12.4974 3.20081C12.4176 3.03439 12.3111 2.88344 12.1821 2.75138ZM11.5829 9.76247C11.1911 9.55449 10.7959 9.35298 10.3975 9.15802C10.3688 9.58791 10.3462 10.0304 10.3297 10.4855C10.7432 10.2379 11.1618 9.99684 11.5829 9.76247ZM10.0106 8.48844C10.3232 4.82787 11.1139 2.229 12.0375 2.229C12.9611 2.229 13.7532 4.82657 14.0658 8.48844C17.3955 6.92912 20.0426 6.31294 20.5037 7.1141C20.9662 7.91395 19.1099 9.89665 16.0941 11.9992C19.1099 14.1017 20.9662 16.0844 20.5037 16.8843C20.0426 17.6841 17.3955 17.0693 14.0658 15.51C13.7532 19.1705 12.9625 21.7694 12.0375 21.7694C11.1126 21.7694 10.3232 19.1718 10.0106 15.51C6.67957 17.0693 4.0338 17.6854 3.57134 16.8843C3.10889 16.0844 4.96522 14.1017 7.98226 11.9992C4.96522 9.89665 3.11019 7.91395 3.57134 7.1141C4.0325 6.31425 6.67957 6.92912 10.0106 8.48844ZM8.36786 11.7361C7.39021 11.0728 6.4588 10.3437 5.58009 9.55404C4.92354 8.9535 4.45327 8.42331 4.18491 7.99732C4.08048 7.84485 4.00171 7.67631 3.95173 7.49839C3.92568 7.38115 3.94652 7.34077 3.95173 7.33425C3.95433 7.32774 3.97778 7.28866 4.09503 7.25218C4.21227 7.21571 4.39204 7.19356 4.64346 7.20399C5.1463 7.22353 5.84194 7.36682 6.68869 7.63387C7.64356 7.93349 8.76387 8.38162 9.97408 8.95611C9.93072 9.55547 9.90075 10.1557 9.88419 10.7564C9.35443 11.083 8.84898 11.4095 8.36786 11.7361ZM8.36786 12.2649C7.39021 12.9282 6.4588 13.6573 5.58009 14.447C4.92354 15.0475 4.45327 15.5777 4.18491 16.0037C4.08048 16.1561 4.00171 16.3247 3.95173 16.5026C3.92568 16.6198 3.94652 16.6602 3.95173 16.6667C3.95433 16.6733 3.97778 16.7123 4.09503 16.7488C4.27398 16.7947 4.45924 16.811 4.64346 16.797C5.1463 16.7775 5.84194 16.6342 6.68869 16.3671C7.81254 16.0014 8.9102 15.5596 9.97408 15.0449C9.93072 14.4455 9.90075 13.8453 9.88419 13.2446C9.35443 12.918 8.84898 12.5915 8.36786 12.2649ZM9.87247 12.7235C9.48687 12.4829 9.11473 12.2419 8.75606 12.0005C9.11473 11.7599 9.48687 11.5189 9.87247 11.2775C9.8646 11.7595 9.8646 12.2415 9.87247 12.7235ZM10.3154 12.9958C10.3005 12.3323 10.3005 11.6687 10.3154 11.0052C10.8823 10.6606 11.457 10.3288 12.0388 10.01C12.6212 10.3288 13.1962 10.6606 13.7636 11.0052C13.7785 11.6687 13.7785 12.3323 13.7636 12.9958C13.1962 13.3404 12.6212 13.6722 12.0388 13.991C11.457 13.6722 10.8823 13.3404 10.3154 12.9958ZM10.3297 13.5142C10.3462 13.9693 10.3688 14.4118 10.3975 14.8417C10.7857 14.6515 11.1808 14.45 11.5829 14.2372C11.1614 14.0029 10.7436 13.7618 10.3297 13.5142ZM12.0388 14.4873C11.4917 14.7826 10.9563 15.057 10.4326 15.3106C10.5407 16.6459 10.7127 17.8379 10.9289 18.8149C11.123 19.6825 11.3458 20.3547 11.5803 20.8002C11.6975 21.0216 11.8057 21.1675 11.8968 21.2509C11.9854 21.333 12.0323 21.3343 12.0401 21.3343C12.0467 21.3343 12.0923 21.333 12.1808 21.2509C12.272 21.1675 12.3815 21.0229 12.4987 20.8002C12.7332 20.3547 12.9559 19.6825 13.15 18.8149C13.3663 17.8379 13.5369 16.6459 13.6451 15.3106C13.1036 15.0482 12.568 14.7737 12.0388 14.4873ZM14.1049 15.0449C15.3164 15.6194 16.4341 16.0675 17.3877 16.3671C18.2371 16.6342 18.9327 16.7775 19.4355 16.797C19.6869 16.8074 19.8654 16.7853 19.984 16.7488C20.0999 16.7123 20.1234 16.6733 20.1273 16.6667C20.1312 16.6602 20.1533 16.6198 20.1273 16.5026C20.0769 16.3246 19.9977 16.1561 19.8928 16.0037C19.6257 15.5777 19.1541 15.0475 18.4989 14.447C17.6202 13.6573 16.6888 12.9282 15.7111 12.2649C15.2291 12.5915 14.7237 12.918 14.1948 13.2446C14.1778 13.8457 14.1474 14.4464 14.1036 15.0462M15.7098 11.7374C16.6875 11.0741 17.6189 10.345 18.4976 9.55534C19.1528 8.9548 19.6244 8.42461 19.8915 7.99863C20.027 7.78629 20.0986 7.62085 20.126 7.4997C20.152 7.38245 20.1299 7.34207 20.126 7.33556C20.122 7.32904 20.0986 7.28996 19.9827 7.25349C19.8033 7.20747 19.6176 7.19119 19.4329 7.20529C18.9314 7.22483 18.2358 7.36812 17.3877 7.63518C16.2643 8.00053 15.1671 8.44185 14.1036 8.95611C14.1453 9.53624 14.1753 10.1368 14.1935 10.7577C14.7233 11.0843 15.2283 11.4108 15.7085 11.7374M14.2039 11.2788C14.5886 11.5194 14.9603 11.7604 15.319 12.0018C14.9612 12.2424 14.5895 12.4834 14.2039 12.7248C14.2116 12.2428 14.2116 11.7608 14.2039 11.2788ZM13.7467 10.4881C13.731 10.033 13.708 9.59052 13.6776 9.16063C13.2903 9.35082 12.8956 9.55231 12.4935 9.76508C12.915 9.99943 13.3328 10.2405 13.7467 10.4881ZM13.6776 14.843C13.2903 14.6528 12.8956 14.4513 12.4935 14.2385C12.915 14.0042 13.3328 13.7631 13.7467 13.5155C13.731 13.9706 13.708 14.4131 13.6776 14.843Z" fill="white"/>
<path d="M14.1049 15.0449C15.3164 15.6194 16.4341 16.0675 17.3877 16.3671C18.2371 16.6342 18.9327 16.7775 19.4355 16.797C19.6869 16.8074 19.8654 16.7853 19.984 16.7488C20.0999 16.7123 20.1234 16.6733 20.1273 16.6667C20.1312 16.6602 20.1533 16.6198 20.1273 16.5026C20.0769 16.3246 19.9977 16.1561 19.8928 16.0037C19.6257 15.5777 19.1541 15.0475 18.4989 14.447C17.6202 13.6573 16.6888 12.9282 15.7111 12.2649C15.2291 12.5915 14.7237 12.918 14.1948 13.2446C14.1778 13.8457 14.1474 14.4464 14.1036 15.0462M15.7098 11.7374C16.6875 11.0741 17.6189 10.345 18.4976 9.55534C19.1528 8.9548 19.6244 8.42461 19.8915 7.99863C20.027 7.78629 20.0986 7.62085 20.126 7.4997C20.152 7.38245 20.1299 7.34207 20.126 7.33556C20.122 7.32904 20.0986 7.28996 19.9827 7.25349C19.8033 7.20747 19.6176 7.19119 19.4329 7.20529C18.9314 7.22483 18.2357 7.36812 17.3877 7.63518C16.2643 8.00053 15.1671 8.44185 14.1036 8.95611C14.1453 9.53624 14.1753 10.1368 14.1935 10.7577C14.7233 11.0843 15.2283 11.4108 15.7085 11.7374M12.1821 2.75138C12.0923 2.66801 12.0467 2.66671 12.0388 2.66671C12.0323 2.66671 11.9867 2.66801 11.8968 2.75008C11.8057 2.83345 11.6975 2.97805 11.5803 3.20081C11.3458 3.64633 11.123 4.31852 10.9289 5.18612C10.7127 6.16313 10.5407 7.3551 10.4339 8.69036C10.9567 8.94308 11.4917 9.21751 12.0388 9.51366C12.586 9.21838 13.1218 8.94395 13.6464 8.69036C13.5601 7.51235 13.3939 6.34157 13.1487 5.18612C12.9559 4.31852 12.7319 3.64633 12.4974 3.20081C12.4176 3.03439 12.3111 2.88344 12.1821 2.75138ZM11.5829 9.76247C11.1911 9.55449 10.7959 9.35298 10.3975 9.15802C10.3688 9.58791 10.3462 10.0304 10.3297 10.4855C10.7432 10.2379 11.1618 9.99684 11.5829 9.76247ZM10.0106 8.48844C10.3232 4.82787 11.1139 2.229 12.0375 2.229C12.9611 2.229 13.7532 4.82657 14.0658 8.48844C17.3955 6.92912 20.0426 6.31294 20.5037 7.1141C20.9662 7.91395 19.1099 9.89665 16.0941 11.9992C19.1099 14.1017 20.9662 16.0844 20.5037 16.8843C20.0426 17.6841 17.3955 17.0693 14.0658 15.51C13.7532 19.1705 12.9625 21.7694 12.0375 21.7694C11.1126 21.7694 10.3232 19.1718 10.0106 15.51C6.67957 17.0693 4.0338 17.6854 3.57134 16.8843C3.10889 16.0844 4.96522 14.1017 7.98226 11.9992C4.96522 9.89665 3.11019 7.91395 3.57134 7.1141C4.0325 6.31425 6.67957 6.92912 10.0106 8.48844ZM8.36786 11.7361C7.39021 11.0728 6.4588 10.3437 5.58009 9.55404C4.92354 8.9535 4.45327 8.42331 4.18491 7.99732C4.08048 7.84485 4.00171 7.67631 3.95173 7.49839C3.92568 7.38115 3.94652 7.34077 3.95173 7.33425C3.95433 7.32774 3.97778 7.28866 4.09503 7.25218C4.21227 7.21571 4.39204 7.19356 4.64346 7.20399C5.1463 7.22353 5.84194 7.36682 6.68869 7.63387C7.64356 7.93349 8.76387 8.38162 9.97408 8.95611C9.93072 9.55547 9.90075 10.1557 9.88419 10.7564C9.35443 11.083 8.84898 11.4095 8.36786 11.7361ZM8.36786 12.2649C7.39021 12.9282 6.4588 13.6573 5.58009 14.447C4.92354 15.0475 4.45327 15.5777 4.18491 16.0037C4.08048 16.1561 4.00171 16.3247 3.95173 16.5026C3.92568 16.6198 3.94652 16.6602 3.95173 16.6667C3.95433 16.6733 3.97778 16.7123 4.09503 16.7488C4.27398 16.7947 4.45924 16.811 4.64346 16.797C5.1463 16.7775 5.84194 16.6342 6.68869 16.3671C7.81254 16.0014 8.9102 15.5596 9.97408 15.0449C9.93072 14.4455 9.90075 13.8453 9.88419 13.2446C9.35443 12.918 8.84898 12.5915 8.36786 12.2649ZM9.87247 12.7235C9.48687 12.4829 9.11473 12.2419 8.75606 12.0005C9.11473 11.7599 9.48687 11.5189 9.87247 11.2775C9.8646 11.7595 9.8646 12.2415 9.87247 12.7235ZM10.3154 12.9958C10.3005 12.3323 10.3005 11.6687 10.3154 11.0052C10.8823 10.6606 11.457 10.3288 12.0388 10.01C12.6212 10.3288 13.1962 10.6606 13.7636 11.0052C13.7785 11.6687 13.7785 12.3323 13.7636 12.9958C13.1962 13.3404 12.6212 13.6722 12.0388 13.991C11.457 13.6722 10.8823 13.3404 10.3154 12.9958ZM10.3297 13.5142C10.3462 13.9693 10.3688 14.4118 10.3975 14.8417C10.7857 14.6515 11.1808 14.45 11.5829 14.2372C11.1614 14.0029 10.7436 13.7618 10.3297 13.5142ZM12.0388 14.4873C11.4917 14.7826 10.9563 15.057 10.4326 15.3106C10.5407 16.6459 10.7127 17.8379 10.9289 18.8149C11.123 19.6825 11.3458 20.3547 11.5803 20.8002C11.6975 21.0216 11.8057 21.1675 11.8968 21.2509C11.9854 21.333 12.0323 21.3343 12.0401 21.3343C12.0467 21.3343 12.0923 21.333 12.1808 21.2509C12.272 21.1675 12.3815 21.0229 12.4987 20.8002C12.7332 20.3547 12.9559 19.6825 13.15 18.8149C13.3663 17.8379 13.5369 16.6459 13.6451 15.3106C13.1036 15.0482 12.568 14.7737 12.0388 14.4873ZM14.2039 11.2788C14.5886 11.5194 14.9603 11.7604 15.319 12.0018C14.9612 12.2424 14.5895 12.4834 14.2039 12.7248C14.2116 12.2428 14.2116 11.7608 14.2039 11.2788ZM13.7467 10.4881C13.731 10.033 13.708 9.59052 13.6776 9.16063C13.2903 9.35082 12.8956 9.55231 12.4935 9.76508C12.915 9.99943 13.3328 10.2405 13.7467 10.4881ZM13.6776 14.843C13.2903 14.6528 12.8956 14.4513 12.4935 14.2385C12.915 14.0042 13.3328 13.7631 13.7467 13.5155C13.731 13.9706 13.708 14.4131 13.6776 14.843Z" stroke="white" stroke-width="0.2"/>
<path d="M12.4726 10.8503C12.3223 10.7881 12.1612 10.756 11.9985 10.756C11.67 10.756 11.3549 10.8866 11.1226 11.1189C10.8903 11.3512 10.7598 11.6663 10.7598 11.9948C10.7598 12.3234 10.8903 12.6384 11.1226 12.8708C11.3549 13.1031 11.67 13.2336 11.9985 13.2336C12.1612 13.2336 12.3223 13.2016 12.4726 13.1393C12.6229 13.077 12.7595 12.9858 12.8745 12.8708C12.9895 12.7557 13.0808 12.6192 13.143 12.4689C13.2053 12.3186 13.2373 12.1575 13.2373 11.9948C13.2373 11.8321 13.2053 11.6711 13.143 11.5208C13.0808 11.3705 12.9895 11.2339 12.8745 11.1189C12.7595 11.0038 12.6229 10.9126 12.4726 10.8503Z" fill="white"/>
<path d="M17.0733 6.78114C16.9637 6.73989 16.8469 6.72125 16.7299 6.72635C16.5067 6.73607 16.2958 6.83161 16.1412 6.99304C15.9867 7.15447 15.9004 7.36933 15.9004 7.59281C15.9004 7.8163 15.9867 8.03116 16.1412 8.19259C16.2958 8.35402 16.5067 8.44956 16.7299 8.45928C16.8469 8.46438 16.9637 8.44574 17.0733 8.40449C17.1828 8.36324 17.2829 8.30024 17.3675 8.21928C17.452 8.13832 17.5193 8.04108 17.5653 7.93341C17.6113 7.82574 17.635 7.70988 17.635 7.59281C17.635 7.47574 17.6113 7.35988 17.5653 7.25222C17.5193 7.14455 17.452 7.04731 17.3675 6.96635C17.2829 6.88539 17.1828 6.82239 17.0733 6.78114Z" fill="white"/>
<path d="M6.28223 9.40962C6.17267 9.36837 6.05589 9.34973 5.93893 9.35483C5.71565 9.36455 5.50475 9.46009 5.3502 9.62152C5.19565 9.78295 5.10938 9.99781 5.10938 10.2213C5.10938 10.4448 5.19565 10.6596 5.3502 10.8211C5.50475 10.9825 5.71565 11.078 5.93893 11.0878C6.05589 11.0929 6.17267 11.0742 6.28223 11.033C6.3918 10.9917 6.49188 10.9287 6.57644 10.8478C6.661 10.7668 6.7283 10.6696 6.77428 10.5619C6.82025 10.4542 6.84395 10.3384 6.84395 10.2213C6.84395 10.1042 6.82025 9.98836 6.77428 9.8807C6.7283 9.77303 6.661 9.67579 6.57644 9.59483C6.49188 9.51387 6.3918 9.45087 6.28223 9.40962Z" fill="white"/>
<path fill-rule="evenodd" clip-rule="evenodd" d="M10.5131 17.5473C10.6301 17.5422 10.7469 17.5609 10.8565 17.6021C10.966 17.6434 11.0661 17.7064 11.1507 17.7873C11.2352 17.8683 11.3025 17.9655 11.3485 18.0732C11.3945 18.1809 11.4182 18.2967 11.4182 18.4138C11.4182 18.5309 11.3945 18.6467 11.3485 18.7544C11.3025 18.8621 11.2352 18.9593 11.1507 19.0403C11.0661 19.1212 10.966 19.1842 10.8565 19.2255C10.7469 19.2667 10.6301 19.2854 10.5131 19.2803C10.2899 19.2705 10.079 19.175 9.92442 19.0136C9.76987 18.8521 9.68359 18.6373 9.68359 18.4138C9.68359 18.1903 9.76987 17.9755 9.92442 17.814C10.079 17.6526 10.2899 17.5571 10.5131 17.5473Z" fill="white"/>
</svg>
