<svg width="25" height="24" viewBox="0 0 25 24" fill="none" xmlns="http://www.w3.org/2000/svg">
<path d="M10.3535 15.7124H9.6035L9.6035 15.7149L10.3535 15.7124ZM10.8595 7.77823L10.849 7.02831L10.8482 7.02832L10.8595 7.77823ZM10.8595 16.2218L10.8704 15.4719L10.8669 15.4719L10.8595 16.2218ZM8.66699 7.0333C8.25278 7.0333 7.91699 7.36909 7.91699 7.7833C7.91699 8.19752 8.25278 8.5333 8.66699 8.5333V7.0333ZM8.66699 15.4736C8.25278 15.4736 7.91699 15.8094 7.91699 16.2236C7.91699 16.6378 8.25278 16.9736 8.66699 16.9736V15.4736ZM11.1035 15.7124V8.28761H9.6035V15.7124H11.1035ZM11.1035 8.28761C11.1035 8.4256 10.9932 8.5263 10.8708 8.52815L10.8482 7.02832C10.1658 7.03859 9.6035 7.59133 9.6035 8.28761H11.1035ZM10.8701 8.52816C11.9649 8.51277 13.0015 8.51735 13.7817 8.93377C14.1437 9.127 14.4546 9.41408 14.6836 9.86762C14.9184 10.3325 15.0853 11.0092 15.0853 12H16.5853C16.5853 10.8496 16.3926 9.92425 16.0226 9.19145C15.6468 8.44731 15.1074 7.94106 14.488 7.61046C13.3053 6.97924 11.854 7.01418 10.849 7.02831L10.8701 8.52816ZM15.0853 12C15.0853 12.9909 14.9184 13.6676 14.6836 14.1326C14.4545 14.5862 14.1437 14.8734 13.7817 15.0666C13.0015 15.4831 11.9649 15.4877 10.8704 15.4719L10.8487 16.9717C11.854 16.9863 13.3053 17.0213 14.4881 16.3899C15.1075 16.0592 15.6468 15.5529 16.0226 14.8087C16.3926 14.0759 16.5853 13.1504 16.5853 12H15.0853ZM10.8669 15.4719C10.9298 15.4725 10.9898 15.4978 11.0341 15.5424L9.9699 16.5995C10.2036 16.8348 10.5205 16.9685 10.8521 16.9718L10.8669 15.4719ZM11.0341 15.5424C11.0784 15.587 11.1033 15.6472 11.1035 15.71L9.6035 15.7149C9.60458 16.0465 9.73621 16.3643 9.9699 16.5995L11.0341 15.5424ZM8.66699 8.5333C8.66867 8.5333 8.67034 8.5333 8.67201 8.5333C8.67368 8.5333 8.67535 8.5333 8.67702 8.5333C8.67869 8.5333 8.68036 8.5333 8.68203 8.5333C8.68369 8.5333 8.68536 8.5333 8.68702 8.5333C8.68868 8.5333 8.69035 8.5333 8.69201 8.5333C8.69367 8.5333 8.69533 8.5333 8.69698 8.5333C8.69864 8.5333 8.7003 8.5333 8.70195 8.5333C8.70361 8.5333 8.70526 8.5333 8.70691 8.5333C8.70857 8.5333 8.71022 8.5333 8.71187 8.5333C8.71352 8.5333 8.71516 8.5333 8.71681 8.5333C8.71846 8.5333 8.7201 8.5333 8.72175 8.5333C8.72339 8.5333 8.72503 8.5333 8.72667 8.5333C8.72831 8.5333 8.72995 8.5333 8.73159 8.5333C8.73323 8.5333 8.73487 8.5333 8.7365 8.5333C8.73814 8.5333 8.73977 8.5333 8.74141 8.5333C8.74304 8.5333 8.74467 8.5333 8.7463 8.5333C8.74793 8.5333 8.74956 8.5333 8.75119 8.5333C8.75282 8.5333 8.75444 8.5333 8.75607 8.5333C8.75769 8.5333 8.75932 8.5333 8.76094 8.5333C8.76256 8.5333 8.76418 8.5333 8.7658 8.5333C8.76742 8.5333 8.76904 8.5333 8.77065 8.5333C8.77227 8.5333 8.77389 8.5333 8.7755 8.5333C8.77712 8.5333 8.77873 8.5333 8.78034 8.5333C8.78195 8.5333 8.78356 8.5333 8.78517 8.5333C8.78678 8.5333 8.78839 8.5333 8.78999 8.5333C8.7916 8.5333 8.79321 8.5333 8.79481 8.5333C8.79641 8.5333 8.79802 8.5333 8.79962 8.5333C8.80122 8.5333 8.80282 8.5333 8.80442 8.5333C8.80602 8.5333 8.80761 8.5333 8.80921 8.5333C8.81081 8.5333 8.8124 8.5333 8.81399 8.5333C8.81559 8.5333 8.81718 8.5333 8.81877 8.5333C8.82036 8.5333 8.82195 8.5333 8.82354 8.5333C8.82513 8.5333 8.82672 8.5333 8.8283 8.5333C8.82989 8.5333 8.83147 8.5333 8.83306 8.5333C8.83464 8.5333 8.83622 8.5333 8.8378 8.5333C8.83939 8.5333 8.84097 8.5333 8.84254 8.5333C8.84412 8.5333 8.8457 8.5333 8.84728 8.5333C8.84885 8.5333 8.85043 8.5333 8.852 8.5333C8.85357 8.5333 8.85515 8.5333 8.85672 8.5333C8.85829 8.5333 8.85986 8.5333 8.86143 8.5333C8.863 8.5333 8.86456 8.5333 8.86613 8.5333C8.8677 8.5333 8.86926 8.5333 8.87083 8.5333C8.87239 8.5333 8.87395 8.5333 8.87552 8.5333C8.87708 8.5333 8.87864 8.5333 8.8802 8.5333C8.88176 8.5333 8.88331 8.5333 8.88487 8.5333C8.88643 8.5333 8.88798 8.5333 8.88954 8.5333C8.89109 8.5333 8.89265 8.5333 8.8942 8.5333C8.89575 8.5333 8.8973 8.5333 8.89885 8.5333C8.9004 8.5333 8.90195 8.5333 8.9035 8.5333C8.90504 8.5333 8.90659 8.5333 8.90813 8.5333C8.90968 8.5333 8.91122 8.5333 8.91277 8.5333C8.91431 8.5333 8.91585 8.5333 8.91739 8.5333C8.91893 8.5333 8.92047 8.5333 8.92201 8.5333C8.92355 8.5333 8.92508 8.5333 8.92662 8.5333C8.92816 8.5333 8.92969 8.5333 8.93123 8.5333C8.93276 8.5333 8.93429 8.5333 8.93582 8.5333C8.93735 8.5333 8.93888 8.5333 8.94041 8.5333C8.94194 8.5333 8.94347 8.5333 8.945 8.5333C8.94653 8.5333 8.94805 8.5333 8.94958 8.5333C8.9511 8.5333 8.95262 8.5333 8.95415 8.5333C8.95567 8.5333 8.95719 8.5333 8.95871 8.5333C8.96023 8.5333 8.96175 8.5333 8.96327 8.5333C8.96479 8.5333 8.9663 8.5333 8.96782 8.5333C8.96934 8.5333 8.97085 8.5333 8.97236 8.5333C8.97388 8.5333 8.97539 8.5333 8.9769 8.5333C8.97841 8.5333 8.97993 8.5333 8.98144 8.5333C8.98294 8.5333 8.98445 8.5333 8.98596 8.5333C8.98747 8.5333 8.98897 8.5333 8.99048 8.5333C8.99198 8.5333 8.99349 8.5333 8.99499 8.5333C8.9965 8.5333 8.998 8.5333 8.9995 8.5333C9.001 8.5333 9.0025 8.5333 9.004 8.5333C9.0055 8.5333 9.007 8.5333 9.00849 8.5333C9.00999 8.5333 9.01149 8.5333 9.01298 8.5333C9.01448 8.5333 9.01597 8.5333 9.01746 8.5333C9.01896 8.5333 9.02045 8.5333 9.02194 8.5333C9.02343 8.5333 9.02492 8.5333 9.02641 8.5333C9.0279 8.5333 9.02938 8.5333 9.03087 8.5333C9.03236 8.5333 9.03384 8.5333 9.03533 8.5333C9.03681 8.5333 9.0383 8.5333 9.03978 8.5333C9.04126 8.5333 9.04274 8.5333 9.04422 8.5333C9.04571 8.5333 9.04718 8.5333 9.04866 8.5333C9.05014 8.5333 9.05162 8.5333 9.0531 8.5333C9.05457 8.5333 9.05605 8.5333 9.05752 8.5333C9.059 8.5333 9.06047 8.5333 9.06195 8.5333C9.06342 8.5333 9.06489 8.5333 9.06636 8.5333C9.06783 8.5333 9.0693 8.5333 9.07077 8.5333C9.07224 8.5333 9.07371 8.5333 9.07518 8.5333C9.07664 8.5333 9.07811 8.5333 9.07958 8.5333C9.08104 8.5333 9.08251 8.5333 9.08397 8.5333C9.08543 8.5333 9.0869 8.5333 9.08836 8.5333C9.08982 8.5333 9.09128 8.5333 9.09274 8.5333C9.0942 8.5333 9.09566 8.5333 9.09712 8.5333C9.09857 8.5333 9.10003 8.5333 9.10149 8.5333C9.10294 8.5333 9.1044 8.5333 9.10585 8.5333C9.10731 8.5333 9.10876 8.5333 9.11021 8.5333C9.11166 8.5333 9.11312 8.5333 9.11457 8.5333C9.11602 8.5333 9.11747 8.5333 9.11892 8.5333C9.12036 8.5333 9.12181 8.5333 9.12326 8.5333C9.12471 8.5333 9.12615 8.5333 9.1276 8.5333C9.12904 8.5333 9.13049 8.5333 9.13193 8.5333C9.13337 8.5333 9.13482 8.5333 9.13626 8.5333C9.1377 8.5333 9.13914 8.5333 9.14058 8.5333C9.14202 8.5333 9.14346 8.5333 9.1449 8.5333C9.14634 8.5333 9.14777 8.5333 9.14921 8.5333C9.15065 8.5333 9.15208 8.5333 9.15352 8.5333C9.15495 8.5333 9.15639 8.5333 9.15782 8.5333C9.15925 8.5333 9.16069 8.5333 9.16212 8.5333C9.16355 8.5333 9.16498 8.5333 9.16641 8.5333C9.16784 8.5333 9.16927 8.5333 9.1707 8.5333C9.17212 8.5333 9.17355 8.5333 9.17498 8.5333C9.17641 8.5333 9.17783 8.5333 9.17926 8.5333C9.18068 8.5333 9.1821 8.5333 9.18353 8.5333C9.18495 8.5333 9.18637 8.5333 9.1878 8.5333C9.18922 8.5333 9.19064 8.5333 9.19206 8.5333C9.19348 8.5333 9.1949 8.5333 9.19632 8.5333C9.19773 8.5333 9.19915 8.5333 9.20057 8.5333C9.20199 8.5333 9.2034 8.5333 9.20482 8.5333C9.20623 8.5333 9.20765 8.5333 9.20906 8.5333C9.21048 8.5333 9.21189 8.5333 9.2133 8.5333C9.21471 8.5333 9.21612 8.5333 9.21754 8.5333C9.21895 8.5333 9.22036 8.5333 9.22176 8.5333C9.22317 8.5333 9.22458 8.5333 9.22599 8.5333C9.2274 8.5333 9.2288 8.5333 9.23021 8.5333C9.23162 8.5333 9.23302 8.5333 9.23443 8.5333C9.23583 8.5333 9.23724 8.5333 9.23864 8.5333C9.24004 8.5333 9.24145 8.5333 9.24285 8.5333C9.24425 8.5333 9.24565 8.5333 9.24705 8.5333C9.24845 8.5333 9.24985 8.5333 9.25125 8.5333C9.25265 8.5333 9.25405 8.5333 9.25544 8.5333C9.25684 8.5333 9.25824 8.5333 9.25963 8.5333C9.26103 8.5333 9.26242 8.5333 9.26382 8.5333C9.26521 8.5333 9.26661 8.5333 9.268 8.5333C9.26939 8.5333 9.27079 8.5333 9.27218 8.5333C9.27357 8.5333 9.27496 8.5333 9.27635 8.5333C9.27774 8.5333 9.27913 8.5333 9.28052 8.5333C9.28191 8.5333 9.2833 8.5333 9.28469 8.5333C9.28607 8.5333 9.28746 8.5333 9.28885 8.5333C9.29023 8.5333 9.29162 8.5333 9.293 8.5333C9.29439 8.5333 9.29577 8.5333 9.29716 8.5333C9.29854 8.5333 9.29992 8.5333 9.30131 8.5333C9.30269 8.5333 9.30407 8.5333 9.30545 8.5333C9.30683 8.5333 9.30821 8.5333 9.30959 8.5333C9.31097 8.5333 9.31235 8.5333 9.31373 8.5333C9.31511 8.5333 9.31649 8.5333 9.31787 8.5333C9.31924 8.5333 9.32062 8.5333 9.322 8.5333C9.32337 8.5333 9.32475 8.5333 9.32612 8.5333C9.3275 8.5333 9.32887 8.5333 9.33024 8.5333C9.33162 8.5333 9.33299 8.5333 9.33436 8.5333C9.33574 8.5333 9.33711 8.5333 9.33848 8.5333C9.33985 8.5333 9.34122 8.5333 9.34259 8.5333C9.34396 8.5333 9.34533 8.5333 9.3467 8.5333C9.34807 8.5333 9.34944 8.5333 9.3508 8.5333C9.35217 8.5333 9.35354 8.5333 9.3549 8.5333C9.35627 8.5333 9.35764 8.5333 9.359 8.5333C9.36037 8.5333 9.36173 8.5333 9.3631 8.5333C9.36446 8.5333 9.36582 8.5333 9.36719 8.5333C9.36855 8.5333 9.36991 8.5333 9.37127 8.5333C9.37264 8.5333 9.374 8.5333 9.37536 8.5333C9.37672 8.5333 9.37808 8.5333 9.37944 8.5333C9.3808 8.5333 9.38216 8.5333 9.38352 8.5333C9.38488 8.5333 9.38623 8.5333 9.38759 8.5333C9.38895 8.5333 9.39031 8.5333 9.39166 8.5333C9.39302 8.5333 9.39437 8.5333 9.39573 8.5333C9.39709 8.5333 9.39844 8.5333 9.39979 8.5333C9.40115 8.5333 9.4025 8.5333 9.40386 8.5333C9.40521 8.5333 9.40656 8.5333 9.40791 8.5333C9.40927 8.5333 9.41062 8.5333 9.41197 8.5333C9.41332 8.5333 9.41467 8.5333 9.41602 8.5333C9.41737 8.5333 9.41872 8.5333 9.42007 8.5333C9.42142 8.5333 9.42277 8.5333 9.42412 8.5333C9.42547 8.5333 9.42682 8.5333 9.42816 8.5333C9.42951 8.5333 9.43086 8.5333 9.4322 8.5333C9.43355 8.5333 9.4349 8.5333 9.43624 8.5333C9.43759 8.5333 9.43893 8.5333 9.44028 8.5333C9.44162 8.5333 9.44297 8.5333 9.44431 8.5333C9.44565 8.5333 9.447 8.5333 9.44834 8.5333C9.44968 8.5333 9.45102 8.5333 9.45237 8.5333C9.45371 8.5333 9.45505 8.5333 9.45639 8.5333C9.45773 8.5333 9.45907 8.5333 9.46041 8.5333C9.46175 8.5333 9.46309 8.5333 9.46443 8.5333C9.46577 8.5333 9.46711 8.5333 9.46845 8.5333C9.46979 8.5333 9.47113 8.5333 9.47246 8.5333C9.4738 8.5333 9.47514 8.5333 9.47647 8.5333C9.47781 8.5333 9.47915 8.5333 9.48048 8.5333C9.48182 8.5333 9.48316 8.5333 9.48449 8.5333C9.48583 8.5333 9.48716 8.5333 9.4885 8.5333C9.48983 8.5333 9.49116 8.5333 9.4925 8.5333C9.49383 8.5333 9.49516 8.5333 9.4965 8.5333C9.49783 8.5333 9.49916 8.5333 9.50049 8.5333C9.50183 8.5333 9.50316 8.5333 9.50449 8.5333C9.50582 8.5333 9.50715 8.5333 9.50848 8.5333C9.50981 8.5333 9.51114 8.5333 9.51247 8.5333C9.5138 8.5333 9.51513 8.5333 9.51646 8.5333C9.51779 8.5333 9.51912 8.5333 9.52045 8.5333C9.52178 8.5333 9.5231 8.5333 9.52443 8.5333C9.52576 8.5333 9.52709 8.5333 9.52841 8.5333C9.52974 8.5333 9.53107 8.5333 9.5324 8.5333C9.53372 8.5333 9.53505 8.5333 9.53637 8.5333C9.5377 8.5333 9.53902 8.5333 9.54035 8.5333C9.54168 8.5333 9.543 8.5333 9.54432 8.5333C9.54565 8.5333 9.54697 8.5333 9.5483 8.5333C9.54962 8.5333 9.55094 8.5333 9.55227 8.5333C9.55359 8.5333 9.55491 8.5333 9.55624 8.5333C9.55756 8.5333 9.55888 8.5333 9.5602 8.5333C9.56153 8.5333 9.56285 8.5333 9.56417 8.5333C9.56549 8.5333 9.56681 8.5333 9.56813 8.5333C9.56945 8.5333 9.57077 8.5333 9.57209 8.5333C9.57341 8.5333 9.57473 8.5333 9.57605 8.5333C9.57737 8.5333 9.57869 8.5333 9.58001 8.5333C9.58133 8.5333 9.58265 8.5333 9.58397 8.5333C9.58529 8.5333 9.58661 8.5333 9.58793 8.5333C9.58924 8.5333 9.59056 8.5333 9.59188 8.5333C9.5932 8.5333 9.59452 8.5333 9.59583 8.5333C9.59715 8.5333 9.59847 8.5333 9.59978 8.5333C9.6011 8.5333 9.60242 8.5333 9.60373 8.5333C9.60505 8.5333 9.60637 8.5333 9.60768 8.5333C9.609 8.5333 9.61031 8.5333 9.61163 8.5333C9.61294 8.5333 9.61426 8.5333 9.61557 8.5333C9.61689 8.5333 9.6182 8.5333 9.61952 8.5333C9.62083 8.5333 9.62215 8.5333 9.62346 8.5333C9.62478 8.5333 9.62609 8.5333 9.6274 8.5333C9.62872 8.5333 9.63003 8.5333 9.63134 8.5333C9.63266 8.5333 9.63397 8.5333 9.63528 8.5333C9.6366 8.5333 9.63791 8.5333 9.63922 8.5333C9.64054 8.5333 9.64185 8.5333 9.64316 8.5333C9.64447 8.5333 9.64578 8.5333 9.6471 8.5333C9.64841 8.5333 9.64972 8.5333 9.65103 8.5333C9.65234 8.5333 9.65365 8.5333 9.65497 8.5333C9.65628 8.5333 9.65759 8.5333 9.6589 8.5333C9.66021 8.5333 9.66152 8.5333 9.66283 8.5333C9.66414 8.5333 9.66545 8.5333 9.66676 8.5333C9.66807 8.5333 9.66938 8.5333 9.67069 8.5333C9.672 8.5333 9.67331 8.5333 9.67462 8.5333C9.67593 8.5333 9.67724 8.5333 9.67855 8.5333C9.67986 8.5333 9.68117 8.5333 9.68248 8.5333C9.68379 8.5333 9.6851 8.5333 9.68641 8.5333C9.68772 8.5333 9.68903 8.5333 9.69034 8.5333C9.69165 8.5333 9.69295 8.5333 9.69426 8.5333C9.69557 8.5333 9.69688 8.5333 9.69819 8.5333C9.6995 8.5333 9.70081 8.5333 9.70211 8.5333C9.70342 8.5333 9.70473 8.5333 9.70604 8.5333C9.70735 8.5333 9.70866 8.5333 9.70996 8.5333C9.71127 8.5333 9.71258 8.5333 9.71389 8.5333C9.71519 8.5333 9.7165 8.5333 9.71781 8.5333C9.71912 8.5333 9.72043 8.5333 9.72173 8.5333C9.72304 8.5333 9.72435 8.5333 9.72566 8.5333C9.72696 8.5333 9.72827 8.5333 9.72958 8.5333C9.73089 8.5333 9.73219 8.5333 9.7335 8.5333C9.73481 8.5333 9.73611 8.5333 9.73742 8.5333C9.73873 8.5333 9.74004 8.5333 9.74134 8.5333C9.74265 8.5333 9.74396 8.5333 9.74526 8.5333C9.74657 8.5333 9.74788 8.5333 9.74918 8.5333C9.75049 8.5333 9.7518 8.5333 9.75311 8.5333C9.75441 8.5333 9.75572 8.5333 9.75703 8.5333C9.75833 8.5333 9.75964 8.5333 9.76095 8.5333C9.76225 8.5333 9.76356 8.5333 9.76487 8.5333C9.76617 8.5333 9.76748 8.5333 9.76879 8.5333C9.7701 8.5333 9.7714 8.5333 9.77271 8.5333C9.77402 8.5333 9.77532 8.5333 9.77663 8.5333C9.77794 8.5333 9.77924 8.5333 9.78055 8.5333C9.78186 8.5333 9.78317 8.5333 9.78447 8.5333C9.78578 8.5333 9.78709 8.5333 9.78839 8.5333C9.7897 8.5333 9.79101 8.5333 9.79231 8.5333C9.79362 8.5333 9.79493 8.5333 9.79624 8.5333C9.79754 8.5333 9.79885 8.5333 9.80016 8.5333C9.80147 8.5333 9.80277 8.5333 9.80408 8.5333C9.80539 8.5333 9.8067 8.5333 9.808 8.5333C9.80931 8.5333 9.81062 8.5333 9.81193 8.5333C9.81323 8.5333 9.81454 8.5333 9.81585 8.5333C9.81716 8.5333 9.81846 8.5333 9.81977 8.5333C9.82108 8.5333 9.82239 8.5333 9.8237 8.5333C9.82501 8.5333 9.82631 8.5333 9.82762 8.5333C9.82893 8.5333 9.83024 8.5333 9.83155 8.5333C9.83286 8.5333 9.83416 8.5333 9.83547 8.5333C9.83678 8.5333 9.83809 8.5333 9.8394 8.5333C9.84071 8.5333 9.84202 8.5333 9.84333 8.5333C9.84464 8.5333 9.84594 8.5333 9.84725 8.5333C9.84856 8.5333 9.84987 8.5333 9.85118 8.5333C9.85249 8.5333 9.8538 8.5333 9.85511 8.5333C9.85642 8.5333 9.85773 8.5333 9.85904 8.5333C9.86035 8.5333 9.86166 8.5333 9.86297 8.5333C9.86428 8.5333 9.86559 8.5333 9.8669 8.5333C9.86821 8.5333 9.86953 8.5333 9.87084 8.5333C9.87215 8.5333 9.87346 8.5333 9.87477 8.5333C9.87608 8.5333 9.87739 8.5333 9.8787 8.5333C9.88002 8.5333 9.88133 8.5333 9.88264 8.5333C9.88395 8.5333 9.88526 8.5333 9.88658 8.5333C9.88789 8.5333 9.8892 8.5333 9.89051 8.5333C9.89183 8.5333 9.89314 8.5333 9.89445 8.5333C9.89577 8.5333 9.89708 8.5333 9.89839 8.5333C9.89971 8.5333 9.90102 8.5333 9.90233 8.5333C9.90365 8.5333 9.90496 8.5333 9.90627 8.5333C9.90759 8.5333 9.9089 8.5333 9.91022 8.5333C9.91153 8.5333 9.91285 8.5333 9.91416 8.5333C9.91548 8.5333 9.91679 8.5333 9.91811 8.5333C9.91942 8.5333 9.92074 8.5333 9.92205 8.5333C9.92337 8.5333 9.92469 8.5333 9.926 8.5333C9.92732 8.5333 9.92864 8.5333 9.92995 8.5333C9.93127 8.5333 9.93259 8.5333 9.9339 8.5333C9.93522 8.5333 9.93654 8.5333 9.93786 8.5333C9.93917 8.5333 9.94049 8.5333 9.94181 8.5333C9.94313 8.5333 9.94445 8.5333 9.94577 8.5333C9.94708 8.5333 9.9484 8.5333 9.94972 8.5333C9.95104 8.5333 9.95236 8.5333 9.95368 8.5333C9.955 8.5333 9.95632 8.5333 9.95764 8.5333C9.95896 8.5333 9.96028 8.5333 9.9616 8.5333C9.96292 8.5333 9.96425 8.5333 9.96557 8.5333C9.96689 8.5333 9.96821 8.5333 9.96953 8.5333C9.97085 8.5333 9.97218 8.5333 9.9735 8.5333C9.97482 8.5333 9.97615 8.5333 9.97747 8.5333C9.97879 8.5333 9.98012 8.5333 9.98144 8.5333C9.98276 8.5333 9.98409 8.5333 9.98541 8.5333C9.98674 8.5333 9.98806 8.5333 9.98939 8.5333C9.99071 8.5333 9.99204 8.5333 9.99336 8.5333C9.99469 8.5333 9.99601 8.5333 9.99734 8.5333C9.99867 8.5333 9.99999 8.5333 10.0013 8.5333C10.0026 8.5333 10.004 8.5333 10.0053 8.5333C10.0066 8.5333 10.008 8.5333 10.0093 8.5333C10.0106 8.5333 10.0119 8.5333 10.0133 8.5333C10.0146 8.5333 10.0159 8.5333 10.0173 8.5333C10.0186 8.5333 10.0199 8.5333 10.0213 8.5333C10.0226 8.5333 10.0239 8.5333 10.0252 8.5333C10.0266 8.5333 10.0279 8.5333 10.0292 8.5333C10.0306 8.5333 10.0319 8.5333 10.0332 8.5333C10.0346 8.5333 10.0359 8.5333 10.0372 8.5333C10.0386 8.5333 10.0399 8.5333 10.0412 8.5333C10.0426 8.5333 10.0439 8.5333 10.0452 8.5333C10.0466 8.5333 10.0479 8.5333 10.0493 8.5333C10.0506 8.5333 10.0519 8.5333 10.0533 8.5333C10.0546 8.5333 10.0559 8.5333 10.0573 8.5333C10.0586 8.5333 10.0599 8.5333 10.0613 8.5333C10.0626 8.5333 10.064 8.5333 10.0653 8.5333C10.0666 8.5333 10.068 8.5333 10.0693 8.5333C10.0707 8.5333 10.072 8.5333 10.0733 8.5333C10.0747 8.5333 10.076 8.5333 10.0774 8.5333C10.0787 8.5333 10.0801 8.5333 10.0814 8.5333C10.0827 8.5333 10.0841 8.5333 10.0854 8.5333C10.0868 8.5333 10.0881 8.5333 10.0895 8.5333C10.0908 8.5333 10.0921 8.5333 10.0935 8.5333C10.0948 8.5333 10.0962 8.5333 10.0975 8.5333C10.0989 8.5333 10.1002 8.5333 10.1016 8.5333C10.1029 8.5333 10.1043 8.5333 10.1056 8.5333C10.107 8.5333 10.1083 8.5333 10.1097 8.5333C10.111 8.5333 10.1124 8.5333 10.1137 8.5333C10.1151 8.5333 10.1164 8.5333 10.1178 8.5333C10.1191 8.5333 10.1205 8.5333 10.1218 8.5333C10.1232 8.5333 10.1245 8.5333 10.1259 8.5333C10.1272 8.5333 10.1286 8.5333 10.1299 8.5333C10.1313 8.5333 10.1327 8.5333 10.134 8.5333C10.1354 8.5333 10.1367 8.5333 10.1381 8.5333C10.1394 8.5333 10.1408 8.5333 10.1421 8.5333C10.1435 8.5333 10.1449 8.5333 10.1462 8.5333C10.1476 8.5333 10.1489 8.5333 10.1503 8.5333C10.1517 8.5333 10.153 8.5333 10.1544 8.5333C10.1557 8.5333 10.1571 8.5333 10.1585 8.5333C10.1598 8.5333 10.1612 8.5333 10.1625 8.5333C10.1639 8.5333 10.1653 8.5333 10.1666 8.5333C10.168 8.5333 10.1694 8.5333 10.1707 8.5333C10.1721 8.5333 10.1735 8.5333 10.1748 8.5333C10.1762 8.5333 10.1776 8.5333 10.1789 8.5333C10.1803 8.5333 10.1817 8.5333 10.183 8.5333C10.1844 8.5333 10.1858 8.5333 10.1871 8.5333C10.1885 8.5333 10.1899 8.5333 10.1913 8.5333C10.1926 8.5333 10.194 8.5333 10.1954 8.5333C10.1967 8.5333 10.1981 8.5333 10.1995 8.5333C10.2009 8.5333 10.2022 8.5333 10.2036 8.5333C10.205 8.5333 10.2064 8.5333 10.2077 8.5333C10.2091 8.5333 10.2105 8.5333 10.2119 8.5333C10.2132 8.5333 10.2146 8.5333 10.216 8.5333C10.2174 8.5333 10.2188 8.5333 10.2201 8.5333C10.2215 8.5333 10.2229 8.5333 10.2243 8.5333C10.2257 8.5333 10.227 8.5333 10.2284 8.5333C10.2298 8.5333 10.2312 8.5333 10.2326 8.5333C10.234 8.5333 10.2353 8.5333 10.2367 8.5333C10.2381 8.5333 10.2395 8.5333 10.2409 8.5333C10.2423 8.5333 10.2437 8.5333 10.245 8.5333C10.2464 8.5333 10.2478 8.5333 10.2492 8.5333C10.2506 8.5333 10.252 8.5333 10.2534 8.5333C10.2548 8.5333 10.2562 8.5333 10.2576 8.5333C10.2589 8.5333 10.2603 8.5333 10.2617 8.5333C10.2631 8.5333 10.2645 8.5333 10.2659 8.5333C10.2673 8.5333 10.2687 8.5333 10.2701 8.5333C10.2715 8.5333 10.2729 8.5333 10.2743 8.5333C10.2757 8.5333 10.2771 8.5333 10.2785 8.5333C10.2799 8.5333 10.2813 8.5333 10.2827 8.5333C10.2841 8.5333 10.2855 8.5333 10.2869 8.5333C10.2883 8.5333 10.2897 8.5333 10.2911 8.5333C10.2925 8.5333 10.2939 8.5333 10.2953 8.5333C10.2967 8.5333 10.2981 8.5333 10.2995 8.5333C10.3009 8.5333 10.3023 8.5333 10.3037 8.5333C10.3052 8.5333 10.3066 8.5333 10.308 8.5333C10.3094 8.5333 10.3108 8.5333 10.3122 8.5333C10.3136 8.5333 10.315 8.5333 10.3164 8.5333C10.3178 8.5333 10.3193 8.5333 10.3207 8.5333C10.3221 8.5333 10.3235 8.5333 10.3249 8.5333C10.3263 8.5333 10.3277 8.5333 10.3292 8.5333C10.3306 8.5333 10.332 8.5333 10.3334 8.5333C10.3348 8.5333 10.3363 8.5333 10.3377 8.5333C10.3391 8.5333 10.3405 8.5333 10.3419 8.5333C10.3434 8.5333 10.3448 8.5333 10.3462 8.5333C10.3476 8.5333 10.3491 8.5333 10.3505 8.5333C10.3519 8.5333 10.3533 8.5333 10.3548 8.5333C10.3562 8.5333 10.3576 8.5333 10.359 8.5333C10.3605 8.5333 10.3619 8.5333 10.3633 8.5333C10.3648 8.5333 10.3662 8.5333 10.3676 8.5333C10.3691 8.5333 10.3705 8.5333 10.3719 8.5333C10.3733 8.5333 10.3748 8.5333 10.3762 8.5333C10.3777 8.5333 10.3791 8.5333 10.3805 8.5333C10.382 8.5333 10.3834 8.5333 10.3848 8.5333C10.3863 8.5333 10.3877 8.5333 10.3892 8.5333C10.3906 8.5333 10.392 8.5333 10.3935 8.5333C10.3949 8.5333 10.3964 8.5333 10.3978 8.5333C10.3992 8.5333 10.4007 8.5333 10.4021 8.5333C10.4036 8.5333 10.405 8.5333 10.4065 8.5333C10.4079 8.5333 10.4094 8.5333 10.4108 8.5333C10.4123 8.5333 10.4137 8.5333 10.4152 8.5333C10.4166 8.5333 10.4181 8.5333 10.4195 8.5333C10.421 8.5333 10.4224 8.5333 10.4239 8.5333C10.4253 8.5333 10.4268 8.5333 10.4282 8.5333C10.4297 8.5333 10.4312 8.5333 10.4326 8.5333C10.4341 8.5333 10.4355 8.5333 10.437 8.5333C10.4385 8.5333 10.4399 8.5333 10.4414 8.5333C10.4428 8.5333 10.4443 8.5333 10.4458 8.5333C10.4472 8.5333 10.4487 8.5333 10.4502 8.5333C10.4516 8.5333 10.4531 8.5333 10.4546 8.5333C10.456 8.5333 10.4575 8.5333 10.459 8.5333C10.4604 8.5333 10.4619 8.5333 10.4634 8.5333C10.4648 8.5333 10.4663 8.5333 10.4678 8.5333C10.4693 8.5333 10.4707 8.5333 10.4722 8.5333C10.4737 8.5333 10.4752 8.5333 10.4766 8.5333C10.4781 8.5333 10.4796 8.5333 10.4811 8.5333C10.4826 8.5333 10.484 8.5333 10.4855 8.5333C10.487 8.5333 10.4885 8.5333 10.49 8.5333C10.4914 8.5333 10.4929 8.5333 10.4944 8.5333C10.4959 8.5333 10.4974 8.5333 10.4989 8.5333C10.5004 8.5333 10.5018 8.5333 10.5033 8.5333C10.5048 8.5333 10.5063 8.5333 10.5078 8.5333C10.5093 8.5333 10.5108 8.5333 10.5123 8.5333C10.5138 8.5333 10.5153 8.5333 10.5168 8.5333C10.5183 8.5333 10.5197 8.5333 10.5212 8.5333C10.5227 8.5333 10.5242 8.5333 10.5257 8.5333C10.5272 8.5333 10.5287 8.5333 10.5302 8.5333C10.5317 8.5333 10.5332 8.5333 10.5347 8.5333C10.5362 8.5333 10.5378 8.5333 10.5393 8.5333C10.5408 8.5333 10.5423 8.5333 10.5438 8.5333C10.5453 8.5333 10.5468 8.5333 10.5483 8.5333C10.5498 8.5333 10.5513 8.5333 10.5528 8.5333C10.5543 8.5333 10.5559 8.5333 10.5574 8.5333C10.5589 8.5333 10.5604 8.5333 10.5619 8.5333C10.5634 8.5333 10.5649 8.5333 10.5665 8.5333C10.568 8.5333 10.5695 8.5333 10.571 8.5333C10.5725 8.5333 10.5741 8.5333 10.5756 8.5333C10.5771 8.5333 10.5786 8.5333 10.5802 8.5333C10.5817 8.5333 10.5832 8.5333 10.5847 8.5333C10.5863 8.5333 10.5878 8.5333 10.5893 8.5333C10.5909 8.5333 10.5924 8.5333 10.5939 8.5333C10.5954 8.5333 10.597 8.5333 10.5985 8.5333C10.6 8.5333 10.6016 8.5333 10.6031 8.5333C10.6047 8.5333 10.6062 8.5333 10.6077 8.5333C10.6093 8.5333 10.6108 8.5333 10.6123 8.5333C10.6139 8.5333 10.6154 8.5333 10.617 8.5333C10.6185 8.5333 10.6201 8.5333 10.6216 8.5333C10.6231 8.5333 10.6247 8.5333 10.6262 8.5333C10.6278 8.5333 10.6293 8.5333 10.6309 8.5333C10.6324 8.5333 10.634 8.5333 10.6355 8.5333C10.6371 8.5333 10.6386 8.5333 10.6402 8.5333C10.6418 8.5333 10.6433 8.5333 10.6449 8.5333C10.6464 8.5333 10.648 8.5333 10.6495 8.5333C10.6511 8.5333 10.6527 8.5333 10.6542 8.5333C10.6558 8.5333 10.6573 8.5333 10.6589 8.5333C10.6605 8.5333 10.662 8.5333 10.6636 8.5333C10.6652 8.5333 10.6667 8.5333 10.6683 8.5333C10.6699 8.5333 10.6714 8.5333 10.673 8.5333C10.6746 8.5333 10.6762 8.5333 10.6777 8.5333C10.6793 8.5333 10.6809 8.5333 10.6825 8.5333C10.684 8.5333 10.6856 8.5333 10.6872 8.5333C10.6888 8.5333 10.6904 8.5333 10.6919 8.5333C10.6935 8.5333 10.6951 8.5333 10.6967 8.5333C10.6983 8.5333 10.6998 8.5333 10.7014 8.5333C10.703 8.5333 10.7046 8.5333 10.7062 8.5333C10.7078 8.5333 10.7094 8.5333 10.711 8.5333C10.7126 8.5333 10.7141 8.5333 10.7157 8.5333C10.7173 8.5333 10.7189 8.5333 10.7205 8.5333C10.7221 8.5333 10.7237 8.5333 10.7253 8.5333C10.7269 8.5333 10.7285 8.5333 10.7301 8.5333C10.7317 8.5333 10.7333 8.5333 10.7349 8.5333C10.7365 8.5333 10.7381 8.5333 10.7397 8.5333C10.7413 8.5333 10.743 8.5333 10.7446 8.5333C10.7462 8.5333 10.7478 8.5333 10.7494 8.5333C10.751 8.5333 10.7526 8.5333 10.7542 8.5333C10.7558 8.5333 10.7575 8.5333 10.7591 8.5333C10.7607 8.5333 10.7623 8.5333 10.7639 8.5333C10.7656 8.5333 10.7672 8.5333 10.7688 8.5333C10.7704 8.5333 10.772 8.5333 10.7737 8.5333C10.7753 8.5333 10.7769 8.5333 10.7785 8.5333C10.7802 8.5333 10.7818 8.5333 10.7834 8.5333C10.7851 8.5333 10.7867 8.5333 10.7883 8.5333C10.79 8.5333 10.7916 8.5333 10.7932 8.5333C10.7949 8.5333 10.7965 8.5333 10.7981 8.5333C10.7998 8.5333 10.8014 8.5333 10.8031 8.5333C10.8047 8.5333 10.8063 8.5333 10.808 8.5333C10.8096 8.5333 10.8113 8.5333 10.8129 8.5333C10.8146 8.5333 10.8162 8.5333 10.8179 8.5333C10.8195 8.5333 10.8212 8.5333 10.8228 8.5333C10.8245 8.5333 10.8261 8.5333 10.8278 8.5333C10.8294 8.5333 10.8311 8.5333 10.8328 8.5333C10.8344 8.5333 10.8361 8.5333 10.8377 8.5333C10.8394 8.5333 10.8411 8.5333 10.8427 8.5333C10.8444 8.5333 10.846 8.5333 10.8477 8.5333C10.8494 8.5333 10.851 8.5333 10.8527 8.5333C10.8544 8.5333 10.8561 8.5333 10.8577 8.5333C10.8594 8.5333 10.8611 8.5333 10.8627 8.5333V7.0333C10.8611 7.0333 10.8594 7.0333 10.8577 7.0333C10.8561 7.0333 10.8544 7.0333 10.8527 7.0333C10.851 7.0333 10.8494 7.0333 10.8477 7.0333C10.846 7.0333 10.8444 7.0333 10.8427 7.0333C10.8411 7.0333 10.8394 7.0333 10.8377 7.0333C10.8361 7.0333 10.8344 7.0333 10.8328 7.0333C10.8311 7.0333 10.8294 7.0333 10.8278 7.0333C10.8261 7.0333 10.8245 7.0333 10.8228 7.0333C10.8212 7.0333 10.8195 7.0333 10.8179 7.0333C10.8162 7.0333 10.8146 7.0333 10.8129 7.0333C10.8113 7.0333 10.8096 7.0333 10.808 7.0333C10.8063 7.0333 10.8047 7.0333 10.8031 7.0333C10.8014 7.0333 10.7998 7.0333 10.7981 7.0333C10.7965 7.0333 10.7949 7.0333 10.7932 7.0333C10.7916 7.0333 10.79 7.0333 10.7883 7.0333C10.7867 7.0333 10.7851 7.0333 10.7834 7.0333C10.7818 7.0333 10.7802 7.0333 10.7785 7.0333C10.7769 7.0333 10.7753 7.0333 10.7737 7.0333C10.772 7.0333 10.7704 7.0333 10.7688 7.0333C10.7672 7.0333 10.7656 7.0333 10.7639 7.0333C10.7623 7.0333 10.7607 7.0333 10.7591 7.0333C10.7575 7.0333 10.7558 7.0333 10.7542 7.0333C10.7526 7.0333 10.751 7.0333 10.7494 7.0333C10.7478 7.0333 10.7462 7.0333 10.7446 7.0333C10.743 7.0333 10.7413 7.0333 10.7397 7.0333C10.7381 7.0333 10.7365 7.0333 10.7349 7.0333C10.7333 7.0333 10.7317 7.0333 10.7301 7.0333C10.7285 7.0333 10.7269 7.0333 10.7253 7.0333C10.7237 7.0333 10.7221 7.0333 10.7205 7.0333C10.7189 7.0333 10.7173 7.0333 10.7157 7.0333C10.7141 7.0333 10.7126 7.0333 10.711 7.0333C10.7094 7.0333 10.7078 7.0333 10.7062 7.0333C10.7046 7.0333 10.703 7.0333 10.7014 7.0333C10.6998 7.0333 10.6983 7.0333 10.6967 7.0333C10.6951 7.0333 10.6935 7.0333 10.6919 7.0333C10.6904 7.0333 10.6888 7.0333 10.6872 7.0333C10.6856 7.0333 10.684 7.0333 10.6825 7.0333C10.6809 7.0333 10.6793 7.0333 10.6777 7.0333C10.6762 7.0333 10.6746 7.0333 10.673 7.0333C10.6714 7.0333 10.6699 7.0333 10.6683 7.0333C10.6667 7.0333 10.6652 7.0333 10.6636 7.0333C10.662 7.0333 10.6605 7.0333 10.6589 7.0333C10.6573 7.0333 10.6558 7.0333 10.6542 7.0333C10.6527 7.0333 10.6511 7.0333 10.6495 7.0333C10.648 7.0333 10.6464 7.0333 10.6449 7.0333C10.6433 7.0333 10.6418 7.0333 10.6402 7.0333C10.6386 7.0333 10.6371 7.0333 10.6355 7.0333C10.634 7.0333 10.6324 7.0333 10.6309 7.0333C10.6293 7.0333 10.6278 7.0333 10.6262 7.0333C10.6247 7.0333 10.6231 7.0333 10.6216 7.0333C10.6201 7.0333 10.6185 7.0333 10.617 7.0333C10.6154 7.0333 10.6139 7.0333 10.6123 7.0333C10.6108 7.0333 10.6093 7.0333 10.6077 7.0333C10.6062 7.0333 10.6047 7.0333 10.6031 7.0333C10.6016 7.0333 10.6 7.0333 10.5985 7.0333C10.597 7.0333 10.5954 7.0333 10.5939 7.0333C10.5924 7.0333 10.5909 7.0333 10.5893 7.0333C10.5878 7.0333 10.5863 7.0333 10.5847 7.0333C10.5832 7.0333 10.5817 7.0333 10.5802 7.0333C10.5786 7.0333 10.5771 7.0333 10.5756 7.0333C10.5741 7.0333 10.5725 7.0333 10.571 7.0333C10.5695 7.0333 10.568 7.0333 10.5665 7.0333C10.5649 7.0333 10.5634 7.0333 10.5619 7.0333C10.5604 7.0333 10.5589 7.0333 10.5574 7.0333C10.5559 7.0333 10.5543 7.0333 10.5528 7.0333C10.5513 7.0333 10.5498 7.0333 10.5483 7.0333C10.5468 7.0333 10.5453 7.0333 10.5438 7.0333C10.5423 7.0333 10.5408 7.0333 10.5393 7.0333C10.5378 7.0333 10.5362 7.0333 10.5347 7.0333C10.5332 7.0333 10.5317 7.0333 10.5302 7.0333C10.5287 7.0333 10.5272 7.0333 10.5257 7.0333C10.5242 7.0333 10.5227 7.0333 10.5212 7.0333C10.5197 7.0333 10.5183 7.0333 10.5168 7.0333C10.5153 7.0333 10.5138 7.0333 10.5123 7.0333C10.5108 7.0333 10.5093 7.0333 10.5078 7.0333C10.5063 7.0333 10.5048 7.0333 10.5033 7.0333C10.5018 7.0333 10.5004 7.0333 10.4989 7.0333C10.4974 7.0333 10.4959 7.0333 10.4944 7.0333C10.4929 7.0333 10.4914 7.0333 10.49 7.0333C10.4885 7.0333 10.487 7.0333 10.4855 7.0333C10.484 7.0333 10.4826 7.0333 10.4811 7.0333C10.4796 7.0333 10.4781 7.0333 10.4766 7.0333C10.4752 7.0333 10.4737 7.0333 10.4722 7.0333C10.4707 7.0333 10.4693 7.0333 10.4678 7.0333C10.4663 7.0333 10.4648 7.0333 10.4634 7.0333C10.4619 7.0333 10.4604 7.0333 10.459 7.0333C10.4575 7.0333 10.456 7.0333 10.4546 7.0333C10.4531 7.0333 10.4516 7.0333 10.4502 7.0333C10.4487 7.0333 10.4472 7.0333 10.4458 7.0333C10.4443 7.0333 10.4428 7.0333 10.4414 7.0333C10.4399 7.0333 10.4385 7.0333 10.437 7.0333C10.4355 7.0333 10.4341 7.0333 10.4326 7.0333C10.4312 7.0333 10.4297 7.0333 10.4282 7.0333C10.4268 7.0333 10.4253 7.0333 10.4239 7.0333C10.4224 7.0333 10.421 7.0333 10.4195 7.0333C10.4181 7.0333 10.4166 7.0333 10.4152 7.0333C10.4137 7.0333 10.4123 7.0333 10.4108 7.0333C10.4094 7.0333 10.4079 7.0333 10.4065 7.0333C10.405 7.0333 10.4036 7.0333 10.4021 7.0333C10.4007 7.0333 10.3992 7.0333 10.3978 7.0333C10.3964 7.0333 10.3949 7.0333 10.3935 7.0333C10.392 7.0333 10.3906 7.0333 10.3892 7.0333C10.3877 7.0333 10.3863 7.0333 10.3848 7.0333C10.3834 7.0333 10.382 7.0333 10.3805 7.0333C10.3791 7.0333 10.3777 7.0333 10.3762 7.0333C10.3748 7.0333 10.3733 7.0333 10.3719 7.0333C10.3705 7.0333 10.3691 7.0333 10.3676 7.0333C10.3662 7.0333 10.3648 7.0333 10.3633 7.0333C10.3619 7.0333 10.3605 7.0333 10.359 7.0333C10.3576 7.0333 10.3562 7.0333 10.3548 7.0333C10.3533 7.0333 10.3519 7.0333 10.3505 7.0333C10.3491 7.0333 10.3476 7.0333 10.3462 7.0333C10.3448 7.0333 10.3434 7.0333 10.3419 7.0333C10.3405 7.0333 10.3391 7.0333 10.3377 7.0333C10.3363 7.0333 10.3348 7.0333 10.3334 7.0333C10.332 7.0333 10.3306 7.0333 10.3292 7.0333C10.3277 7.0333 10.3263 7.0333 10.3249 7.0333C10.3235 7.0333 10.3221 7.0333 10.3207 7.0333C10.3193 7.0333 10.3178 7.0333 10.3164 7.0333C10.315 7.0333 10.3136 7.0333 10.3122 7.0333C10.3108 7.0333 10.3094 7.0333 10.308 7.0333C10.3066 7.0333 10.3052 7.0333 10.3037 7.0333C10.3023 7.0333 10.3009 7.0333 10.2995 7.0333C10.2981 7.0333 10.2967 7.0333 10.2953 7.0333C10.2939 7.0333 10.2925 7.0333 10.2911 7.0333C10.2897 7.0333 10.2883 7.0333 10.2869 7.0333C10.2855 7.0333 10.2841 7.0333 10.2827 7.0333C10.2813 7.0333 10.2799 7.0333 10.2785 7.0333C10.2771 7.0333 10.2757 7.0333 10.2743 7.0333C10.2729 7.0333 10.2715 7.0333 10.2701 7.0333C10.2687 7.0333 10.2673 7.0333 10.2659 7.0333C10.2645 7.0333 10.2631 7.0333 10.2617 7.0333C10.2603 7.0333 10.2589 7.0333 10.2576 7.0333C10.2562 7.0333 10.2548 7.0333 10.2534 7.0333C10.252 7.0333 10.2506 7.0333 10.2492 7.0333C10.2478 7.0333 10.2464 7.0333 10.245 7.0333C10.2437 7.0333 10.2423 7.0333 10.2409 7.0333C10.2395 7.0333 10.2381 7.0333 10.2367 7.0333C10.2353 7.0333 10.234 7.0333 10.2326 7.0333C10.2312 7.0333 10.2298 7.0333 10.2284 7.0333C10.227 7.0333 10.2257 7.0333 10.2243 7.0333C10.2229 7.0333 10.2215 7.0333 10.2201 7.0333C10.2188 7.0333 10.2174 7.0333 10.216 7.0333C10.2146 7.0333 10.2132 7.0333 10.2119 7.0333C10.2105 7.0333 10.2091 7.0333 10.2077 7.0333C10.2064 7.0333 10.205 7.0333 10.2036 7.0333C10.2022 7.0333 10.2009 7.0333 10.1995 7.0333C10.1981 7.0333 10.1967 7.0333 10.1954 7.0333C10.194 7.0333 10.1926 7.0333 10.1913 7.0333C10.1899 7.0333 10.1885 7.0333 10.1871 7.0333C10.1858 7.0333 10.1844 7.0333 10.183 7.0333C10.1817 7.0333 10.1803 7.0333 10.1789 7.0333C10.1776 7.0333 10.1762 7.0333 10.1748 7.0333C10.1735 7.0333 10.1721 7.0333 10.1707 7.0333C10.1694 7.0333 10.168 7.0333 10.1666 7.0333C10.1653 7.0333 10.1639 7.0333 10.1625 7.0333C10.1612 7.0333 10.1598 7.0333 10.1585 7.0333C10.1571 7.0333 10.1557 7.0333 10.1544 7.0333C10.153 7.0333 10.1517 7.0333 10.1503 7.0333C10.1489 7.0333 10.1476 7.0333 10.1462 7.0333C10.1449 7.0333 10.1435 7.0333 10.1421 7.0333C10.1408 7.0333 10.1394 7.0333 10.1381 7.0333C10.1367 7.0333 10.1354 7.0333 10.134 7.0333C10.1327 7.0333 10.1313 7.0333 10.1299 7.0333C10.1286 7.0333 10.1272 7.0333 10.1259 7.0333C10.1245 7.0333 10.1232 7.0333 10.1218 7.0333C10.1205 7.0333 10.1191 7.0333 10.1178 7.0333C10.1164 7.0333 10.1151 7.0333 10.1137 7.0333C10.1124 7.0333 10.111 7.0333 10.1097 7.0333C10.1083 7.0333 10.107 7.0333 10.1056 7.0333C10.1043 7.0333 10.1029 7.0333 10.1016 7.0333C10.1002 7.0333 10.0989 7.0333 10.0975 7.0333C10.0962 7.0333 10.0948 7.0333 10.0935 7.0333C10.0921 7.0333 10.0908 7.0333 10.0895 7.0333C10.0881 7.0333 10.0868 7.0333 10.0854 7.0333C10.0841 7.0333 10.0827 7.0333 10.0814 7.0333C10.0801 7.0333 10.0787 7.0333 10.0774 7.0333C10.076 7.0333 10.0747 7.0333 10.0733 7.0333C10.072 7.0333 10.0707 7.0333 10.0693 7.0333C10.068 7.0333 10.0666 7.0333 10.0653 7.0333C10.064 7.0333 10.0626 7.0333 10.0613 7.0333C10.0599 7.0333 10.0586 7.0333 10.0573 7.0333C10.0559 7.0333 10.0546 7.0333 10.0533 7.0333C10.0519 7.0333 10.0506 7.0333 10.0493 7.0333C10.0479 7.0333 10.0466 7.0333 10.0452 7.0333C10.0439 7.0333 10.0426 7.0333 10.0412 7.0333C10.0399 7.0333 10.0386 7.0333 10.0372 7.0333C10.0359 7.0333 10.0346 7.0333 10.0332 7.0333C10.0319 7.0333 10.0306 7.0333 10.0292 7.0333C10.0279 7.0333 10.0266 7.0333 10.0252 7.0333C10.0239 7.0333 10.0226 7.0333 10.0213 7.0333C10.0199 7.0333 10.0186 7.0333 10.0173 7.0333C10.0159 7.0333 10.0146 7.0333 10.0133 7.0333C10.0119 7.0333 10.0106 7.0333 10.0093 7.0333C10.008 7.0333 10.0066 7.0333 10.0053 7.0333C10.004 7.0333 10.0026 7.0333 10.0013 7.0333C9.99999 7.0333 9.99867 7.0333 9.99734 7.0333C9.99601 7.0333 9.99469 7.0333 9.99336 7.0333C9.99204 7.0333 9.99071 7.0333 9.98939 7.0333C9.98806 7.0333 9.98674 7.0333 9.98541 7.0333C9.98409 7.0333 9.98276 7.0333 9.98144 7.0333C9.98012 7.0333 9.97879 7.0333 9.97747 7.0333C9.97615 7.0333 9.97482 7.0333 9.9735 7.0333C9.97218 7.0333 9.97085 7.0333 9.96953 7.0333C9.96821 7.0333 9.96689 7.0333 9.96557 7.0333C9.96425 7.0333 9.96292 7.0333 9.9616 7.0333C9.96028 7.0333 9.95896 7.0333 9.95764 7.0333C9.95632 7.0333 9.955 7.0333 9.95368 7.0333C9.95236 7.0333 9.95104 7.0333 9.94972 7.0333C9.9484 7.0333 9.94708 7.0333 9.94577 7.0333C9.94445 7.0333 9.94313 7.0333 9.94181 7.0333C9.94049 7.0333 9.93917 7.0333 9.93786 7.0333C9.93654 7.0333 9.93522 7.0333 9.9339 7.0333C9.93259 7.0333 9.93127 7.0333 9.92995 7.0333C9.92864 7.0333 9.92732 7.0333 9.926 7.0333C9.92469 7.0333 9.92337 7.0333 9.92205 7.0333C9.92074 7.0333 9.91942 7.0333 9.91811 7.0333C9.91679 7.0333 9.91548 7.0333 9.91416 7.0333C9.91285 7.0333 9.91153 7.0333 9.91022 7.0333C9.9089 7.0333 9.90759 7.0333 9.90627 7.0333C9.90496 7.0333 9.90365 7.0333 9.90233 7.0333C9.90102 7.0333 9.89971 7.0333 9.89839 7.0333C9.89708 7.0333 9.89577 7.0333 9.89445 7.0333C9.89314 7.0333 9.89183 7.0333 9.89051 7.0333C9.8892 7.0333 9.88789 7.0333 9.88658 7.0333C9.88526 7.0333 9.88395 7.0333 9.88264 7.0333C9.88133 7.0333 9.88002 7.0333 9.8787 7.0333C9.87739 7.0333 9.87608 7.0333 9.87477 7.0333C9.87346 7.0333 9.87215 7.0333 9.87084 7.0333C9.86953 7.0333 9.86821 7.0333 9.8669 7.0333C9.86559 7.0333 9.86428 7.0333 9.86297 7.0333C9.86166 7.0333 9.86035 7.0333 9.85904 7.0333C9.85773 7.0333 9.85642 7.0333 9.85511 7.0333C9.8538 7.0333 9.85249 7.0333 9.85118 7.0333C9.84987 7.0333 9.84856 7.0333 9.84725 7.0333C9.84594 7.0333 9.84464 7.0333 9.84333 7.0333C9.84202 7.0333 9.84071 7.0333 9.8394 7.0333C9.83809 7.0333 9.83678 7.0333 9.83547 7.0333C9.83416 7.0333 9.83286 7.0333 9.83155 7.0333C9.83024 7.0333 9.82893 7.0333 9.82762 7.0333C9.82631 7.0333 9.82501 7.0333 9.8237 7.0333C9.82239 7.0333 9.82108 7.0333 9.81977 7.0333C9.81846 7.0333 9.81716 7.0333 9.81585 7.0333C9.81454 7.0333 9.81323 7.0333 9.81193 7.0333C9.81062 7.0333 9.80931 7.0333 9.808 7.0333C9.8067 7.0333 9.80539 7.0333 9.80408 7.0333C9.80277 7.0333 9.80147 7.0333 9.80016 7.0333C9.79885 7.0333 9.79754 7.0333 9.79624 7.0333C9.79493 7.0333 9.79362 7.0333 9.79231 7.0333C9.79101 7.0333 9.7897 7.0333 9.78839 7.0333C9.78709 7.0333 9.78578 7.0333 9.78447 7.0333C9.78317 7.0333 9.78186 7.0333 9.78055 7.0333C9.77924 7.0333 9.77794 7.0333 9.77663 7.0333C9.77532 7.0333 9.77402 7.0333 9.77271 7.0333C9.7714 7.0333 9.7701 7.0333 9.76879 7.0333C9.76748 7.0333 9.76617 7.0333 9.76487 7.0333C9.76356 7.0333 9.76225 7.0333 9.76095 7.0333C9.75964 7.0333 9.75833 7.0333 9.75703 7.0333C9.75572 7.0333 9.75441 7.0333 9.75311 7.0333C9.7518 7.0333 9.75049 7.0333 9.74918 7.0333C9.74788 7.0333 9.74657 7.0333 9.74526 7.0333C9.74396 7.0333 9.74265 7.0333 9.74134 7.0333C9.74004 7.0333 9.73873 7.0333 9.73742 7.0333C9.73611 7.0333 9.73481 7.0333 9.7335 7.0333C9.73219 7.0333 9.73089 7.0333 9.72958 7.0333C9.72827 7.0333 9.72696 7.0333 9.72566 7.0333C9.72435 7.0333 9.72304 7.0333 9.72173 7.0333C9.72043 7.0333 9.71912 7.0333 9.71781 7.0333C9.7165 7.0333 9.71519 7.0333 9.71389 7.0333C9.71258 7.0333 9.71127 7.0333 9.70996 7.0333C9.70866 7.0333 9.70735 7.0333 9.70604 7.0333C9.70473 7.0333 9.70342 7.0333 9.70211 7.0333C9.70081 7.0333 9.6995 7.0333 9.69819 7.0333C9.69688 7.0333 9.69557 7.0333 9.69426 7.0333C9.69295 7.0333 9.69165 7.0333 9.69034 7.0333C9.68903 7.0333 9.68772 7.0333 9.68641 7.0333C9.6851 7.0333 9.68379 7.0333 9.68248 7.0333C9.68117 7.0333 9.67986 7.0333 9.67855 7.0333C9.67724 7.0333 9.67593 7.0333 9.67462 7.0333C9.67331 7.0333 9.672 7.0333 9.67069 7.0333C9.66938 7.0333 9.66807 7.0333 9.66676 7.0333C9.66545 7.0333 9.66414 7.0333 9.66283 7.0333C9.66152 7.0333 9.66021 7.0333 9.6589 7.0333C9.65759 7.0333 9.65628 7.0333 9.65497 7.0333C9.65365 7.0333 9.65234 7.0333 9.65103 7.0333C9.64972 7.0333 9.64841 7.0333 9.6471 7.0333C9.64578 7.0333 9.64447 7.0333 9.64316 7.0333C9.64185 7.0333 9.64054 7.0333 9.63922 7.0333C9.63791 7.0333 9.6366 7.0333 9.63528 7.0333C9.63397 7.0333 9.63266 7.0333 9.63134 7.0333C9.63003 7.0333 9.62872 7.0333 9.6274 7.0333C9.62609 7.0333 9.62478 7.0333 9.62346 7.0333C9.62215 7.0333 9.62083 7.0333 9.61952 7.0333C9.6182 7.0333 9.61689 7.0333 9.61557 7.0333C9.61426 7.0333 9.61294 7.0333 9.61163 7.0333C9.61031 7.0333 9.609 7.0333 9.60768 7.0333C9.60637 7.0333 9.60505 7.0333 9.60373 7.0333C9.60242 7.0333 9.6011 7.0333 9.59978 7.0333C9.59847 7.0333 9.59715 7.0333 9.59583 7.0333C9.59452 7.0333 9.5932 7.0333 9.59188 7.0333C9.59056 7.0333 9.58924 7.0333 9.58793 7.0333C9.58661 7.0333 9.58529 7.0333 9.58397 7.0333C9.58265 7.0333 9.58133 7.0333 9.58001 7.0333C9.57869 7.0333 9.57737 7.0333 9.57605 7.0333C9.57473 7.0333 9.57341 7.0333 9.57209 7.0333C9.57077 7.0333 9.56945 7.0333 9.56813 7.0333C9.56681 7.0333 9.56549 7.0333 9.56417 7.0333C9.56285 7.0333 9.56153 7.0333 9.5602 7.0333C9.55888 7.0333 9.55756 7.0333 9.55624 7.0333C9.55491 7.0333 9.55359 7.0333 9.55227 7.0333C9.55094 7.0333 9.54962 7.0333 9.5483 7.0333C9.54697 7.0333 9.54565 7.0333 9.54432 7.0333C9.543 7.0333 9.54168 7.0333 9.54035 7.0333C9.53902 7.0333 9.5377 7.0333 9.53637 7.0333C9.53505 7.0333 9.53372 7.0333 9.5324 7.0333C9.53107 7.0333 9.52974 7.0333 9.52841 7.0333C9.52709 7.0333 9.52576 7.0333 9.52443 7.0333C9.5231 7.0333 9.52178 7.0333 9.52045 7.0333C9.51912 7.0333 9.51779 7.0333 9.51646 7.0333C9.51513 7.0333 9.5138 7.0333 9.51247 7.0333C9.51114 7.0333 9.50981 7.0333 9.50848 7.0333C9.50715 7.0333 9.50582 7.0333 9.50449 7.0333C9.50316 7.0333 9.50183 7.0333 9.50049 7.0333C9.49916 7.0333 9.49783 7.0333 9.4965 7.0333C9.49516 7.0333 9.49383 7.0333 9.4925 7.0333C9.49116 7.0333 9.48983 7.0333 9.4885 7.0333C9.48716 7.0333 9.48583 7.0333 9.48449 7.0333C9.48316 7.0333 9.48182 7.0333 9.48048 7.0333C9.47915 7.0333 9.47781 7.0333 9.47647 7.0333C9.47514 7.0333 9.4738 7.0333 9.47246 7.0333C9.47113 7.0333 9.46979 7.0333 9.46845 7.0333C9.46711 7.0333 9.46577 7.0333 9.46443 7.0333C9.46309 7.0333 9.46175 7.0333 9.46041 7.0333C9.45907 7.0333 9.45773 7.0333 9.45639 7.0333C9.45505 7.0333 9.45371 7.0333 9.45237 7.0333C9.45102 7.0333 9.44968 7.0333 9.44834 7.0333C9.447 7.0333 9.44565 7.0333 9.44431 7.0333C9.44297 7.0333 9.44162 7.0333 9.44028 7.0333C9.43893 7.0333 9.43759 7.0333 9.43624 7.0333C9.4349 7.0333 9.43355 7.0333 9.4322 7.0333C9.43086 7.0333 9.42951 7.0333 9.42816 7.0333C9.42682 7.0333 9.42547 7.0333 9.42412 7.0333C9.42277 7.0333 9.42142 7.0333 9.42007 7.0333C9.41872 7.0333 9.41737 7.0333 9.41602 7.0333C9.41467 7.0333 9.41332 7.0333 9.41197 7.0333C9.41062 7.0333 9.40927 7.0333 9.40791 7.0333C9.40656 7.0333 9.40521 7.0333 9.40386 7.0333C9.4025 7.0333 9.40115 7.0333 9.39979 7.0333C9.39844 7.0333 9.39709 7.0333 9.39573 7.0333C9.39437 7.0333 9.39302 7.0333 9.39166 7.0333C9.39031 7.0333 9.38895 7.0333 9.38759 7.0333C9.38623 7.0333 9.38488 7.0333 9.38352 7.0333C9.38216 7.0333 9.3808 7.0333 9.37944 7.0333C9.37808 7.0333 9.37672 7.0333 9.37536 7.0333C9.374 7.0333 9.37264 7.0333 9.37127 7.0333C9.36991 7.0333 9.36855 7.0333 9.36719 7.0333C9.36582 7.0333 9.36446 7.0333 9.3631 7.0333C9.36173 7.0333 9.36037 7.0333 9.359 7.0333C9.35764 7.0333 9.35627 7.0333 9.3549 7.0333C9.35354 7.0333 9.35217 7.0333 9.3508 7.0333C9.34944 7.0333 9.34807 7.0333 9.3467 7.0333C9.34533 7.0333 9.34396 7.0333 9.34259 7.0333C9.34122 7.0333 9.33985 7.0333 9.33848 7.0333C9.33711 7.0333 9.33574 7.0333 9.33436 7.0333C9.33299 7.0333 9.33162 7.0333 9.33024 7.0333C9.32887 7.0333 9.3275 7.0333 9.32612 7.0333C9.32475 7.0333 9.32337 7.0333 9.322 7.0333C9.32062 7.0333 9.31924 7.0333 9.31787 7.0333C9.31649 7.0333 9.31511 7.0333 9.31373 7.0333C9.31235 7.0333 9.31097 7.0333 9.30959 7.0333C9.30821 7.0333 9.30683 7.0333 9.30545 7.0333C9.30407 7.0333 9.30269 7.0333 9.30131 7.0333C9.29992 7.0333 9.29854 7.0333 9.29716 7.0333C9.29577 7.0333 9.29439 7.0333 9.293 7.0333C9.29162 7.0333 9.29023 7.0333 9.28885 7.0333C9.28746 7.0333 9.28607 7.0333 9.28469 7.0333C9.2833 7.0333 9.28191 7.0333 9.28052 7.0333C9.27913 7.0333 9.27774 7.0333 9.27635 7.0333C9.27496 7.0333 9.27357 7.0333 9.27218 7.0333C9.27079 7.0333 9.26939 7.0333 9.268 7.0333C9.26661 7.0333 9.26521 7.0333 9.26382 7.0333C9.26242 7.0333 9.26103 7.0333 9.25963 7.0333C9.25824 7.0333 9.25684 7.0333 9.25544 7.0333C9.25405 7.0333 9.25265 7.0333 9.25125 7.0333C9.24985 7.0333 9.24845 7.0333 9.24705 7.0333C9.24565 7.0333 9.24425 7.0333 9.24285 7.0333C9.24145 7.0333 9.24004 7.0333 9.23864 7.0333C9.23724 7.0333 9.23583 7.0333 9.23443 7.0333C9.23302 7.0333 9.23162 7.0333 9.23021 7.0333C9.2288 7.0333 9.2274 7.0333 9.22599 7.0333C9.22458 7.0333 9.22317 7.0333 9.22176 7.0333C9.22036 7.0333 9.21895 7.0333 9.21754 7.0333C9.21612 7.0333 9.21471 7.0333 9.2133 7.0333C9.21189 7.0333 9.21048 7.0333 9.20906 7.0333C9.20765 7.0333 9.20623 7.0333 9.20482 7.0333C9.2034 7.0333 9.20199 7.0333 9.20057 7.0333C9.19915 7.0333 9.19773 7.0333 9.19632 7.0333C9.1949 7.0333 9.19348 7.0333 9.19206 7.0333C9.19064 7.0333 9.18922 7.0333 9.1878 7.0333C9.18637 7.0333 9.18495 7.0333 9.18353 7.0333C9.1821 7.0333 9.18068 7.0333 9.17926 7.0333C9.17783 7.0333 9.17641 7.0333 9.17498 7.0333C9.17355 7.0333 9.17212 7.0333 9.1707 7.0333C9.16927 7.0333 9.16784 7.0333 9.16641 7.0333C9.16498 7.0333 9.16355 7.0333 9.16212 7.0333C9.16069 7.0333 9.15925 7.0333 9.15782 7.0333C9.15639 7.0333 9.15495 7.0333 9.15352 7.0333C9.15208 7.0333 9.15065 7.0333 9.14921 7.0333C9.14777 7.0333 9.14634 7.0333 9.1449 7.0333C9.14346 7.0333 9.14202 7.0333 9.14058 7.0333C9.13914 7.0333 9.1377 7.0333 9.13626 7.0333C9.13482 7.0333 9.13337 7.0333 9.13193 7.0333C9.13049 7.0333 9.12904 7.0333 9.1276 7.0333C9.12615 7.0333 9.12471 7.0333 9.12326 7.0333C9.12181 7.0333 9.12036 7.0333 9.11892 7.0333C9.11747 7.0333 9.11602 7.0333 9.11457 7.0333C9.11312 7.0333 9.11166 7.0333 9.11021 7.0333C9.10876 7.0333 9.10731 7.0333 9.10585 7.0333C9.1044 7.0333 9.10294 7.0333 9.10149 7.0333C9.10003 7.0333 9.09857 7.0333 9.09712 7.0333C9.09566 7.0333 9.0942 7.0333 9.09274 7.0333C9.09128 7.0333 9.08982 7.0333 9.08836 7.0333C9.0869 7.0333 9.08543 7.0333 9.08397 7.0333C9.08251 7.0333 9.08104 7.0333 9.07958 7.0333C9.07811 7.0333 9.07664 7.0333 9.07518 7.0333C9.07371 7.0333 9.07224 7.0333 9.07077 7.0333C9.0693 7.0333 9.06783 7.0333 9.06636 7.0333C9.06489 7.0333 9.06342 7.0333 9.06195 7.0333C9.06047 7.0333 9.059 7.0333 9.05752 7.0333C9.05605 7.0333 9.05457 7.0333 9.0531 7.0333C9.05162 7.0333 9.05014 7.0333 9.04866 7.0333C9.04718 7.0333 9.04571 7.0333 9.04422 7.0333C9.04274 7.0333 9.04126 7.0333 9.03978 7.0333C9.0383 7.0333 9.03681 7.0333 9.03533 7.0333C9.03384 7.0333 9.03236 7.0333 9.03087 7.0333C9.02938 7.0333 9.0279 7.0333 9.02641 7.0333C9.02492 7.0333 9.02343 7.0333 9.02194 7.0333C9.02045 7.0333 9.01896 7.0333 9.01746 7.0333C9.01597 7.0333 9.01448 7.0333 9.01298 7.0333C9.01149 7.0333 9.00999 7.0333 9.00849 7.0333C9.007 7.0333 9.0055 7.0333 9.004 7.0333C9.0025 7.0333 9.001 7.0333 8.9995 7.0333C8.998 7.0333 8.9965 7.0333 8.99499 7.0333C8.99349 7.0333 8.99198 7.0333 8.99048 7.0333C8.98897 7.0333 8.98747 7.0333 8.98596 7.0333C8.98445 7.0333 8.98294 7.0333 8.98144 7.0333C8.97993 7.0333 8.97841 7.0333 8.9769 7.0333C8.97539 7.0333 8.97388 7.0333 8.97236 7.0333C8.97085 7.0333 8.96934 7.0333 8.96782 7.0333C8.9663 7.0333 8.96479 7.0333 8.96327 7.0333C8.96175 7.0333 8.96023 7.0333 8.95871 7.0333C8.95719 7.0333 8.95567 7.0333 8.95415 7.0333C8.95262 7.0333 8.9511 7.0333 8.94958 7.0333C8.94805 7.0333 8.94653 7.0333 8.945 7.0333C8.94347 7.0333 8.94194 7.0333 8.94041 7.0333C8.93888 7.0333 8.93735 7.0333 8.93582 7.0333C8.93429 7.0333 8.93276 7.0333 8.93123 7.0333C8.92969 7.0333 8.92816 7.0333 8.92662 7.0333C8.92508 7.0333 8.92355 7.0333 8.92201 7.0333C8.92047 7.0333 8.91893 7.0333 8.91739 7.0333C8.91585 7.0333 8.91431 7.0333 8.91277 7.0333C8.91122 7.0333 8.90968 7.0333 8.90813 7.0333C8.90659 7.0333 8.90504 7.0333 8.9035 7.0333C8.90195 7.0333 8.9004 7.0333 8.89885 7.0333C8.8973 7.0333 8.89575 7.0333 8.8942 7.0333C8.89265 7.0333 8.89109 7.0333 8.88954 7.0333C8.88798 7.0333 8.88643 7.0333 8.88487 7.0333C8.88331 7.0333 8.88176 7.0333 8.8802 7.0333C8.87864 7.0333 8.87708 7.0333 8.87552 7.0333C8.87395 7.0333 8.87239 7.0333 8.87083 7.0333C8.86926 7.0333 8.8677 7.0333 8.86613 7.0333C8.86456 7.0333 8.863 7.0333 8.86143 7.0333C8.85986 7.0333 8.85829 7.0333 8.85672 7.0333C8.85515 7.0333 8.85357 7.0333 8.852 7.0333C8.85043 7.0333 8.84885 7.0333 8.84728 7.0333C8.8457 7.0333 8.84412 7.0333 8.84254 7.0333C8.84097 7.0333 8.83939 7.0333 8.8378 7.0333C8.83622 7.0333 8.83464 7.0333 8.83306 7.0333C8.83147 7.0333 8.82989 7.0333 8.8283 7.0333C8.82672 7.0333 8.82513 7.0333 8.82354 7.0333C8.82195 7.0333 8.82036 7.0333 8.81877 7.0333C8.81718 7.0333 8.81559 7.0333 8.81399 7.0333C8.8124 7.0333 8.81081 7.0333 8.80921 7.0333C8.80761 7.0333 8.80602 7.0333 8.80442 7.0333C8.80282 7.0333 8.80122 7.0333 8.79962 7.0333C8.79802 7.0333 8.79641 7.0333 8.79481 7.0333C8.79321 7.0333 8.7916 7.0333 8.78999 7.0333C8.78839 7.0333 8.78678 7.0333 8.78517 7.0333C8.78356 7.0333 8.78195 7.0333 8.78034 7.0333C8.77873 7.0333 8.77712 7.0333 8.7755 7.0333C8.77389 7.0333 8.77227 7.0333 8.77065 7.0333C8.76904 7.0333 8.76742 7.0333 8.7658 7.0333C8.76418 7.0333 8.76256 7.0333 8.76094 7.0333C8.75932 7.0333 8.75769 7.0333 8.75607 7.0333C8.75444 7.0333 8.75282 7.0333 8.75119 7.0333C8.74956 7.0333 8.74793 7.0333 8.7463 7.0333C8.74467 7.0333 8.74304 7.0333 8.74141 7.0333C8.73977 7.0333 8.73814 7.0333 8.7365 7.0333C8.73487 7.0333 8.73323 7.0333 8.73159 7.0333C8.72995 7.0333 8.72831 7.0333 8.72667 7.0333C8.72503 7.0333 8.72339 7.0333 8.72175 7.0333C8.7201 7.0333 8.71846 7.0333 8.71681 7.0333C8.71516 7.0333 8.71352 7.0333 8.71187 7.0333C8.71022 7.0333 8.70857 7.0333 8.70691 7.0333C8.70526 7.0333 8.70361 7.0333 8.70195 7.0333C8.7003 7.0333 8.69864 7.0333 8.69698 7.0333C8.69533 7.0333 8.69367 7.0333 8.69201 7.0333C8.69035 7.0333 8.68868 7.0333 8.68702 7.0333C8.68536 7.0333 8.68369 7.0333 8.68203 7.0333C8.68036 7.0333 8.67869 7.0333 8.67702 7.0333C8.67535 7.0333 8.67368 7.0333 8.67201 7.0333C8.67034 7.0333 8.66867 7.0333 8.66699 7.0333V8.5333ZM8.66699 16.9736H9.76487V15.4736H8.66699V16.9736ZM9.76487 16.9736H10.8627V15.4736H9.76487V16.9736Z" fill="white"/>
<path d="M12.0399 20.4335C7.38211 20.4335 3.60645 16.6578 3.60645 12C3.60645 7.34219 7.38211 3.56653 12.0399 3.56653C16.6977 3.56653 20.4734 7.34219 20.4734 12C20.4734 16.6578 16.6977 20.4335 12.0399 20.4335Z" stroke="white" stroke-width="1.5" stroke-linecap="round" stroke-linejoin="round"/>
</svg>
