<svg width="24" height="24" viewBox="0 0 24 24" fill="none" xmlns="http://www.w3.org/2000/svg">
<path fill-rule="evenodd" clip-rule="evenodd" d="M12 13.252L12.022 13.226C13.273 14.443 15.077 15.857 16.642 15.857C17.1534 15.8623 17.6609 15.7667 18.1353 15.5756C18.6098 15.3845 19.0418 15.1018 19.4069 14.7435C19.7719 14.3853 20.0627 13.9586 20.2626 13.4878C20.4626 13.017 20.5677 12.5114 20.572 12C20.572 9.87001 18.814 8.14301 16.642 8.14301C14.979 8.14301 13.342 9.37701 12 10.749V13.252ZM16.586 14.297C17.923 14.297 19.007 13.269 19.007 12C19.007 10.732 17.923 9.70301 16.582 9.70301C15.24 9.70301 13.933 10.946 13.016 12C13.624 12.686 15.244 14.297 16.582 14.297H16.586Z" fill="white"/>
<path fill-rule="evenodd" clip-rule="evenodd" d="M12.0517 13.303L11.9657 13.217C10.7527 14.422 8.96571 15.857 7.35871 15.857C6.84728 15.8623 6.33982 15.7667 5.86539 15.5756C5.39096 15.3845 4.95886 15.1018 4.59383 14.7435C4.2288 14.3853 3.938 13.9586 3.73808 13.4878C3.53815 13.017 3.43302 12.5114 3.42871 12C3.42871 9.87001 5.18571 8.14301 7.35871 8.14301C9.04671 8.14301 10.6157 9.47601 11.9357 10.899L12.0517 10.779V13.303ZM7.41371 14.297C6.07271 14.297 4.98971 13.27 4.98971 12C4.98971 10.732 6.07371 9.70301 7.41471 9.70301C8.75671 9.70301 10.0637 10.946 10.9807 12C10.3727 12.686 8.75171 14.297 7.41371 14.297Z" fill="white"/>
<path d="M10.8175 11.859L10.9205 11.949L11.9705 13.286C13.2045 14.439 15.0045 15.857 16.6425 15.857C17.5458 15.8638 18.4236 15.5576 19.1267 14.9905C19.8298 14.4234 20.3149 13.6303 20.4995 12.746C20.1645 13.35 18.9995 14.297 16.9165 14.276C16.8056 14.2892 16.6941 14.2962 16.5825 14.297C15.2405 14.297 13.6245 12.686 13.0165 12L13.0295 11.983L11.7645 10.462L10.5005 9.26198C9.49047 8.48998 8.44347 8.00598 7.29447 8.00598C5.35347 8.00598 3.79347 9.54898 3.48047 11.392C4.34647 9.82298 6.21047 9.31698 7.84747 9.74998C8.91947 9.93398 9.84947 10.787 10.8175 11.859Z" fill="white"/>
</svg>
