<svg width="24" height="24" viewBox="0 0 24 24" fill="none" xmlns="http://www.w3.org/2000/svg">
<g clip-path="url(#clip0_4475_17945)">
<path d="M17.9026 6.68655L17.9028 6.68664C18.8986 7.26841 19.5048 8.33818 19.5048 9.49036V14.5072C19.5048 15.6605 18.8952 16.7293 17.9037 17.3104L17.9029 17.3109L13.6096 19.8201L17.9026 6.68655ZM17.9026 6.68655L13.6096 4.18C13.6094 4.17987 13.6092 4.17974 13.6089 4.17961C12.6147 3.59719 11.3852 3.59719 10.391 4.17963C10.3907 4.17975 10.3905 4.17987 10.3903 4.18L6.09734 6.68655L6.09627 6.68718M17.9026 6.68655L6.09627 6.68718M6.09627 6.68718C5.10476 7.26831 4.49512 8.33702 4.49512 9.49036V14.5072C4.49512 15.6605 5.10476 16.7293 6.09627 17.3104L6.09706 17.3109M6.09627 6.68718L6.09706 17.3109M6.09706 17.3109L10.3903 19.8201L6.09706 17.3109ZM10.3911 19.8205C11.3853 20.4028 12.6146 20.4028 13.6088 19.8205H10.3911Z" stroke="white" stroke-width="1.5"/>
<path d="M14.0328 15.0743L14.0328 15.0743L14.0315 15.0767C13.9441 15.2311 13.7839 15.3232 13.6119 15.3232H10.3919C10.2199 15.3232 10.0597 15.2311 9.97229 15.0767L9.97229 15.0766L9.97067 15.0738L8.36073 12.2577C8.36052 12.2573 8.36031 12.257 8.3601 12.2566C8.27055 12.0975 8.27059 11.9022 8.36022 11.7431L9.96788 8.92558L9.96788 8.92558L9.96919 8.92328C10.0566 8.76884 10.2168 8.67676 10.3888 8.67676H13.6057C13.7777 8.67676 13.9379 8.76884 14.0253 8.92328L14.0253 8.92328L14.0266 8.92558L15.6351 11.7445L15.635 11.7445L15.6382 11.75C15.7288 11.9058 15.7301 12.0977 15.6405 12.2568C15.6403 12.2571 15.6401 12.2574 15.6399 12.2577L14.0328 15.0743Z" stroke="white" stroke-width="1.5"/>
</g>
<defs>
<clipPath id="clip0_4475_17945">
<rect width="18" height="20" fill="white" transform="translate(3 2)"/>
</clipPath>
</defs>
</svg>
