<svg width="24" height="24" viewBox="0 0 24 24" fill="none" xmlns="http://www.w3.org/2000/svg">
<path d="M12.0004 2.98883C13.7951 2.98883 15.2504 3.83513 15.2504 4.87892C15.2504 5.92272 13.7951 6.76902 12.0004 6.76902C10.2056 6.76902 8.75033 5.92272 8.75033 4.87892C8.75033 3.83513 10.2056 2.98883 12.0004 2.98883ZM12.0004 17.231C13.7951 17.231 15.2504 18.0773 15.2504 19.1211C15.2504 20.1649 13.7951 21.0112 12.0004 21.0112C10.2056 21.0112 8.75033 20.1649 8.75033 19.1211C8.75033 18.0773 10.2056 17.231 12.0004 17.231ZM4.19519 7.49442C5.0918 5.93999 6.55386 5.10345 7.45873 5.62535C8.3636 6.14725 8.36886 7.83083 7.4715 9.38526C6.57414 10.9397 5.11282 11.7747 4.2087 11.2543C3.30458 10.7339 3.29782 9.04884 4.19519 7.49442ZM16.5307 14.6155C17.4318 13.0611 18.8879 12.2245 19.792 12.7464C20.6961 13.2683 20.7014 14.9512 19.804 16.5056C18.9067 18.06 17.4461 18.8973 16.542 18.3754C15.6379 17.8535 15.6326 16.1699 16.5307 14.6155ZM4.2087 12.7457C5.11357 12.22 6.57414 13.0603 7.47225 14.6147C8.37036 16.1692 8.3636 17.852 7.45873 18.3747C6.55386 18.8973 5.0918 18.06 4.19594 16.5056C3.30008 14.9512 3.30458 13.2683 4.2087 12.7457ZM16.5427 5.6261C17.4439 5.1042 18.9074 5.94074 19.8048 7.49517C20.7021 9.04959 20.6969 10.7324 19.7928 11.2551C18.8886 11.7777 17.4288 10.9397 16.5315 9.38526C15.6341 7.83083 15.6394 6.148 16.5427 5.6261Z" fill="white"/>
</svg>
