<svg width="24" height="24" viewBox="0 0 24 24" fill="none" xmlns="http://www.w3.org/2000/svg">
<path d="M17.2695 8.41266C17.169 8.50511 17.0378 8.55709 16.9012 8.55858H3.96998C3.51105 8.55858 3.27923 8.03375 3.59696 7.72662L5.72098 5.67908C5.8197 5.58378 5.95093 5.52952 6.08812 5.52728H19.07C19.5336 5.52728 19.7607 6.05682 19.4383 6.36513L17.2695 8.41266ZM17.2695 18.5044C17.1683 18.5952 17.0372 18.6454 16.9012 18.6456H3.96998C3.51105 18.6456 3.27923 18.1255 3.59696 17.8184L5.72098 15.765C5.81995 15.6708 5.9515 15.6185 6.08812 15.619H19.07C19.5336 15.619 19.7607 16.1439 19.4383 16.451L17.2695 18.5044ZM17.2695 10.7167C17.1683 10.626 17.0372 10.5757 16.9012 10.5755H3.96998C3.51105 10.5755 3.27923 11.0956 3.59696 11.4028L5.72098 13.4562C5.82122 13.5484 5.95195 13.6003 6.08812 13.6021H19.07C19.5336 13.6021 19.7607 13.0773 19.4383 12.7701L17.2695 10.7167Z" fill="white"/>
</svg>
