<svg width="24" height="24" viewBox="0 0 24 24" fill="none" xmlns="http://www.w3.org/2000/svg">
<path d="M4 6C4 5.46957 4.21071 4.96086 4.58579 4.58579C4.96086 4.21071 5.46957 4 6 4H18C18.5304 4 19.0391 4.21071 19.4142 4.58579C19.7893 4.96086 20 5.46957 20 6V8C20 8.53043 19.7893 9.03914 19.4142 9.41421C19.0391 9.78929 18.5304 10 18 10H6C5.46957 10 4.96086 9.78929 4.58579 9.41421C4.21071 9.03914 4 8.53043 4 8V6ZM4 16C4 15.4696 4.21071 14.9609 4.58579 14.5858C4.96086 14.2107 5.46957 14 6 14H18C18.5304 14 19.0391 14.2107 19.4142 14.5858C19.7893 14.9609 20 15.4696 20 16V18C20 18.5304 19.7893 19.0391 19.4142 19.4142C19.0391 19.7893 18.5304 20 18 20H6C5.46957 20 4.96086 19.7893 4.58579 19.4142C4.21071 19.0391 4 18.5304 4 18V16Z" stroke="#F2F2F7" stroke-width="2" stroke-linecap="round" stroke-linejoin="round"/>
</svg>
