<svg width="24" height="24" viewBox="0 0 24 24" fill="none" xmlns="http://www.w3.org/2000/svg">
<path d="M13.5 6.5L17.5 10.5M4 20H8L18.5 9.5C18.7626 9.23735 18.971 8.92555 19.1131 8.58239C19.2553 8.23923 19.3284 7.87143 19.3284 7.5C19.3284 7.12856 19.2553 6.76077 19.1131 6.4176C18.971 6.07444 18.7626 5.76264 18.5 5.5C18.2374 5.23735 17.9256 5.02901 17.5824 4.88687C17.2392 4.74473 16.8714 4.67157 16.5 4.67157C16.1286 4.67157 15.7608 4.74473 15.4176 4.88687C15.0744 5.02901 14.7626 5.23735 14.5 5.5L4 16V20Z" stroke="white" stroke-width="2" stroke-linecap="round" stroke-linejoin="round"/>
</svg>
