<svg width="24" height="24" viewBox="0 0 24 24" fill="none" xmlns="http://www.w3.org/2000/svg">
<path d="M2.09137 12.4817C2.75519 11.7852 3.54559 11.2521 4.40585 10.9069M2.09137 12.4817C1.86778 12.7163 1.66186 12.966 1.47449 13.2285M2.09137 12.4817C1.86558 12.7187 1.6637 12.9634 1.47449 13.2285M2.09137 12.4817C2.43929 12.1167 2.77554 11.7479 3.18418 11.4751L3.18562 11.4743L4.40585 10.9069M4.40585 10.9069L3.47528 9.93071L3.47411 9.92925C3.16952 9.47745 2.94679 8.96604 2.8216 8.42007M4.40585 10.9069C3.64135 10.3033 3.04541 9.39613 2.8216 8.42007M4.40585 10.9069C4.40585 10.8946 4.41533 10.9144 4.40585 10.9069ZM4.40585 10.9069L5.41814 11.0264M4.40585 10.9069C4.41693 10.9025 4.40585 10.9192 4.40585 10.9069ZM1.47449 13.2285C1.21869 13.5868 1.04695 13.9917 1.01499 14.4385C0.982986 14.8858 1.09847 15.272 1.25213 15.5788M1.47449 13.2285C0.885359 14.0537 0.885472 14.8467 1.25213 15.5788M1.25213 15.5788C1.6075 16.2884 2.32453 16.8731 3.19773 17.1613M1.25213 15.5788C1.61734 16.308 2.31225 16.8691 3.19773 17.1613M3.19773 17.1613C3.19773 17.1578 3.19773 17.1662 3.19773 17.1613ZM3.19773 17.1613C3.20113 17.1613 3.19308 17.1613 3.19773 17.1613ZM2.8216 8.42007C2.59424 7.42859 2.70276 6.385 3.12853 5.46829M2.8216 8.42007C2.59778 7.44401 2.70938 6.37074 3.12853 5.46829M3.12853 5.46829C3.5543 4.55157 4.2708 3.81886 5.15514 3.39581M3.12853 5.46829C3.54768 4.56584 4.28457 3.81227 5.15514 3.39581M5.15514 3.39581C6.03949 2.97275 7.03657 2.88574 7.97537 3.14968M5.15514 3.39581C6.02571 2.97934 7.0512 2.88985 7.97537 3.14968M7.97537 3.14968C7.97537 3.14492 7.97807 3.14968 7.97537 3.14968ZM7.97537 3.14968C7.97537 3.14613 7.97537 3.15443 7.97537 3.14968ZM7.97537 3.14968C7.97991 3.14968 7.97537 3.15251 7.97537 3.14968ZM7.97537 3.14968C7.97876 3.14968 7.97084 3.14968 7.97537 3.14968ZM22.5255 13.2285C22.7813 13.5868 22.953 13.9917 22.985 14.4385C23.017 14.8858 22.9015 15.272 22.7479 15.5788M22.5255 13.2285C23.1146 14.0537 23.1145 14.8467 22.7479 15.5788M22.5255 13.2285C22.3363 12.9634 22.1805 12.6703 21.9547 12.4334M22.5255 13.2285C22.3381 12.966 22.1783 12.668 21.9547 12.4334M22.7479 15.5788C22.3925 16.2884 21.6755 16.8731 20.8023 17.1613M22.7479 15.5788C22.3827 16.308 21.6877 16.8691 20.8023 17.1613M20.8023 17.1613C20.8023 17.1578 20.8023 17.1662 20.8023 17.1613ZM20.8023 17.1613C20.7989 17.1613 20.8069 17.1613 20.8023 17.1613ZM21.9547 12.4334C21.2909 11.7369 20.7569 11.2073 19.8967 10.8621M19.8967 10.8621C20.6612 10.2585 20.9546 9.39613 21.1784 8.42007M19.8967 10.8621C19.8872 10.8696 19.5735 10.8675 19.5735 10.8798M19.8967 10.8621C19.8856 10.8577 19.5735 10.8921 19.5735 10.8798M21.1784 8.42007C21.4058 7.42859 21.2972 6.385 20.8715 5.46829M21.1784 8.42007C21.4022 7.44401 21.2906 6.37074 20.8715 5.46829M20.8715 5.46829C20.4457 4.55158 19.7292 3.81886 18.8449 3.39581M20.8715 5.46829C20.4523 4.56584 19.7154 3.81227 18.8449 3.39581M18.8449 3.39581C17.9605 2.97275 16.9634 2.88574 16.0246 3.14968M18.8449 3.39581C17.9743 2.97935 16.9488 2.88985 16.0246 3.14968M16.0246 3.14968C16.0246 3.14492 16.0219 3.14968 16.0246 3.14968ZM16.0246 3.14968C16.0246 3.14613 16.0246 3.15443 16.0246 3.14968ZM16.0246 3.14968C16.0201 3.14968 16.0246 3.15251 16.0246 3.14968ZM16.0246 3.14968C16.0212 3.14968 16.0292 3.14968 16.0246 3.14968ZM19.5735 10.8798L18.5481 11.0314M9.00081 14.7047C8.36942 15.0376 7.78669 15.4766 7.2776 16.0107M9.22307 12.9211C8.35702 12.1148 7.81373 10.9416 7.81373 9.634M7.81373 9.634C7.81373 7.20808 9.68803 5.24145 12.0001 5.24145M7.81373 9.634C7.81373 7.24579 9.72407 5.24145 12.0001 5.24145M7.81373 9.634C7.81373 12.0222 9.7241 14.0266 12.0002 14.0266M12.0001 5.24145C14.3122 5.24145 16.1865 7.20808 16.1865 9.634M12.0001 5.24145C14.2762 5.24145 16.1865 7.24579 16.1865 9.634M16.1865 9.634C16.1865 10.9416 15.6433 12.1148 14.7772 12.9211M16.1865 9.634C16.1865 12.0222 14.2762 14.0266 12.0002 14.0266M14.9995 14.7046C15.6309 15.0376 16.2136 15.4766 16.7227 16.0107M16.7227 16.0107C16.9485 16.2476 17.1565 16.4998 17.3457 16.7648M16.7227 16.0107C16.9463 16.2453 17.1583 16.5024 17.3457 16.7648M16.7227 16.0107C15.4824 14.7094 13.7542 14.0266 12.0002 14.0266M17.3457 16.7648C17.7037 17.2663 17.8464 17.7832 17.8204 18.2764M17.3457 16.7648C17.6958 17.2553 17.8454 17.8014 17.8204 18.2764M17.8204 18.2764C17.7945 18.7692 17.6003 19.2365 17.2873 19.6402M17.8204 18.2764C17.7954 18.7516 17.5937 19.245 17.2873 19.6402M17.2873 19.6402C16.6626 20.4459 15.563 21 14.3738 21M17.2873 19.6402C16.6762 20.4283 15.5455 21 14.3738 21M14.3738 21H9.62655M9.62655 21C8.43729 21 7.33776 20.4459 6.71302 19.6402M9.62655 21C8.45483 21 7.32412 20.4283 6.71302 19.6402M6.71302 19.6402C6.40001 19.2365 6.2058 18.7692 6.17987 18.2764M6.71302 19.6402C6.4066 19.245 6.20488 18.7516 6.17987 18.2764M6.17987 18.2764C6.15391 17.7832 6.29662 17.2663 6.65465 16.7648M6.17987 18.2764C6.15487 17.8014 6.3045 17.2553 6.65465 16.7648M6.65465 16.7648C6.84386 16.4998 7.05181 16.2476 7.2776 16.0107M6.65465 16.7648C6.84201 16.5024 7.05401 16.2453 7.2776 16.0107M7.2776 16.0107C8.51788 14.7094 10.2462 14.0266 12.0002 14.0266M10.3516 13.9923C10.3584 13.9887 10.3596 13.9792 10.354 13.9739M13.6463 13.9739C13.6407 13.9792 13.6419 13.9887 13.6487 13.9923" stroke="white" stroke-width="1.8" stroke-linecap="round" stroke-linejoin="round"/>
</svg>
