<svg width="56" height="56" viewBox="0 0 56 56" fill="none" xmlns="http://www.w3.org/2000/svg">
<rect width="56" height="56" rx="28" fill="#292929" fill-opacity="0.95"/>
<path fill-rule="evenodd" clip-rule="evenodd" d="M13 19.5L28.0006 11L43 19.5V36.5L28.0006 45L13 36.5V19.5ZM28.0006 42.875L41.1248 35.437V20.5619L28.0006 13.125L14.8752 20.5619V35.437L28.0006 42.875ZM28.1698 27.3619C27.7419 26.5996 27.1134 25.9639 26.3499 25.5213C25.5709 25.0713 24.6812 24.8389 23.7773 24.8492C23.0027 24.8404 22.2373 25.0141 21.5453 25.3558C20.8816 25.6808 20.3071 26.1573 19.8698 26.7453V21.3518C19.8734 21.2565 19.8569 21.1615 19.8214 21.0727C19.7858 20.984 19.732 20.9033 19.6633 20.8359C19.5946 20.7685 19.5125 20.7157 19.4221 20.6808C19.3316 20.6459 19.2349 20.6297 19.1378 20.6333C19.0424 20.6297 18.9474 20.646 18.8588 20.6809C18.7703 20.7159 18.6903 20.7687 18.6239 20.8361C18.5579 20.9049 18.5064 20.986 18.4725 21.0745C18.4386 21.163 18.423 21.2573 18.4265 21.3518V25.4748C18.4119 25.5288 18.4056 25.5846 18.408 25.6403V29.9674C18.3966 30.8827 18.6329 31.7845 19.0927 32.5809C19.5347 33.3536 20.1831 33.9935 20.9679 34.4316C21.7766 34.8833 22.6933 35.1152 23.6237 35.1036C24.5541 35.1153 25.4708 34.8833 26.2795 34.4316C27.0625 33.9928 27.7095 33.3535 28.1513 32.582C28.6106 31.7855 28.8469 30.8837 28.836 29.9685C28.8479 29.0576 28.6183 28.1593 28.1698 27.3619ZM26.9319 31.928C26.6106 32.501 26.1374 32.9779 25.5625 33.3084H25.5648C25.1292 33.5566 24.648 33.7178 24.1487 33.7827C23.6494 33.8476 23.142 33.815 22.6557 33.6867C22.1693 33.5584 21.7136 33.337 21.3148 33.0352C20.9159 32.7334 20.5818 32.3571 20.3317 31.928C19.9956 31.3278 19.8241 30.6522 19.834 29.9674C19.8316 29.8138 19.8382 29.6601 19.8537 29.5072C19.8664 29.4779 19.8727 29.4462 19.8721 29.4143C19.9713 28.507 20.4089 27.6677 21.1007 27.0581C21.7909 26.446 22.6938 26.1167 23.6237 26.1379C24.3042 26.1313 24.9739 26.3047 25.5625 26.6399C26.1377 26.964 26.6114 27.4368 26.9319 28.0067C27.2575 28.6109 27.4277 29.2839 27.4277 29.9674C27.4277 30.6508 27.2575 31.3239 26.9319 31.928ZM37.5947 34.367C37.5947 34.7969 37.3761 35.0119 36.9388 35.0119H29.9737C29.5365 35.0119 29.3179 34.7969 29.3179 34.367C29.3044 34.2033 29.3506 34.0402 29.4484 33.9069L35.6017 26.2297H29.9033C29.4653 26.2297 29.2467 26.0151 29.2474 25.586C29.2482 25.1568 29.4668 24.9418 29.9033 24.9411H36.8626C37.2998 24.9411 37.5185 25.156 37.5185 25.586C37.5266 25.7576 37.4735 25.9268 37.3683 26.0642L31.2728 33.7233H36.9377C37.3757 33.7233 37.5947 33.9379 37.5947 34.367Z" fill="#EBEBEB"/>
</svg>
