<svg width="36" height="31" viewBox="0 0 36 31" fill="none" xmlns="http://www.w3.org/2000/svg">
<path d="M34.5669 6.11355L33.0131 5.49483C33.0176 5.49652 33.0227 5.49876 33.0272 5.501C32.9929 5.48642 32.9576 5.47408 32.9211 5.46454L23.4144 2.91734C22.7547 2.74064 21.9481 3.38572 21.6211 4.34996L15.1165 23.5452C14.8035 24.4685 15.0396 25.3637 15.6387 25.5932C15.6354 25.592 15.632 25.5909 15.6286 25.5898L17.1824 26.2085C17.2121 26.2203 17.243 26.2304 17.2744 26.2388L26.7811 28.786C27.4408 28.9627 28.2474 28.3176 28.5745 27.3528L35.0791 8.15759C35.3904 7.2399 35.1587 6.34914 34.5664 6.11298L34.5669 6.11355Z" fill="url(#paint0_linear_16_322)"/>
<path d="M32.9208 5.46462C33.5804 5.64131 33.8519 6.57527 33.5255 7.53952L27.0208 26.7347C26.6938 27.6995 25.8872 28.3446 25.2275 28.1679L15.7208 25.6207C15.0611 25.444 14.7896 24.5101 15.1167 23.5453L21.6207 4.34948C21.9472 3.38523 22.7544 2.74015 23.414 2.91685L32.9208 5.46406V5.46462Z" fill="url(#paint1_linear_16_322)"/>
<path d="M26.3343 1.72187L24.7604 1.01565C24.7637 1.01733 24.7665 1.01902 24.7699 1.0207C24.582 0.934316 24.3688 0.897294 24.14 0.921414L12.0125 2.19586C11.1711 2.28449 10.4228 3.16123 10.3488 4.14511L8.87803 23.7139C8.82305 24.442 9.15345 25.0321 9.66951 25.2542C9.6639 25.252 9.65773 25.2498 9.65212 25.2469L11.2261 25.9532C11.4112 26.0362 11.621 26.0715 11.8465 26.048L23.9739 24.7735C24.8153 24.6849 25.5636 23.8081 25.6377 22.8243L27.1084 3.25547C27.1623 2.53523 26.8403 1.94961 26.3338 1.72243L26.3343 1.72187Z" fill="url(#paint2_linear_16_322)"/>
<path d="M24.1399 0.921451C24.9813 0.832823 25.6084 1.5654 25.5349 2.54929L24.0641 22.1181C23.9901 23.1014 23.2418 23.9787 22.4004 24.0673L10.273 25.3418C9.43157 25.4304 8.80444 24.6978 8.87792 23.7139L10.3487 4.14515C10.4227 3.16183 11.171 2.28452 12.0124 2.1959L24.1399 0.921451Z" fill="url(#paint3_linear_16_322)"/>
<path d="M21.7297 25.8363L19.3261 6.29886C19.2543 5.71717 18.9194 5.25552 18.4623 5.01769L17.0431 4.28062C17.0465 4.2823 17.0493 4.28398 17.0526 4.28567C16.7363 4.11851 16.3605 4.05849 15.9723 4.14095L2.36792 7.03257C1.42386 7.23338 0.7513 8.20044 0.871902 9.18207L3.27551 28.7195C3.34731 29.3023 3.68275 29.7639 4.14103 30.0018C4.14103 30.0018 4.13991 30.0018 4.13991 30.0012L5.55908 30.7383C5.8732 30.9015 6.24566 30.9593 6.62991 30.8774L20.2337 27.9858C21.1772 27.7849 21.8503 26.8173 21.7297 25.8357V25.8363Z" fill="url(#paint4_linear_16_322)"/>
<path d="M15.9717 4.14004C16.9152 3.93923 17.7858 4.57869 17.907 5.56033L20.3111 25.0977C20.4317 26.0794 19.7592 27.047 18.8157 27.2478L5.21186 30.1394C4.26837 30.3402 3.39779 29.7002 3.27663 28.7186L0.871902 9.18117C0.7513 8.19953 1.42386 7.23192 2.36792 7.03166L15.9717 4.14004Z" fill="url(#paint5_linear_16_322)"/>
<path d="M16.9669 13.9316C16.7111 11.8527 15.5247 10.2103 13.8991 9.36555L12.683 8.73337C12.6931 8.73842 12.7026 8.74403 12.7127 8.74908C11.5869 8.15561 10.248 7.94526 8.85967 8.24031C5.48508 8.95775 3.10055 12.3856 3.53247 15.896C3.78825 17.977 4.97688 19.62 6.60471 20.4642C6.60303 20.4631 6.60135 20.4625 6.59966 20.462L7.81577 21.0942C8.9354 21.6758 10.2637 21.8795 11.6397 21.5867C15.0137 20.8698 17.3982 17.4419 16.9663 13.931L16.9669 13.9316Z" fill="url(#paint6_linear_16_322)"/>
<path d="M8.85966 8.24084C12.2337 7.52397 15.3188 9.78902 15.7508 13.2994C16.1827 16.8103 13.7976 20.2376 10.4241 20.955C7.04952 21.6724 3.96438 19.4074 3.53246 15.8965C3.10054 12.3862 5.48564 8.95828 8.85966 8.24084Z" fill="url(#paint7_linear_16_322)"/>
<defs>
<linearGradient id="paint0_linear_16_322" x1="32.6876" y1="24.0948" x2="24.0561" y2="12.206" gradientUnits="userSpaceOnUse">
<stop stop-color="#6A34D3"/>
<stop stop-color="#5B17DE"/>
<stop offset="1" stop-color="#FB308D"/>
</linearGradient>
<linearGradient id="paint1_linear_16_322" x1="16.3764" y1="34.1639" x2="30.0527" y2="-9.5341" gradientUnits="userSpaceOnUse">
<stop stop-color="#FFA110" stop-opacity="0"/>
<stop offset="1" stop-color="#FFA110"/>
</linearGradient>
<linearGradient id="paint2_linear_16_322" x1="25.2455" y1="24.1885" x2="18.1441" y2="9.44393" gradientUnits="userSpaceOnUse">
<stop stop-color="#6A34D3"/>
<stop stop-color="#5B17DE"/>
<stop offset="1" stop-color="#FB308D"/>
</linearGradient>
<linearGradient id="paint3_linear_16_322" x1="21.7111" y1="32.5141" x2="17.6585" y2="-17.0805" gradientUnits="userSpaceOnUse">
<stop stop-color="#FFA110" stop-opacity="0"/>
<stop offset="0.876374" stop-color="#FFA110"/>
</linearGradient>
<linearGradient id="paint4_linear_16_322" x1="20.8073" y1="28.6219" x2="10.8618" y2="13.2816" gradientUnits="userSpaceOnUse">
<stop stop-color="#5B17DE"/>
<stop stop-color="#6A34D3"/>
<stop offset="1" stop-color="#FB308D"/>
</linearGradient>
<linearGradient id="paint5_linear_16_322" x1="17.4824" y1="39.1499" x2="-7.56698" y2="-12.9735" gradientUnits="userSpaceOnUse">
<stop stop-color="#FFA110" stop-opacity="0"/>
<stop offset="0.74443" stop-color="#FFA110"/>
</linearGradient>
<linearGradient id="paint6_linear_16_322" x1="18.8195" y1="24.1327" x2="11.9298" y2="12.1484" gradientUnits="userSpaceOnUse">
<stop stop-color="#6A34D3"/>
<stop offset="0.0001" stop-color="#5B17DE"/>
<stop offset="1" stop-color="#FB308D"/>
</linearGradient>
<linearGradient id="paint7_linear_16_322" x1="15.5517" y1="21.0786" x2="3.41821" y2="12.4617" gradientUnits="userSpaceOnUse">
<stop stop-color="#FFA110" stop-opacity="0"/>
<stop offset="1" stop-color="#FFA110"/>
</linearGradient>
</defs>
</svg>
