<svg width="50" height="50" viewBox="0 0 50 50" fill="none" xmlns="http://www.w3.org/2000/svg">
<path fill-rule="evenodd" clip-rule="evenodd" d="M35.3954 7.15172L33.4319 6.26893L33.4368 6.27157C33.2519 6.18759 33.0471 6.14208 32.8284 6.14209C32.7725 6.14207 32.7156 6.14504 32.6579 6.15113L17.5293 7.74422C16.7195 7.82969 15.9788 8.5016 15.6402 9.36899C15.5399 9.6259 15.4748 9.89993 15.4537 10.1809L15.3401 11.6949L5.50332 13.7901C4.41534 14.0213 3.61641 15.0712 3.61964 16.1973C3.6199 16.2902 3.62562 16.3835 3.63708 16.477L6.63552 40.8992C6.72509 41.6277 7.14354 42.2048 7.71524 42.5021L9.48421 43.4228C9.87607 43.6268 10.3407 43.699 10.82 43.5967L27.7904 39.9821C28.3202 39.8691 28.7816 39.5619 29.1151 39.1464L35.9534 40.9824C36.7763 41.2032 37.7825 40.3969 38.1905 39.1908L46.3048 15.1964C46.6932 14.0492 46.4042 12.9357 45.6652 12.6405L45.6659 12.6412L43.7332 11.8701L43.7394 11.8728C43.7084 11.86 43.6765 11.8486 43.6439 11.8387L43.6124 11.8297V11.829L36.3012 9.86607L36.361 9.06875C36.4282 8.16843 36.0265 7.4364 35.3947 7.15242L35.3954 7.15172Z" stroke="#C5C5C5" stroke-width="2" stroke-linejoin="round" style="mix-blend-mode:soft-light"/>
<path d="M45.7093 12.6418L43.767 11.8684C43.7726 11.8705 43.7789 11.8733 43.7845 11.8761C43.7417 11.8578 43.6976 11.8424 43.652 11.8305L31.7683 8.64643C30.9437 8.42555 29.9354 9.23191 29.5267 10.4372L21.3957 34.4317C21.0045 35.5859 21.2997 36.705 22.0485 36.9918C22.0443 36.9903 22.0401 36.9889 22.0359 36.9875L23.9782 37.7609C24.0154 37.7757 24.0539 37.7883 24.0932 37.7988L35.9768 40.9829C36.8014 41.2038 37.8097 40.3974 38.2185 39.1914L46.3494 15.1969C46.7386 14.0497 46.449 12.9363 45.7086 12.6411L45.7093 12.6418Z" fill="#677BF0"/>
<path d="M43.6515 11.8306C44.4761 12.0515 44.8155 13.2189 44.4074 14.4243L36.2765 38.4188C35.8677 39.6248 34.8594 40.4312 34.0348 40.2103L22.1511 37.0262C21.3265 36.8053 20.9872 35.6379 21.396 34.4318L29.5262 10.4366C29.9343 9.2313 30.9433 8.42494 31.7679 8.64582L43.6515 11.8299V11.8306Z" fill="white"/>
<path d="M35.4176 7.15208L33.4501 6.26929C33.4543 6.2714 33.4578 6.2735 33.462 6.2756C33.2271 6.16762 32.9607 6.12134 32.6746 6.15149L17.515 7.74458C16.4632 7.85537 15.5279 8.95132 15.4353 10.1812L13.5968 34.6427C13.5281 35.5528 13.9411 36.2904 14.5862 36.5681C14.5792 36.5653 14.5714 36.5625 14.5644 36.559L16.532 37.4418C16.7633 37.5456 17.0256 37.5897 17.3075 37.5603L32.467 35.9672C33.5188 35.8564 34.4542 34.7605 34.5468 33.5306L36.3853 9.06912C36.4526 8.1688 36.0501 7.43676 35.4169 7.15278L35.4176 7.15208Z" fill="#677BF0"/>
<path d="M32.6745 6.15154C33.7262 6.04075 34.5102 6.9565 34.4183 8.18637L32.5798 32.6478C32.4872 33.877 31.5519 34.9737 30.5001 35.0845L15.3405 36.6775C14.2887 36.7883 13.5048 35.8726 13.5967 34.6427L15.4352 10.1812C15.5277 8.95206 16.4631 7.85541 17.5149 7.74463L32.6745 6.15154Z" fill="white"/>
<path d="M29.6621 37.2952L26.6575 12.873C26.5677 12.1458 26.1491 11.5688 25.5777 11.2715L23.8037 10.3501C23.8079 10.3522 23.8114 10.3543 23.8156 10.3564C23.4201 10.1475 22.9503 10.0724 22.4651 10.1755L5.45932 13.7901C4.27923 14.0411 3.43851 15.25 3.58927 16.477L6.59384 40.8993C6.68359 41.6278 7.1029 42.2049 7.67576 42.5022C7.67576 42.5022 7.67436 42.5022 7.67436 42.5015L9.44835 43.4228C9.84102 43.6269 10.3066 43.6991 10.7869 43.5967L27.792 39.9821C28.9714 39.7311 29.8128 38.5215 29.6621 37.2945V37.2952Z" fill="#677BF0"/>
<path d="M22.4644 10.1747C23.6438 9.92363 24.732 10.723 24.8835 11.9501L27.8888 36.3723C28.0395 37.5993 27.1988 38.8089 26.0194 39.0599L9.01432 42.6745C7.83493 42.9255 6.74669 42.1255 6.59524 40.8984L3.58927 16.4762C3.43851 15.2491 4.27923 14.0396 5.45932 13.7893L22.4644 10.1747Z" fill="white"/>
<path d="M23.7086 22.4146C23.3888 19.816 21.9058 17.7629 19.8738 16.707L18.3536 15.9167C18.3662 15.923 18.3782 15.9301 18.3908 15.9364C16.9835 15.1945 15.3098 14.9316 13.5744 15.3004C9.35604 16.1972 6.37531 20.4821 6.91522 24.8701C7.23496 27.4715 8.72077 29.5253 10.7556 30.5806C10.7535 30.5792 10.7514 30.5785 10.7493 30.5778L12.2695 31.368C13.669 32.0951 15.3294 32.3497 17.0494 31.9836C21.267 31.0875 24.2478 26.8026 23.7079 22.4139L23.7086 22.4146Z" fill="#677BF0"/>
<path d="M13.5743 15.3009C17.792 14.4048 21.6485 17.2362 22.1884 21.6242C22.7283 26.0129 19.7469 30.2971 15.5299 31.194C11.3116 32.0908 7.45512 29.2594 6.91521 24.8707C6.3753 20.4827 9.35673 16.1977 13.5743 15.3009Z" fill="white"/>
<path d="M13.6263 15.5455C17.6939 14.6812 21.4174 17.4055 21.9402 21.6547M13.6263 15.5455L21.9402 21.6547M13.6263 15.5455C9.54059 16.4142 6.63862 20.5756 7.16334 24.8402L6.91525 24.8707L7.16334 24.8402C7.68618 29.0901 11.4097 31.8143 15.4779 30.9494M13.6263 15.5455L15.4779 30.9494M21.9402 21.6547C22.465 25.92 19.563 30.0806 15.4779 30.9494M21.9402 21.6547L15.4779 30.9494" stroke="#677BF0" stroke-opacity="0.2" stroke-width="0.5"/>
</svg>
