<svg width="40" height="40" viewBox="0 0 40 40" fill="none" xmlns="http://www.w3.org/2000/svg">
<rect width="40" height="40" rx="12" fill="#8247E5"/>
<path d="M16.3069 22.4629C16.3069 24.5035 19.6146 26.1574 23.6957 26.1574C27.7769 26.1574 31.0846 24.5035 31.0846 22.4629M16.3069 22.4629C16.3069 20.4224 19.6146 18.7685 23.6957 18.7685C27.7769 18.7685 31.0846 20.4224 31.0846 22.4629M16.3069 22.4629V27.3888C16.3069 29.4282 19.6146 31.0833 23.6957 31.0833C27.7769 31.0833 31.0846 29.4282 31.0846 27.3888V22.4629M8.91797 12.6111C8.91797 13.9312 10.3268 15.1504 12.6124 15.8105C14.898 16.4705 17.7157 16.4705 20.0013 15.8105C22.2869 15.1504 23.6957 13.9312 23.6957 12.6111C23.6957 11.2909 22.2869 10.0718 20.0013 9.41168C17.7157 8.75161 14.898 8.75161 12.6124 9.41168C10.3268 10.0718 8.91797 11.2909 8.91797 12.6111ZM8.91797 12.6111V24.9259C8.91797 26.0194 9.86867 26.7115 11.3809 27.3888M8.91797 18.7685C8.91797 19.862 9.86867 20.5541 11.3809 21.2314" stroke="white" stroke-width="2" stroke-linecap="round" stroke-linejoin="round"/>
</svg>
