<svg width="21" height="20" viewBox="0 0 21 20" fill="none" xmlns="http://www.w3.org/2000/svg">
<g opacity="0.7">
<path d="M6.33203 8.05587C6.33203 7.46643 6.56619 6.90113 6.98299 6.48433C7.39979 6.06753 7.96509 5.83337 8.55453 5.83337H15.7762C16.0681 5.83337 16.3571 5.89086 16.6267 6.00255C16.8964 6.11424 17.1414 6.27795 17.3477 6.48433C17.5541 6.69071 17.7178 6.93571 17.8295 7.20536C17.9412 7.47501 17.9987 7.76401 17.9987 8.05587V15.2775C17.9987 15.5694 17.9412 15.8584 17.8295 16.1281C17.7178 16.3977 17.5541 16.6427 17.3477 16.8491C17.1414 17.0555 16.8964 17.2192 16.6267 17.3309C16.3571 17.4426 16.0681 17.5 15.7762 17.5H8.55453C8.26267 17.5 7.97366 17.4426 7.70402 17.3309C7.43437 17.2192 7.18936 17.0555 6.98299 16.8491C6.77661 16.6427 6.6129 16.3977 6.50121 16.1281C6.38952 15.8584 6.33203 15.5694 6.33203 15.2775V8.05587Z" stroke="white" stroke-width="2" stroke-linecap="round" stroke-linejoin="round"/>
<path d="M3.84333 13.9475C3.58779 13.8018 3.37523 13.5912 3.22715 13.3371C3.07906 13.0829 3.00071 12.7942 3 12.5V4.16667C3 3.25 3.75 2.5 4.66667 2.5H13C13.625 2.5 13.965 2.82083 14.25 3.33333" stroke="white" stroke-width="2" stroke-linecap="round" stroke-linejoin="round"/>
</g>
</svg>
