<svg width="40" height="40" viewBox="0 0 40 40" fill="none" xmlns="http://www.w3.org/2000/svg">
<rect width="40" height="40" rx="12" fill="#3BAF7E"/>
<path d="M20.0013 13.8426C19.3481 13.8426 18.7216 13.5831 18.2597 13.1212C17.7978 12.6593 17.5383 12.0328 17.5383 11.3796C17.5383 10.7264 17.7978 10.0999 18.2597 9.63801C18.7216 9.17612 19.3481 8.91663 20.0013 8.91663C20.6545 8.91663 21.281 9.17612 21.7429 9.63801C22.2048 10.0999 22.4643 10.7264 22.4643 11.3796C22.4643 12.0328 22.2048 12.6593 21.7429 13.1212C21.281 13.5831 20.6545 13.8426 20.0013 13.8426ZM20.0013 13.8426V18.7685M20.0013 18.7685C20.9811 18.7685 21.9208 19.1577 22.6137 19.8506C23.3065 20.5434 23.6957 21.4831 23.6957 22.4629C23.6957 23.4428 23.3065 24.3824 22.6137 25.0753C21.9208 25.7681 20.9811 26.1574 20.0013 26.1574C19.0215 26.1574 18.0818 25.7681 17.3889 25.0753C16.6961 24.3824 16.3069 23.4428 16.3069 22.4629C16.3069 21.4831 16.6961 20.5434 17.3889 19.8506C18.0818 19.1577 19.0215 18.7685 20.0013 18.7685ZM13.4745 27.1426L16.9226 24.6796M26.5282 27.1426L23.08 24.6796M8.91797 28.6203C8.91797 29.2735 9.17746 29.9 9.63935 30.3619C10.1012 30.8238 10.7277 31.0833 11.3809 31.0833C12.0342 31.0833 12.6606 30.8238 13.1225 30.3619C13.5844 29.9 13.8439 29.2735 13.8439 28.6203C13.8439 27.9671 13.5844 27.3406 13.1225 26.8788C12.6606 26.4169 12.0342 26.1574 11.3809 26.1574C10.7277 26.1574 10.1012 26.4169 9.63935 26.8788C9.17746 27.3406 8.91797 27.9671 8.91797 28.6203ZM26.1587 28.6203C26.1587 29.2735 26.4182 29.9 26.8801 30.3619C27.342 30.8238 27.9685 31.0833 28.6217 31.0833C29.2749 31.0833 29.9014 30.8238 30.3633 30.3619C30.8251 29.9 31.0846 29.2735 31.0846 28.6203C31.0846 27.9671 30.8251 27.3406 30.3633 26.8788C29.9014 26.4169 29.2749 26.1574 28.6217 26.1574C27.9685 26.1574 27.342 26.4169 26.8801 26.8788C26.4182 27.3406 26.1587 27.9671 26.1587 28.6203Z" stroke="white" stroke-width="2" stroke-linecap="round" stroke-linejoin="round"/>
</svg>
