<svg width="120" height="125" viewBox="0 0 120 125" fill="none" xmlns="http://www.w3.org/2000/svg">
<path fill-rule="evenodd" clip-rule="evenodd" d="M0 31.4967L60.0023 0.351562L120 31.4967V93.787L60.0023 124.932L0 93.787V31.4967ZM60.0023 117.146L112.499 89.8918V35.3878L60.0023 8.13785L7.50086 35.3878V89.8918L60.0023 117.146ZM60.679 60.3035C58.9674 57.5104 56.4536 55.1814 53.3998 53.5595C50.2835 51.9105 46.725 51.059 43.1092 51.097C40.0109 51.0645 36.9491 51.7011 34.1811 52.9533C31.5265 54.144 29.2283 55.89 27.4794 58.0445V38.2818C27.4936 37.9327 27.4275 37.5845 27.2855 37.2593C27.1433 36.9342 26.9282 36.6387 26.6533 36.3917C26.3785 36.1445 26.05 35.9511 25.6883 35.8233C25.3265 35.6955 24.9395 35.6362 24.551 35.6491C24.1696 35.636 23.7894 35.6957 23.4352 35.8237C23.0811 35.9518 22.761 36.1455 22.4957 36.3923C22.2314 36.6445 22.0256 36.9415 21.89 37.2659C21.7543 37.5901 21.6919 37.9355 21.7059 38.2818V53.3892C21.6474 53.5869 21.6225 53.7913 21.6321 53.9956V69.8505C21.5863 73.2043 22.5314 76.5088 24.3709 79.4266C26.1389 82.2582 28.7322 84.6027 31.8717 86.2079C35.1065 87.8629 38.7733 88.7129 42.495 88.6704C46.2165 88.7131 49.8833 87.8632 53.1181 86.2079C56.2502 84.6001 58.838 82.2576 60.6051 79.4308C62.4425 76.5122 63.3875 73.2082 63.344 69.8547C63.3916 66.517 62.4732 63.2256 60.679 60.3035ZM55.7276 77.0346C54.4423 79.1339 52.5496 80.8815 50.2498 82.0926H50.2591C48.5168 83.0019 46.5918 83.5926 44.5948 83.8304C42.5978 84.0683 40.5681 83.9488 38.6227 83.4786C36.6772 83.0085 34.8543 82.1971 33.2591 81.0913C31.6636 79.9854 30.3274 78.6067 29.3268 77.0346C27.9824 74.8353 27.2965 72.3598 27.3361 69.8505C27.3265 69.2876 27.3527 68.7247 27.4146 68.1645C27.4657 68.0569 27.4909 67.941 27.4885 67.824C27.8851 64.4994 29.6356 61.4242 32.4029 59.1906C35.1636 56.9476 38.7751 55.741 42.495 55.8186C45.2167 55.7947 47.8955 56.4301 50.2498 57.6583C52.5507 58.8459 54.4455 60.578 55.7276 62.6664C57.0299 64.88 57.7107 67.3463 57.7107 69.8505C57.7107 72.3548 57.0299 74.8211 55.7276 77.0346ZM98.3787 85.9714C98.3787 87.5466 97.5043 88.3342 95.7552 88.3342H67.895C66.1459 88.3342 65.2715 87.5466 65.2715 85.9714C65.2175 85.3715 65.4025 84.7739 65.7934 84.2853L90.4067 56.1551H67.6131C65.8611 56.1551 64.9866 55.3689 64.9897 53.7964C64.9928 52.2239 65.8673 51.4362 67.6131 51.4336H95.4505C97.1993 51.4336 98.0739 52.2211 98.0739 53.7964C98.1065 54.4255 97.8942 55.0452 97.4734 55.5488L73.091 83.6127H95.7506C97.5027 83.6127 98.3787 84.3989 98.3787 85.9714Z" fill="url(#paint0_linear_5675_28088)"/>
<defs>
<linearGradient id="paint0_linear_5675_28088" x1="-39.1304" y1="0.351564" x2="170.983" y2="129.691" gradientUnits="userSpaceOnUse">
<stop stop-color="#E79413"/>
<stop offset="0.465835" stop-color="#EA3E5B"/>
<stop offset="0.947212" stop-color="#FA0AF0"/>
</linearGradient>
</defs>
</svg>
