<svg width="40" height="40" viewBox="0 0 40 40" fill="none" xmlns="http://www.w3.org/2000/svg">
<rect width="40" height="40" rx="12" fill="#E2A612"/>
<path d="M27 9.5C27.9283 9.5 28.8185 9.89044 29.4749 10.5854C30.1313 11.2804 30.5 12.223 30.5 13.2059V23.0882C30.5 24.0711 30.1313 25.0137 29.4749 25.7087C28.8185 26.4037 27.9283 26.7941 27 26.7941H21.1667L15.3333 30.5V26.7941H13C12.0717 26.7941 11.1815 26.4037 10.5251 25.7087C9.86875 25.0137 9.5 24.0711 9.5 23.0882V13.2059C9.5 12.223 9.86875 11.2804 10.5251 10.5854C11.1815 9.89044 12.0717 9.5 13 9.5H27Z" stroke="white" stroke-width="2" stroke-linecap="round" stroke-linejoin="round"/>
</svg>
