<svg width="50" height="50" viewBox="0 0 50 50" fill="none" xmlns="http://www.w3.org/2000/svg">
<path fill-rule="evenodd" clip-rule="evenodd" d="M6.1863 17.8153L4.11087 18.8602C3.09857 19.3694 2.52922 20.5608 2.79181 21.821L5.74283 35.9981C6.06063 37.527 7.48276 38.5786 8.92084 38.3455L32.3277 34.5588C32.5756 34.5183 32.8124 34.441 33.0308 34.3318L35.1806 33.2496C35.1806 33.2496 35.1696 33.2545 35.1646 33.2569C35.561 33.0606 35.9009 32.7575 36.1475 32.3698L36.469 31.8643L37.7868 32.8385C38.3832 33.2803 39.1059 33.4643 39.7955 33.3527L43.0312 32.8287C43.2839 32.7882 43.5207 32.7097 43.7367 32.6017L45.8865 31.5195C45.88 31.5227 45.8726 31.5259 45.866 31.5291C46.8912 31.0252 47.4716 29.8262 47.208 28.5574L47.2057 28.5563C47.2057 28.5562 47.2057 28.5562 47.2057 28.5562L44.2547 14.379C43.9766 13.0412 42.852 12.0698 41.6126 12.0033C41.5019 11.9973 41.3903 11.9986 41.2784 12.0075C41.2112 12.0128 41.144 12.0208 41.0767 12.0317L41.0779 12.0305L37.8422 12.5544C37.5918 12.595 37.3529 12.6734 37.1319 12.7855C37.1334 12.7846 37.1349 12.7836 37.1365 12.7827L34.9867 13.8649C34.5965 14.0612 34.2628 14.3631 34.0198 14.7459L33.6996 15.2501L33.5711 15.1552L32.3805 14.2747C31.7842 13.8342 31.0627 13.6502 30.3719 13.7618L18.4108 15.6975L6.96634 17.5485C6.68408 17.594 6.42231 17.6857 6.1863 17.8153Z" stroke="#C5C5C5" stroke-width="2" stroke-linejoin="round" style="mix-blend-mode:soft-light"/>
<path d="M47.2055 28.5561L44.2545 14.3789C43.9367 12.85 42.5134 11.7997 41.0765 12.0316L37.8408 12.5555C37.5856 12.5973 37.3439 12.677 37.1193 12.7924C37.1254 12.7899 37.1304 12.7862 37.1365 12.7825L34.9867 13.8648C34.5965 14.0611 34.2628 14.363 34.0198 14.7458L33.6996 15.2501L32.3805 14.2746C31.7842 13.8341 31.0627 13.65 30.3719 13.7617L6.96618 17.5496C6.7085 17.5913 6.46678 17.6723 6.24714 17.7852C6.25204 17.7827 6.25573 17.7802 6.26063 17.7778L4.11087 18.86C3.09857 19.3693 2.52922 20.5607 2.79181 21.8209L5.74283 35.998C6.06063 37.5269 7.48276 38.5785 8.92084 38.3453L32.3277 34.5587C32.5756 34.5182 32.8124 34.4409 33.0308 34.3317L35.1806 33.2495C35.1806 33.2495 35.1696 33.2544 35.1646 33.2568C35.561 33.0605 35.9009 32.7574 36.1475 32.3697L36.469 31.8641L37.7868 32.8384C38.3832 33.2801 39.1059 33.4642 39.7955 33.3525L43.0312 32.8286C43.2839 32.7881 43.5207 32.7096 43.7367 32.6016L45.8865 31.5193C45.8791 31.523 45.8705 31.5267 45.8632 31.5304C46.8902 31.0273 47.4718 29.8273 47.208 28.5573L47.2055 28.5561Z" fill="#ED623D"/>
<path d="M41.071 12.0316C42.5079 11.7997 43.9312 12.85 44.249 14.3789L47.2001 28.5561C47.5178 30.0849 46.6111 31.5132 45.1742 31.7451L41.9385 32.2691C41.2489 32.3807 40.5262 32.1967 39.9299 31.7549L38.5053 30.7021C38.2599 30.5205 37.974 30.4567 37.7114 30.4985C37.4488 30.5402 37.2071 30.6911 37.0512 30.9365L36.142 32.3672C35.7629 32.9648 35.1616 33.3636 34.472 33.4752L11.0651 37.2619C9.62826 37.4938 8.20613 36.4434 7.8871 34.9145L4.93608 20.7374C4.61828 19.2085 5.52383 17.7802 6.96069 17.5483L30.3664 13.7629C31.0572 13.6513 31.7787 13.8353 32.375 14.2758L33.8021 15.3299C34.0475 15.5102 34.3321 15.5753 34.596 15.5323C34.8598 15.4894 35.1003 15.3409 35.2573 15.0943L36.1653 13.6635C36.5445 13.0648 37.147 12.666 37.8366 12.5543L41.0722 12.0304L41.071 12.0316ZM36.4586 21.6712L36.1985 20.4208C36.1297 20.0895 35.8181 19.8588 35.5076 19.9091C35.1972 19.9595 34.9972 20.2724 35.0671 20.6037L35.3273 21.854C35.396 22.1865 35.7076 22.416 36.0193 22.3657C36.331 22.3154 36.5285 22.0037 36.4598 21.6712M37.2157 25.3032L36.9555 24.0528C36.8868 23.7215 36.5752 23.4909 36.2647 23.5412C35.9543 23.5915 35.7543 23.9044 35.8242 24.2357L36.0843 25.486C36.1531 25.8185 36.4647 26.048 36.7764 25.9977C37.0881 25.9474 37.2856 25.6357 37.2169 25.3032M35.7052 18.0379L35.4451 16.7876C35.3763 16.4563 35.0647 16.2256 34.7542 16.2759C34.4438 16.3262 34.2438 16.6391 34.3137 16.9704L34.5739 18.2208C34.6426 18.5533 34.9542 18.7827 35.2659 18.7324C35.5776 18.6821 35.7751 18.3704 35.7064 18.0379M37.9752 28.9364L37.7151 27.6861C37.6464 27.3548 37.3359 27.1253 37.0243 27.1756C36.7126 27.226 36.5138 27.5376 36.5825 27.8689L36.8427 29.1193C36.9114 29.4506 37.2218 29.68 37.5347 29.6297C37.8476 29.5794 38.0439 29.2677 37.9752 28.9364Z" fill="white"/>
</svg>
