<svg width="40" height="40" viewBox="0 0 40 40" fill="none" xmlns="http://www.w3.org/2000/svg">
<rect width="40" height="40" rx="12" fill="#3BAF7E"/>
<path d="M19.9998 13.8426C19.3466 13.8426 18.7202 13.5831 18.2583 13.1212C17.7964 12.6593 17.5369 12.0328 17.5369 11.3796C17.5369 10.7264 17.7964 10.0999 18.2583 9.63801C18.7202 9.17612 19.3466 8.91663 19.9998 8.91663C20.6531 8.91663 21.2795 9.17612 21.7414 9.63801C22.2033 10.0999 22.4628 10.7264 22.4628 11.3796C22.4628 12.0328 22.2033 12.6593 21.7414 13.1212C21.2795 13.5831 20.6531 13.8426 19.9998 13.8426ZM19.9998 13.8426V18.7685M19.9998 18.7685C20.9797 18.7685 21.9194 19.1577 22.6122 19.8506C23.305 20.5434 23.6943 21.4831 23.6943 22.4629C23.6943 23.4428 23.305 24.3824 22.6122 25.0753C21.9194 25.7681 20.9797 26.1574 19.9998 26.1574C19.02 26.1574 18.0803 25.7681 17.3875 25.0753C16.6946 24.3824 16.3054 23.4428 16.3054 22.4629C16.3054 21.4831 16.6946 20.5434 17.3875 19.8506C18.0803 19.1577 19.02 18.7685 19.9998 18.7685ZM13.473 27.1426L16.9211 24.6796M26.5267 27.1426L23.0785 24.6796M8.9165 28.6203C8.9165 29.2735 9.17599 29.9 9.63789 30.3619C10.0998 30.8238 10.7262 31.0833 11.3795 31.0833C12.0327 31.0833 12.6592 30.8238 13.121 30.3619C13.5829 29.9 13.8424 29.2735 13.8424 28.6203C13.8424 27.9671 13.5829 27.3406 13.121 26.8788C12.6592 26.4169 12.0327 26.1574 11.3795 26.1574C10.7262 26.1574 10.0998 26.4169 9.63789 26.8788C9.17599 27.3406 8.9165 27.9671 8.9165 28.6203ZM26.1572 28.6203C26.1572 29.2735 26.4167 29.9 26.8786 30.3619C27.3405 30.8238 27.967 31.0833 28.6202 31.0833C29.2734 31.0833 29.8999 30.8238 30.3618 30.3619C30.8237 29.9 31.0832 29.2735 31.0832 28.6203C31.0832 27.9671 30.8237 27.3406 30.3618 26.8788C29.8999 26.4169 29.2734 26.1574 28.6202 26.1574C27.967 26.1574 27.3405 26.4169 26.8786 26.8788C26.4167 27.3406 26.1572 27.9671 26.1572 28.6203Z" stroke="white" stroke-width="2" stroke-linecap="round" stroke-linejoin="round"/>
</svg>
