<svg width="40" height="40" viewBox="0 0 40 40" fill="none" xmlns="http://www.w3.org/2000/svg">
<rect width="40" height="40" rx="12" fill="#117EFF"/>
<path d="M10.2 16.5H29.8M10.2 23.5H29.8M19.4163 9.5C17.4508 12.6495 16.4089 16.2875 16.4089 20C16.4089 23.7125 17.4508 27.3505 19.4163 30.5M20.5829 9.5C22.5484 12.6495 23.5904 16.2875 23.5904 20C23.5904 23.7125 22.5484 27.3505 20.5829 30.5M9.5 20C9.5 21.3789 9.77159 22.7443 10.2993 24.0182C10.8269 25.2921 11.6004 26.4496 12.5754 27.4246C13.5504 28.3996 14.7079 29.1731 15.9818 29.7007C17.2557 30.2284 18.6211 30.5 20 30.5C21.3789 30.5 22.7443 30.2284 24.0182 29.7007C25.2921 29.1731 26.4496 28.3996 27.4246 27.4246C28.3996 26.4496 29.1731 25.2921 29.7007 24.0182C30.2284 22.7443 30.5 21.3789 30.5 20C30.5 17.2152 29.3938 14.5445 27.4246 12.5754C25.4555 10.6062 22.7848 9.5 20 9.5C17.2152 9.5 14.5445 10.6062 12.5754 12.5754C10.6062 14.5445 9.5 17.2152 9.5 20Z" stroke="white" stroke-width="1.5" stroke-linecap="round" stroke-linejoin="round"/>
</svg>
