<svg width="40" height="40" viewBox="0 0 40 40" fill="none" xmlns="http://www.w3.org/2000/svg">
<rect width="40" height="40" rx="12" fill="#8247E5"/>
<path d="M16.3054 22.4629C16.3054 24.5035 19.6132 26.1574 23.6943 26.1574C27.7754 26.1574 31.0832 24.5035 31.0832 22.4629M16.3054 22.4629C16.3054 20.4224 19.6132 18.7685 23.6943 18.7685C27.7754 18.7685 31.0832 20.4224 31.0832 22.4629M16.3054 22.4629V27.3888C16.3054 29.4282 19.6132 31.0833 23.6943 31.0833C27.7754 31.0833 31.0832 29.4282 31.0832 27.3888V22.4629M8.9165 12.6111C8.9165 13.9312 10.3253 15.1504 12.6109 15.8105C14.8966 16.4705 17.7142 16.4705 19.9998 15.8105C22.2855 15.1504 23.6943 13.9312 23.6943 12.6111C23.6943 11.2909 22.2855 10.0718 19.9998 9.41168C17.7142 8.75161 14.8966 8.75161 12.6109 9.41168C10.3253 10.0718 8.9165 11.2909 8.9165 12.6111ZM8.9165 12.6111V24.9259C8.9165 26.0194 9.86721 26.7115 11.3795 27.3888M8.9165 18.7685C8.9165 19.862 9.86721 20.5541 11.3795 21.2314" stroke="white" stroke-width="2" stroke-linecap="round" stroke-linejoin="round"/>
</svg>
