<svg width="89" height="24" viewBox="0 0 89 24" fill="none" xmlns="http://www.w3.org/2000/svg">
<path d="M9.11876 24C7.56952 24 6.17855 23.6331 4.94651 22.8994C3.71513 22.1452 2.74119 21.1261 2.026 19.842C1.31082 18.5579 0.943042 17.1108 0.92334 15.5007V1.55923C0.92334 1.09046 1.06257 0.713378 1.34037 0.428041C1.63852 0.142703 2.0063 0 2.44303 0C2.90012 0 3.26789 0.142703 3.54634 0.428041C3.82414 0.713378 3.96338 1.09046 3.96338 1.55923V9.81403C4.65886 8.95795 5.49292 8.28536 6.46686 7.7962C7.45984 7.28664 8.5428 7.03187 9.71508 7.03187C11.1652 7.03187 12.4668 7.40888 13.6194 8.16305C14.7713 8.89683 15.6756 9.90571 16.331 11.1898C17.0068 12.4535 17.3444 13.8904 17.3444 15.5007C17.3444 17.1108 16.9766 18.5579 16.2417 19.842C15.5265 21.1261 14.5526 22.1452 13.3212 22.8994C12.0892 23.6331 10.6884 24 9.11876 24ZM9.11876 21.2484C10.1321 21.2484 11.0364 21.0038 11.8311 20.5146C12.6257 20.0051 13.2516 19.3121 13.7087 18.4357C14.1855 17.5592 14.4239 16.5809 14.4239 15.5007C14.4239 14.4 14.1855 13.4216 13.7087 12.5656C13.2516 11.7095 12.6257 11.037 11.8311 10.5477C11.0364 10.0382 10.1321 9.7834 9.11876 9.7834C8.12578 9.7834 7.22145 10.0382 6.40709 10.5477C5.61244 11.037 4.98657 11.7095 4.52948 12.5656C4.0724 13.4216 3.84385 14.4 3.84385 15.5007C3.84385 16.5809 4.0724 17.5592 4.52948 18.4357C4.98657 19.3121 5.61244 20.0051 6.40709 20.5146C7.22145 21.0038 8.12578 21.2484 9.11876 21.2484Z" fill="white"/>
<path d="M28.0962 24C26.4866 24 25.066 23.6283 23.834 22.8848C22.6026 22.12 21.6287 21.0792 20.9135 19.7621C20.218 18.4239 19.8706 16.8945 19.8706 15.1738C19.8706 13.4319 20.218 11.9025 20.9135 10.5855C21.6287 9.24722 22.6026 8.20635 23.834 7.46287C25.066 6.69813 26.4866 6.3158 28.0962 6.3158C29.6855 6.3158 31.0962 6.69813 32.3276 7.46287C33.5596 8.20635 34.5231 9.24722 35.2185 10.5855C35.9337 11.9025 36.2917 13.4319 36.2917 15.1738C36.2917 16.8945 35.9436 18.4239 35.2481 19.7621C34.5533 21.0792 33.5892 22.12 32.3578 22.8848C31.1258 23.6283 29.7052 24 28.0962 24ZM28.0962 21.1323C29.1293 21.1323 30.0428 20.8773 30.8375 20.3675C31.6328 19.8577 32.2481 19.1568 32.6855 18.2646C33.1426 17.3724 33.3711 16.3422 33.3711 15.1738C33.3711 14.0055 33.1426 12.9752 32.6855 12.0831C32.2481 11.1696 31.6328 10.458 30.8375 9.94819C30.0428 9.43838 29.1293 9.18345 28.0962 9.18345C27.0625 9.18345 26.149 9.43838 25.3544 9.94819C24.5597 10.458 23.9338 11.1696 23.4767 12.0831C23.0197 12.9752 22.7911 14.0055 22.7911 15.1738C22.7911 16.3422 23.0197 17.3724 23.4767 18.2646C23.9338 19.1568 24.5597 19.8577 25.3544 20.3675C26.149 20.8773 27.0625 21.1323 28.0962 21.1323Z" fill="white"/>
<path d="M52.469 24C52.0354 24 51.6714 23.8508 51.3758 23.5523C51.0997 23.2325 50.9623 22.8382 50.9623 22.3691V14.5023C50.9623 13.2872 50.7552 12.2959 50.3418 11.5284C49.9276 10.7609 49.3663 10.1959 48.6573 9.83346C47.9677 9.44974 47.17 9.25788 46.2637 9.25788C45.4367 9.25788 44.6879 9.43904 44.0185 9.8015C43.3485 10.164 42.8165 10.6543 42.4226 11.2725C42.0286 11.8695 41.832 12.5624 41.832 13.3511H39.9704C39.9704 12.008 40.2654 10.8142 40.8566 9.76953C41.4674 8.70357 42.2943 7.86144 43.3387 7.2432C44.3825 6.62495 45.5546 6.3158 46.8549 6.3158C48.2138 6.3158 49.4256 6.63558 50.4896 7.27516C51.5724 7.89347 52.4195 8.81017 53.0303 10.0253C53.6606 11.2405 53.9758 12.7329 53.9758 14.5023V22.3691C53.9758 22.8382 53.828 23.2325 53.533 23.5523C53.2569 23.8508 52.902 24 52.469 24ZM40.3246 24C39.8916 24 39.527 23.8508 39.2313 23.5523C38.9559 23.2325 38.8179 22.8382 38.8179 22.3691V8.10666C38.8179 7.61628 38.9559 7.22186 39.2313 6.92341C39.527 6.62495 39.8916 6.47569 40.3246 6.47569C40.7778 6.47569 41.1424 6.62495 41.4179 6.92341C41.694 7.22186 41.832 7.61628 41.832 8.10666V22.3691C41.832 22.8382 41.694 23.2325 41.4179 23.5523C41.1424 23.8508 40.7778 24 40.3246 24Z" fill="white"/>
<path d="M63.6225 24C62.2637 24 61.0422 23.6908 59.9594 23.0726C58.8954 22.433 58.0483 21.5057 57.4181 20.2905C56.8073 19.0753 56.502 17.5829 56.502 15.8135V7.9467C56.502 7.47772 56.64 7.09393 56.9154 6.79548C57.211 6.47569 57.5756 6.3158 58.0086 6.3158C58.4423 6.3158 58.7971 6.47569 59.0726 6.79548C59.3682 7.09393 59.516 7.47772 59.516 7.9467V15.8135C59.516 17.0073 59.7224 17.9987 60.1365 18.7875C60.5499 19.5549 61.1112 20.1306 61.8202 20.5143C62.5293 20.8768 63.3276 21.058 64.2137 21.058C65.0608 21.058 65.8096 20.8768 66.4594 20.5143C67.1288 20.1519 67.6607 19.6615 68.0546 19.0433C68.4486 18.4251 68.6458 17.7322 68.6458 16.9647H70.5074C70.5074 18.2865 70.202 19.4804 69.5913 20.5463C69.0001 21.6122 68.1829 22.4544 67.1392 23.0726C66.1143 23.6908 64.9423 24 63.6225 24ZM70.1525 23.8401C69.7195 23.8401 69.3549 23.6908 69.0593 23.3924C68.7839 23.0726 68.6458 22.6782 68.6458 22.2092V7.9467C68.6458 7.45639 68.7839 7.06197 69.0593 6.76351C69.3549 6.46506 69.7195 6.3158 70.1525 6.3158C70.6057 6.3158 70.9703 6.46506 71.2457 6.76351C71.5218 7.06197 71.6598 7.45639 71.6598 7.9467V22.2092C71.6598 22.6782 71.5218 23.0726 71.2457 23.3924C70.9703 23.6908 70.6057 23.8401 70.1525 23.8401Z" fill="white"/>
<path d="M76.9031 23.3857L74.7797 21.446L85.3963 6.93007L87.4881 8.86984L76.9031 23.3857ZM75.9659 24C74.9875 24 74.4982 23.4935 74.4982 22.4805C74.4982 21.4675 74.9875 20.961 75.9659 20.961H86.6135C87.592 20.961 88.0813 21.4675 88.0813 22.4805C88.0813 23.4935 87.592 24 86.6135 24H75.9659ZM75.6535 9.35478C74.6757 9.35478 74.1865 8.84827 74.1865 7.83532C74.1865 6.82231 74.6757 6.3158 75.6535 6.3158H86.3018C87.2796 6.3158 87.7689 6.82231 87.7689 7.83532C87.7689 8.84827 87.2796 9.35478 86.3018 9.35478H75.6535Z" fill="white"/>
</svg>
