<svg width="24" height="24" viewBox="0 0 24 24" fill="none" xmlns="http://www.w3.org/2000/svg">
<path d="M6.89997 10.526C7.05397 10.856 7.42697 11.499 7.42697 11.499L11.756 4.28601L7.53397 7.26001C7.28291 7.42921 7.07695 7.65714 6.93397 7.92401C6.7407 8.32964 6.63792 8.77243 6.63274 9.22171C6.62756 9.671 6.7201 10.116 6.90397 10.526H6.89997ZM5.18997 12.9C5.23807 13.5882 5.43093 14.2584 5.75594 14.8669C6.08094 15.4754 6.53077 16.0084 7.07597 16.431L11.752 19.714C11.752 19.714 8.83297 15.471 6.36897 11.241C6.11892 10.7944 5.95062 10.3068 5.87197 9.80101C5.83727 9.57232 5.83727 9.3397 5.87197 9.11101L5.68297 9.47601C5.43393 9.98996 5.26498 10.539 5.18197 11.104C5.12997 11.704 5.13897 12.304 5.19397 12.904L5.18997 12.9ZM17.1 13.474C16.9353 13.144 16.7596 12.8197 16.573 12.501L12.249 19.714L16.47 16.744C16.719 16.573 16.924 16.346 17.07 16.076C17.2626 15.6701 17.3647 15.2272 17.3692 14.7779C17.3737 14.3286 17.2805 13.8837 17.096 13.474H17.1ZM18.81 11.1C18.7631 10.4116 18.5708 9.74088 18.2457 9.13222C17.9206 8.52357 17.4701 7.99077 16.924 7.56901L12.25 4.28601C12.25 4.28601 15.168 8.52901 17.633 12.759C17.881 13.204 18.048 13.693 18.125 14.199C18.1597 14.4277 18.1597 14.6603 18.125 14.889L18.314 14.524C18.567 14.01 18.734 13.461 18.82 12.896C18.871 12.296 18.863 11.696 18.807 11.096L18.81 11.1Z" fill="white"/>
</svg>
