<svg width="24" height="24" viewBox="0 0 24 24" fill="none" xmlns="http://www.w3.org/2000/svg">
<path d="M8.73687 4.32812L7.17358 11.322L4.32812 7.74428V4.32812H8.73687ZM17.0609 4.32812L9.70434 7.86684L10.4968 4.32812H17.0609ZM9.33223 8.04583C9.33232 8.04579 9.33241 8.04574 9.3325 8.0457L9.33223 8.04583ZM19.6719 10.4988L13.9697 7.72422L19.6719 4.97943V10.4988ZM19.9594 10.6387L19.959 10.6386L19.9594 10.6387ZM18.7847 19.6719L16.7459 10.983L19.6719 12.4087V19.6719H18.7847ZM17.0173 19.6719H12.3819L15.9479 15.1144L17.0173 19.6719ZM4.32812 19.6719V17.1387H12.1806L10.1989 19.6719H4.32812ZM4.32812 15.4225V10.5048L8.23811 15.4225H4.32812ZM8.4961 15.747C8.49599 15.7468 8.49589 15.7467 8.49578 15.7466L8.4961 15.747Z" stroke="white"/>
</svg>
