<svg width="28" height="28" viewBox="0 0 28 28" fill="none" xmlns="http://www.w3.org/2000/svg">
<g opacity="0.7">
<path d="M7.36164 12.7366L13.0721 18.2799C13.1959 18.4024 13.3431 18.4997 13.5053 18.5661C13.6675 18.6325 13.8415 18.6666 14.0172 18.6666C14.1929 18.6666 14.3669 18.6325 14.5291 18.5661C14.6914 18.4997 14.8386 18.4024 14.9623 18.2799L20.6063 12.7366C20.731 12.6151 20.83 12.4705 20.8976 12.3112C20.9652 12.1518 21 11.981 21 11.8084C21 11.6358 20.9652 11.4649 20.8976 11.3056C20.83 11.1463 20.731 11.0017 20.6063 10.8801C20.3569 10.6366 20.0195 10.5 19.6678 10.5C19.3162 10.5 18.9788 10.6366 18.7294 10.8801L14.0172 15.5083L9.30507 10.8801C9.05713 10.6386 8.72249 10.5024 8.37329 10.501C8.1981 10.5 8.02444 10.533 7.86226 10.598C7.70008 10.6631 7.55257 10.759 7.42819 10.8801C7.29897 10.9973 7.19467 11.1385 7.12132 11.2954C7.04797 11.4524 7.00701 11.6221 7.00082 11.7947C6.99464 11.9674 7.02334 12.1395 7.08527 12.3011C7.1472 12.4628 7.24113 12.6108 7.36164 12.7366Z" fill="white"/>
</g>
</svg>
