<svg width="24" height="24" viewBox="0 0 24 24" fill="none" xmlns="http://www.w3.org/2000/svg">
<g clip-path="url(#clip0_3588_24828)">
<path d="M8 12C8 12.2652 8.10536 12.5196 8.29289 12.7071C8.48043 12.8946 8.73478 13 9 13C9.26522 13 9.51957 12.8946 9.70711 12.7071C9.89464 12.5196 10 12.2652 10 12C10 11.7348 9.89464 11.4804 9.70711 11.2929C9.51957 11.1054 9.26522 11 9 11C8.73478 11 8.48043 11.1054 8.29289 11.2929C8.10536 11.4804 8 11.7348 8 12Z" stroke="white" stroke-width="1.5" stroke-linecap="round" stroke-linejoin="round"/>
<path d="M14 12C14 12.2652 14.1054 12.5196 14.2929 12.7071C14.4804 12.8946 14.7348 13 15 13C15.2652 13 15.5196 12.8946 15.7071 12.7071C15.8946 12.5196 16 12.2652 16 12C16 11.7348 15.8946 11.4804 15.7071 11.2929C15.5196 11.1054 15.2652 11 15 11C14.7348 11 14.4804 11.1054 14.2929 11.2929C14.1054 11.4804 14 11.7348 14 12Z" stroke="white" stroke-width="1.5" stroke-linecap="round" stroke-linejoin="round"/>
<path d="M8.50011 17C8.50011 18 7.14411 20 6.66811 20C5.23911 20 3.97011 18.333 3.33511 17C2.70011 15.333 2.85911 11.167 4.76311 5.5C6.15111 4.485 7.54511 4.16 9.00011 4L9.97511 5.923C11.3162 5.6915 12.687 5.6915 14.0281 5.923L15.0001 4C16.5001 4.16 18.0431 4.485 19.5001 5.5C21.5001 11.167 21.6671 15.333 21.0001 17C20.3331 18.333 19.0001 20 17.5001 20C17.0001 20 15.5001 18 15.5001 17" stroke="white" stroke-width="1.5" stroke-linecap="round" stroke-linejoin="round"/>
<path d="M7 16.5C10.5 17.5 13.5 17.5 17 16.5" stroke="white" stroke-width="1.5" stroke-linecap="round" stroke-linejoin="round"/>
</g>
<defs>
<clipPath id="clip0_3588_24828">
<rect width="24" height="24" fill="white"/>
</clipPath>
</defs>
</svg>
