<svg width="24" height="24" viewBox="0 0 24 24" fill="none" xmlns="http://www.w3.org/2000/svg">
<path d="M18.0002 10C18.9842 12.762 19.9492 14.765 20.0002 17.153C20.0142 17.841 19.3362 18.499 18.8162 17.456C18.4696 16.76 17.8642 16.2747 17.0002 16C17.0312 17.831 17.1472 19.102 16.0002 20L17.5002 21C18.0002 21.5 18.0002 22 17.0002 22H7.00025C6.00025 22 6.00025 21.5 6.50025 21L8.00025 20C6.90125 19.13 7.08625 17.76 7.00025 16C6.09091 16.412 5.48825 16.861 5.19225 17.347C4.74825 18.074 3.81525 18.657 4.03225 16.43C4.25825 14.12 5.21725 12.338 6.00025 10M15.8982 13L15.4222 11M6.00025 9.74802C7.89124 10.5819 9.93662 11.0082 12.0033 10.9992C14.0699 10.9903 16.1116 10.5462 17.9952 9.69602C18.2702 0.460018 6.89125 -1.55998 6.00025 9.74802Z" stroke="white" stroke-width="1.5" stroke-linecap="round" stroke-linejoin="round"/>
<path d="M12.75 7C12.75 7.26522 12.8554 7.51957 13.0429 7.70711C13.2304 7.89464 13.4848 8 13.75 8C14.0152 8 14.2696 7.89464 14.4571 7.70711C14.6446 7.51957 14.75 7.26522 14.75 7C14.75 6.73478 14.6446 6.48043 14.4571 6.29289C14.2696 6.10536 14.0152 6 13.75 6C13.4848 6 13.2304 6.10536 13.0429 6.29289C12.8554 6.48043 12.75 6.73478 12.75 7ZM9.25 7C9.25 7.26522 9.35536 7.51957 9.54289 7.70711C9.73043 7.89464 9.98478 8 10.25 8C10.5152 8 10.7696 7.89464 10.9571 7.70711C11.1446 7.51957 11.25 7.26522 11.25 7C11.25 6.73478 11.1446 6.48043 10.9571 6.29289C10.7696 6.10536 10.5152 6 10.25 6C9.98478 6 9.73043 6.10536 9.54289 6.29289C9.35536 6.48043 9.25 6.73478 9.25 7Z" stroke="white" stroke-width="1.5" stroke-linecap="round" stroke-linejoin="round"/>
</svg>
