<svg width="24" height="24" viewBox="0 0 24 24" fill="none" xmlns="http://www.w3.org/2000/svg">
<path d="M19.993 9.10798C20.376 9.50798 20.68 9.97098 20.886 10.476C21.3009 11.4901 21.303 12.6263 20.892 13.642C20.6845 14.1507 20.3837 14.616 20.005 15.014C19.3197 15.7346 18.5817 16.4031 17.797 17.014C17.007 17.6303 16.1731 18.1881 15.302 18.683C13.542 19.6802 11.649 20.4217 9.67996 20.885C8.66388 21.1284 7.59354 20.9844 6.67796 20.481C6.23233 20.2355 5.8376 19.9073 5.51496 19.514C5.19928 19.1266 4.96311 18.6808 4.81996 18.202C3.62096 14.3 3.79796 9.88998 4.95396 5.97198C5.56296 3.91498 7.59696 2.62298 9.69096 3.09798C13.571 3.97798 17.211 6.24498 19.993 9.10798Z" stroke="white" stroke-width="1.5" stroke-linecap="round" stroke-linejoin="round"/>
<path d="M14.0442 13.034C14.7142 12.529 14.7142 11.545 14.0442 11.024C13.5665 10.6459 13.0662 10.2973 12.5462 9.98001C12.0232 9.6609 11.4823 9.37209 10.9262 9.11501C10.1562 8.76501 9.29618 9.25401 9.17318 10.088C8.9842 11.3411 8.95061 12.6127 9.07318 13.874C9.08973 14.0685 9.15228 14.2563 9.25566 14.4219C9.35904 14.5875 9.50029 14.7262 9.66779 14.8265C9.83528 14.9268 10.0242 14.9859 10.219 14.9988C10.4138 15.0118 10.6089 14.9783 10.7882 14.901C11.3696 14.6611 11.9354 14.3849 12.4822 14.074C13.0246 13.763 13.5464 13.4173 14.0442 13.039V13.034Z" stroke="white" stroke-width="1.5" stroke-linecap="round" stroke-linejoin="round"/>
</svg>
