<svg width="24" height="24" viewBox="0 0 24 24" fill="none" xmlns="http://www.w3.org/2000/svg">
<path d="M6.22371 4.86539C2.59601 7.80299 1.7505 12.9954 4.25834 16.9324L3.405 20.6112L7.20432 19.8267C11.1841 22.2662 16.3609 21.3299 19.2349 17.6517C22.1089 13.9734 21.7647 8.72412 18.4353 5.45218C15.106 2.18024 9.85142 1.92779 6.22371 4.86539Z" stroke="white" stroke-width="1.3" stroke-linecap="round" stroke-linejoin="round" stroke-dasharray="2.5 2.5"/>
<path d="M8.22144 7.3342C5.87869 9.23128 5.31018 12.5665 6.87572 15.1288C7.00272 15.3366 7.05099 15.593 6.99266 15.8444M8.22144 7.3342L6.99266 15.8444M8.22144 7.3342C10.5938 5.41312 14.0301 5.57821 16.2074 7.71794C18.3847 9.85771 18.6098 13.2906 16.7303 15.696C14.8729 18.0731 11.5447 18.699 8.95501 17.1738L8.62515 17.7339M8.22144 7.3342L8.62515 17.7339M6.99266 15.8444L6.63199 17.3993M6.99266 15.8444L6.63199 17.3993M8.62515 17.7339L8.95501 17.1738C8.75631 17.0568 8.51467 17.0106 8.27541 17.06L6.63199 17.3993M8.62515 17.7339L6.63199 17.3993" stroke="white" stroke-width="1.3" stroke-linecap="round" stroke-linejoin="round"/>
</svg>
