<svg width="24" height="24" viewBox="0 0 24 24" fill="none" xmlns="http://www.w3.org/2000/svg">
<path d="M21 7.917V11.951C19.1861 11.7709 17.4565 11.0961 16 10V14.5C15.9997 15.7211 15.6555 16.9175 15.0067 17.952C14.3579 18.9865 13.4308 19.8174 12.3317 20.3493C11.2325 20.8813 10.0057 21.0929 8.79185 20.9599C7.57799 20.8268 6.42615 20.3545 5.46831 19.5971C4.51046 18.8397 3.78534 17.8278 3.37603 16.6773C2.96671 15.5268 2.88976 14.2843 3.15399 13.0921C3.41821 11.8999 4.01293 10.8062 4.87 9.93642C5.72707 9.0666 6.81183 8.4558 8 8.174V12.5C7.65909 12.7557 7.38919 13.0943 7.21594 13.4836C7.04269 13.8729 6.97183 14.3001 7.0101 14.7245C7.04837 15.1489 7.1945 15.5565 7.4346 15.9086C7.6747 16.2606 8.00081 16.5455 8.38197 16.7361C8.76312 16.9266 9.18666 17.0166 9.61237 16.9975C10.0381 16.9783 10.4518 16.8507 10.8143 16.6266C11.1768 16.4026 11.476 16.0896 11.6836 15.7174C11.8911 15.3452 12 14.9261 12 14.5V3H16.083C16.2912 4.2284 16.8764 5.36162 17.7574 6.24263C18.6384 7.12363 19.7716 7.70878 21 7.917Z" stroke="white" stroke-width="1.5" stroke-linecap="round" stroke-linejoin="round"/>
</svg>
