<svg width="24" height="24" viewBox="0 0 24 24" fill="none" xmlns="http://www.w3.org/2000/svg">
<path d="M14 19H10C7.87827 19 5.84344 18.1571 4.34315 16.6569C2.84285 15.1566 2 13.1217 2 11V6H6V11C6 12.0609 6.42143 13.0783 7.17157 13.8284C7.92172 14.5786 8.93913 15 10 15V6H14V10.5H14.03C15.1261 10.3635 16.1345 9.83113 16.8657 9.00314C17.5968 8.17516 18.0002 7.10858 18 6.004H22L21.658 7.715C21.453 8.73903 21.0169 9.70275 20.383 10.5327C19.7491 11.3626 18.934 12.0369 18 12.504C18.9083 12.8066 19.7186 13.3479 20.346 14.0711C20.9734 14.7944 21.3947 15.673 21.566 16.615L22 19.004H18C18.0002 17.8994 17.5968 16.8328 16.8657 16.0049C16.1345 15.1769 15.1261 14.6445 14.03 14.508V19.008L14 19Z" stroke="white" stroke-width="1.5" stroke-linecap="round" stroke-linejoin="round"/>
</svg>
