<svg width="24" height="24" viewBox="0 0 24 24" fill="none" xmlns="http://www.w3.org/2000/svg">
<path d="M17.4818 1.96355C15.5076 1.83867 13.6723 6.33034 13.5489 6.6382C13.5449 6.6481 13.5347 6.65223 13.5246 6.64891C13.4024 6.60882 12.674 6.37696 12.1769 6.3769C11.6824 6.37685 10.9591 6.6061 10.8305 6.64818C10.8196 6.65175 10.8086 6.64753 10.8054 6.63651C10.7196 6.33935 9.57905 2.51811 7.70907 2.71939C5.60646 2.94571 6.47596 8.09984 6.5354 8.4385C6.53721 8.44878 6.531 8.458 6.52099 8.46094C6.35592 8.50938 5.07583 8.92028 4.88277 10.0657C4.27312 13.6828 5.05412 14.3586 5.15981 14.432C5.16671 14.4368 5.17078 14.4435 5.16969 14.4518C5.14652 14.6289 4.90321 16.648 5.73334 17.4918C6.33475 18.1031 7.4093 17.8001 7.59016 17.7433C7.60329 17.7392 7.61633 17.7492 7.61633 17.7629V19.1362C7.61633 19.143 7.61287 19.1494 7.60715 19.153L6.99905 19.544C6.98846 19.5508 6.98586 19.5646 6.9948 19.5735C7.17985 19.7569 8.94512 21.4251 11.9445 21.4251C16.2837 21.4251 18.1564 19.9817 18.2812 19.8815C18.2858 19.8778 18.2879 19.8727 18.2879 19.8667V12.0327C18.2879 12.0263 18.2909 12.0204 18.2961 12.0166C18.3752 11.9584 19.0105 11.4876 19.3582 11.1076C20.6969 9.64453 19.9183 2.11769 17.4818 1.96355Z" stroke="white" stroke-width="1.5"/>
<path d="M14.1252 11.2439V11.2439C14.1252 10.6936 13.6791 10.2476 13.1288 10.2476H10.0939M14.1252 11.2439L15.9447 11.5951C16.1248 11.6298 16.2581 11.7826 16.2683 11.9657L16.2902 12.3633C16.3051 12.6333 16.0534 12.84 15.7915 12.7729L14.1252 12.3458M14.1252 11.2439V12.3458M14.1252 12.3458V12.7524C14.1252 13.3047 13.6775 13.7524 13.1252 13.7524C12.9006 13.7524 12.6749 13.7524 12.4915 13.7524C11.3351 13.7524 10.0939 10.2476 10.0939 10.2476M10.0939 10.2476H9.64336M9.64336 10.2476H7.26649C7.08392 10.2476 6.92517 10.3696 6.88487 10.5476C6.68508 11.4306 6.19907 13.9286 7.21869 13.4517C8.30112 12.9454 9.64336 10.2476 9.64336 10.2476Z" stroke="white" stroke-width="1.3"/>
<path d="M9.83665 14.3322C9.893 14.6061 9.99656 15.0128 10.1712 15.4044C10.3726 15.8558 9.6981 15.1294 9.22422 14.5928C9.04165 14.386 9.17151 14.0635 9.44594 14.0359C9.63132 14.0172 9.79911 14.1497 9.83665 14.3322Z" stroke="white" stroke-width="0.709177" stroke-linejoin="round"/>
</svg>
